<svg width="32" height="35" viewBox="0 0 32 35" fill="none" xmlns="http://www.w3.org/2000/svg">
<path d="M4.93164 12.5488C5.14323 12.5488 5.34668 12.4837 5.54199 12.3535C5.7373 12.207 5.88379 12.0199 5.98145 11.792V7.39746C5.86751 7.44629 5.68034 7.56022 5.41992 7.73926C5.17578 7.90202 4.9235 8.12988 4.66309 8.42285C4.41895 8.71582 4.19922 9.07389 4.00391 9.49707C3.82487 9.90397 3.73535 10.376 3.73535 10.9131C3.73535 11.2549 3.7679 11.5397 3.83301 11.7676C3.91439 11.9792 4.01204 12.1419 4.12598 12.2559C4.23991 12.3698 4.36198 12.4512 4.49219 12.5C4.63867 12.5326 4.78516 12.5488 4.93164 12.5488ZM21.0693 16.6992C21.0693 16.3737 21.0124 16.1133 20.8984 15.918C20.7845 15.7064 20.6299 15.5436 20.4346 15.4297C20.2555 15.2995 20.0521 15.2018 19.8242 15.1367C19.5964 15.0553 19.3604 14.9902 19.1162 14.9414C18.7093 14.8438 18.3187 14.7461 17.9443 14.6484C17.57 14.5508 17.2363 14.4368 16.9434 14.3066C16.6504 14.1764 16.4144 14.0137 16.2354 13.8184C16.0726 13.623 15.9912 13.387 15.9912 13.1104C15.9912 12.9313 16.04 12.7197 16.1377 12.4756C16.2354 12.2152 16.3574 11.9466 16.5039 11.6699C16.6504 11.3932 16.805 11.1165 16.9678 10.8398C17.1468 10.5632 17.3096 10.3027 17.4561 10.0586L20.3857 5.24902C20.6462 4.77702 20.9554 4.41081 21.3135 4.15039C21.6715 3.88997 22.0866 3.75977 22.5586 3.75977C22.8516 3.75977 23.1201 3.84928 23.3643 4.02832C23.6084 4.19108 23.82 4.40267 23.999 4.66309C24.1943 4.90723 24.3571 5.17578 24.4873 5.46875C24.6338 5.76172 24.7559 6.03027 24.8535 6.27441C24.9674 6.61621 25.1302 6.94987 25.3418 7.27539C25.5534 7.58464 25.8464 7.73926 26.2207 7.73926C26.3672 7.73926 26.5381 7.70671 26.7334 7.6416C26.945 7.56022 27.1322 7.43001 27.2949 7.25098C27.474 7.07194 27.6204 6.83594 27.7344 6.54297C27.8646 6.23372 27.9297 5.85938 27.9297 5.41992C27.9297 4.76888 27.8483 4.28874 27.6855 3.97949C27.5228 3.65397 27.3275 3.49121 27.0996 3.49121C26.9857 3.50749 26.888 3.54818 26.8066 3.61328C26.7253 3.67839 26.6602 3.77604 26.6113 3.90625C26.5625 4.03646 26.5381 4.22363 26.5381 4.46777C26.5381 4.54915 26.5462 4.63867 26.5625 4.73633C26.5788 4.81771 26.5951 4.90723 26.6113 5.00488C25.3418 4.54915 24.707 3.71094 24.707 2.49023C24.707 2.16471 24.7721 1.85547 24.9023 1.5625C25.0326 1.25326 25.2197 0.984701 25.4639 0.756836C25.708 0.528971 26.0173 0.349935 26.3916 0.219727C26.766 0.0732422 27.1973 0 27.6855 0C28.3203 0 28.8818 0.146484 29.3701 0.439453C29.8747 0.716146 30.2897 1.09049 30.6152 1.5625C30.9408 2.01823 31.1849 2.5472 31.3477 3.14941C31.5267 3.73535 31.6162 4.3457 31.6162 4.98047C31.6162 5.95703 31.4697 6.84408 31.1768 7.6416C30.9001 8.43913 30.5094 9.12272 30.0049 9.69238C29.5166 10.2458 28.9388 10.6771 28.2715 10.9863C27.6042 11.2793 26.8962 11.4258 26.1475 11.4258C25.8382 11.4258 25.5127 11.4095 25.1709 11.377C24.8454 11.3281 24.5117 11.2386 24.1699 11.1084C23.8281 10.9782 23.4863 10.791 23.1445 10.5469C22.819 10.2865 22.5016 9.94466 22.1924 9.52148L21.6309 10.6201C21.5495 10.7015 21.46 10.8236 21.3623 10.9863C21.2646 11.1328 21.2158 11.3037 21.2158 11.499C21.2158 11.7269 21.3298 11.8896 21.5576 11.9873C21.7855 12.0687 22.054 12.1501 22.3633 12.2314C22.8516 12.3454 23.3724 12.4756 23.9258 12.6221C24.4792 12.7686 24.9919 12.9639 25.4639 13.208C25.9359 13.4521 26.3265 13.7533 26.6357 14.1113C26.945 14.4531 27.0996 14.8763 27.0996 15.3809V26.0742C27.0996 27.4414 26.888 28.597 26.4648 29.541C26.0417 30.4688 25.4883 31.2337 24.8047 31.8359C24.1374 32.4382 23.3968 32.902 22.583 33.2275C21.7692 33.5531 20.9635 33.7972 20.166 33.96C19.3848 34.1064 18.6686 34.196 18.0176 34.2285C17.3665 34.2448 16.8701 34.2529 16.5283 34.2529C16.1865 34.2529 15.6901 34.2448 15.0391 34.2285C14.388 34.196 13.6719 34.1064 12.8906 33.96C12.1094 33.7972 11.3037 33.5531 10.4736 33.2275C9.65983 32.902 8.91927 32.4382 8.25195 31.8359C7.58464 31.2337 7.03939 30.4688 6.61621 29.541C6.19303 28.597 5.98145 27.4414 5.98145 26.0742V14.0381C5.6722 14.266 5.32227 14.445 4.93164 14.5752C4.55729 14.7054 4.13411 14.7705 3.66211 14.7705C3.14128 14.7705 2.66113 14.6973 2.22168 14.5508C1.78223 14.4043 1.3916 14.1846 1.0498 13.8916C0.724284 13.5986 0.463867 13.2406 0.268555 12.8174C0.0895182 12.3779 0 11.8734 0 11.3037C0 10.4736 0.236003 9.60286 0.708008 8.69141C1.19629 7.77995 1.92871 6.94173 2.90527 6.17676C3.89811 5.39551 5.14323 4.7526 6.64062 4.24805C8.1543 3.74349 9.94466 3.49121 12.0117 3.49121V27.417C12.0117 28.3285 12.1582 29.0771 12.4512 29.6631C12.7441 30.249 13.1104 30.7129 13.5498 31.0547C14.0055 31.3802 14.4938 31.6081 15.0146 31.7383C15.5518 31.8685 16.0645 31.9336 16.5527 31.9336C17.041 31.9336 17.5456 31.8685 18.0664 31.7383C18.6035 31.6081 19.0918 31.3802 19.5312 31.0547C19.9707 30.7129 20.3369 30.249 20.6299 29.6631C20.9229 29.0771 21.0693 28.3285 21.0693 27.417V16.6992Z" fill="#0F1729"/>
</svg>
