<svg width="24" height="36" viewBox="0 0 24 36" fill="none" xmlns="http://www.w3.org/2000/svg">
<path d="M20.8984 9.69238C20.8984 10.4736 20.8333 11.1816 20.7031 11.8164C20.5892 12.4512 20.3288 12.9883 19.9219 13.4277C19.515 13.8672 18.929 14.209 18.1641 14.4531C17.3991 14.681 16.3737 14.7949 15.0879 14.7949C15.0879 13.8184 14.9658 12.8825 14.7217 11.9873C14.4938 11.0921 14.1602 10.3027 13.7207 9.61914C13.2812 8.93555 12.736 8.3903 12.085 7.9834C11.4502 7.5765 10.734 7.37305 9.93652 7.37305C9.38314 7.37305 8.85417 7.43001 8.34961 7.54395C7.86133 7.6416 7.42188 7.85319 7.03125 8.17871C6.6569 8.50423 6.35579 8.9681 6.12793 9.57031C5.91634 10.1725 5.81055 10.9701 5.81055 11.9629V26.8311C5.81055 28.0029 5.85124 28.9225 5.93262 29.5898C6.014 30.2572 6.09538 30.778 6.17676 31.1523C6.58366 30.778 6.98242 30.4118 7.37305 30.0537C7.77995 29.6794 8.18685 29.305 8.59375 28.9307C8.82161 28.7191 9.11458 28.5482 9.47266 28.418C9.847 28.2878 10.2702 28.2227 10.7422 28.2227C11.2305 28.2227 11.6455 28.3122 11.9873 28.4912C12.3454 28.654 12.6302 28.8249 12.8418 29.0039L15.0635 31.2256C15.0798 31.0954 15.0879 30.9814 15.0879 30.8838C15.0879 30.7699 15.0879 30.6966 15.0879 30.6641V25.5615C14.7786 25.7894 14.4287 25.9684 14.0381 26.0986C13.6637 26.2288 13.2406 26.2939 12.7686 26.2939C11.7432 26.2939 10.9701 26.0091 10.4492 25.4395C9.94466 24.8535 9.69238 24.1048 9.69238 23.1934C9.69238 22.2168 9.94466 21.346 10.4492 20.5811C10.9701 19.8161 11.7106 19.1732 12.6709 18.6523C13.6475 18.1315 14.8275 17.7327 16.2109 17.4561C17.5944 17.1794 19.1569 17.041 20.8984 17.041V28.8574C20.8984 29.2806 20.7926 29.7526 20.5811 30.2734C20.3695 30.778 20.0928 31.2907 19.751 31.8115C19.4092 32.3161 19.0104 32.8125 18.5547 33.3008C18.099 33.7728 17.6188 34.196 17.1143 34.5703C16.626 34.9447 16.1296 35.2458 15.625 35.4736C15.1367 35.6852 14.6729 35.791 14.2334 35.791C13.6963 35.791 13.2324 35.6771 12.8418 35.4492C12.4674 35.2214 12.1094 34.9772 11.7676 34.7168L9.57031 32.5439L6.78711 35.0098C6.51042 35.2376 6.24186 35.4248 5.98145 35.5713C5.72103 35.7178 5.33854 35.791 4.83398 35.791C4.3457 35.791 3.9388 35.7422 3.61328 35.6445C3.30404 35.5469 3.04362 35.4085 2.83203 35.2295C2.55534 34.9854 2.24609 34.6761 1.9043 34.3018C1.57878 33.9111 1.26953 33.4473 0.976562 32.9102C0.69987 32.3568 0.463867 31.7057 0.268555 30.957C0.0895182 30.2083 0 29.3376 0 28.3447V11.9629C0 10.9049 0.16276 10.0016 0.488281 9.25293C0.813802 8.50423 1.23698 7.8776 1.75781 7.37305C2.29492 6.85221 2.89714 6.43717 3.56445 6.12793C4.24805 5.81869 4.93164 5.59082 5.61523 5.44434C6.3151 5.28158 6.99056 5.17578 7.6416 5.12695C8.30892 5.07812 8.89486 5.05371 9.39941 5.05371C10.1807 5.05371 11.0758 5.17578 12.085 5.41992C13.1104 5.64779 14.1113 6.04655 15.0879 6.61621V4.15039C15.0879 3.43424 15.1855 2.81576 15.3809 2.29492C15.5924 1.77409 15.8691 1.34277 16.2109 1.00098C16.5527 0.65918 16.9515 0.406901 17.4072 0.244141C17.863 0.0813802 18.3512 0 18.8721 0C19.3441 0 19.873 0.0569661 20.459 0.170898C21.0612 0.284831 21.6227 0.480143 22.1436 0.756836C22.6644 1.01725 23.1038 1.36719 23.4619 1.80664C23.82 2.24609 23.999 2.79134 23.999 3.44238C23.999 3.81673 23.9258 4.14225 23.7793 4.41895C23.6328 4.69564 23.5026 4.89909 23.3887 5.0293C23.0469 4.73633 22.7295 4.52474 22.4365 4.39453C22.1598 4.26432 21.9157 4.19922 21.7041 4.19922C21.4437 4.19922 21.2402 4.2806 21.0938 4.44336C20.9635 4.60612 20.8984 4.80143 20.8984 5.0293V9.69238ZM14.0381 24.0723C14.2497 24.0723 14.4531 24.0072 14.6484 23.877C14.8438 23.7305 14.9902 23.5433 15.0879 23.3154V19.6533C14.9902 19.6859 14.8112 19.7591 14.5508 19.873C14.3066 19.987 14.0544 20.1579 13.7939 20.3857C13.5498 20.5973 13.3301 20.874 13.1348 21.2158C12.9395 21.5576 12.8418 21.9645 12.8418 22.4365C12.8418 22.7783 12.8743 23.0632 12.9395 23.291C13.0208 23.5026 13.1185 23.6654 13.2324 23.7793C13.3464 23.8932 13.4684 23.9746 13.5986 24.0234C13.7451 24.056 13.8916 24.0723 14.0381 24.0723Z" fill="#0F1729"/>
</svg>
