<svg width="24" height="39" viewBox="0 0 24 39" fill="none" xmlns="http://www.w3.org/2000/svg">
<path d="M10.498 15.0879C10.498 16.4551 10.6771 17.4886 11.0352 18.1885C11.3932 18.8721 11.8815 19.2139 12.5 19.2139C12.8418 19.2139 13.1348 19.1243 13.3789 18.9453C13.623 18.7663 13.7451 18.4652 13.7451 18.042C13.7451 17.7165 13.6719 17.5049 13.5254 17.4072C13.3952 17.3096 13.3138 17.2607 13.2812 17.2607C12.9883 17.2607 12.8418 17.4235 12.8418 17.749C12.8418 17.8792 12.8499 17.9688 12.8662 18.0176C12.6383 17.9199 12.4512 17.7816 12.3047 17.6025C12.1745 17.4235 12.0605 17.2445 11.9629 17.0654C11.8815 16.8701 11.8245 16.6911 11.792 16.5283C11.7594 16.3493 11.7432 16.2028 11.7432 16.0889C11.7432 15.7796 11.7839 15.4785 11.8652 15.1855C11.9629 14.8763 12.1094 14.6077 12.3047 14.3799C12.5 14.1357 12.7441 13.9486 13.0371 13.8184C13.3301 13.6719 13.6719 13.5986 14.0625 13.5986C15.0879 13.5986 15.8285 13.916 16.2842 14.5508C16.7562 15.1855 16.9922 16.0889 16.9922 17.2607C16.9922 17.9769 16.8783 18.6035 16.6504 19.1406C16.4388 19.6777 16.1296 20.1335 15.7227 20.5078C15.332 20.8659 14.86 21.1426 14.3066 21.3379C13.7533 21.5169 13.1429 21.6064 12.4756 21.6064C11.4014 21.6064 10.5062 21.3867 9.79004 20.9473C9.09017 20.4915 8.52051 19.9382 8.08105 19.2871C7.65788 18.6198 7.35677 17.9118 7.17773 17.1631C7.01497 16.3981 6.93359 15.6982 6.93359 15.0635C6.93359 14.1683 7.07194 13.2812 7.34863 12.4023C7.6416 11.5234 8.10547 10.7422 8.74023 10.0586C9.375 9.35872 10.2051 8.7972 11.2305 8.37402C12.2721 7.95085 13.5498 7.73926 15.0635 7.73926C16.5283 7.73926 17.7979 8.02409 18.8721 8.59375C19.9626 9.16341 20.8577 9.90397 21.5576 10.8154C22.2575 11.7269 22.7783 12.7523 23.1201 13.8916C23.4619 15.0146 23.6328 16.1377 23.6328 17.2607C23.6328 18.7256 23.4538 20.0602 23.0957 21.2646C22.7376 22.4691 22.2493 23.5107 21.6309 24.3896C22.1517 25.0244 22.6156 25.8057 23.0225 26.7334C23.4294 27.6449 23.6328 28.6865 23.6328 29.8584C23.6328 31.4209 23.348 32.7555 22.7783 33.8623C22.2087 34.9528 21.4274 35.848 20.4346 36.5479C19.4417 37.2314 18.278 37.7279 16.9434 38.0371C15.625 38.3464 14.209 38.501 12.6953 38.501H11.1572C9.46452 38.501 7.93457 38.3057 6.56738 37.915C5.2002 37.5244 4.02832 36.9385 3.05176 36.1572C2.0752 35.3597 1.31836 34.3669 0.78125 33.1787C0.260417 31.9743 0 30.5664 0 28.9551V11.0596C0 9.56217 0.236003 8.17871 0.708008 6.90918C1.19629 5.63965 1.9043 4.54102 2.83203 3.61328C3.77604 2.68555 4.93978 1.96126 6.32324 1.44043C7.72298 0.919596 9.33431 0.65918 11.1572 0.65918C11.6943 0.65918 12.2233 0.716146 12.7441 0.830078C13.265 0.94401 13.7777 1.06608 14.2822 1.19629C14.8031 1.3265 15.3239 1.44857 15.8447 1.5625C16.3656 1.67643 16.9027 1.7334 17.4561 1.7334C17.7002 1.7334 17.9769 1.71712 18.2861 1.68457C18.6117 1.63574 18.9128 1.55436 19.1895 1.44043C19.4661 1.31022 19.7021 1.13118 19.8975 0.90332C20.109 0.675456 20.2148 0.374349 20.2148 0C20.4264 0.0325521 20.7275 0.0895182 21.1182 0.170898C21.5088 0.236003 21.8831 0.333659 22.2412 0.463867C22.6156 0.594076 22.9411 0.764974 23.2178 0.976562C23.4945 1.17188 23.6328 1.40788 23.6328 1.68457C23.6328 2.25423 23.4294 2.70182 23.0225 3.02734C22.6156 3.33659 22.1354 3.57259 21.582 3.73535C21.0449 3.89811 20.4997 4.00391 19.9463 4.05273C19.3929 4.08529 18.9779 4.10156 18.7012 4.10156C18.0176 4.10156 17.3747 4.0446 16.7725 3.93066C16.1702 3.80046 15.5843 3.67025 15.0146 3.54004C14.445 3.39355 13.8835 3.26335 13.3301 3.14941C12.7767 3.01921 12.207 2.9541 11.6211 2.9541C10.5469 2.9541 9.63542 3.21452 8.88672 3.73535C8.1543 4.25619 7.56022 4.91536 7.10449 5.71289C6.64876 6.49414 6.3151 7.36491 6.10352 8.3252C5.9082 9.28548 5.81055 10.2051 5.81055 11.084V29.5898C5.81055 30.4036 5.93262 31.2093 6.17676 32.0068C6.43717 32.7881 6.81966 33.488 7.32422 34.1064C7.82878 34.7249 8.4554 35.2295 9.2041 35.6201C9.96908 35.9945 10.8643 36.1816 11.8896 36.1816H12.6953C13.6882 36.1816 14.5182 35.9863 15.1855 35.5957C15.8529 35.2051 16.3818 34.7168 16.7725 34.1309C17.1631 33.5449 17.4398 32.9183 17.6025 32.251C17.7653 31.5837 17.8467 30.9814 17.8467 30.4443V29.8828C17.8467 29.3457 17.7897 28.8656 17.6758 28.4424C17.5781 28.0192 17.4479 27.6286 17.2852 27.2705C16.4062 27.6937 15.5355 27.9867 14.6729 28.1494C13.8102 28.3122 12.9883 28.3936 12.207 28.3936C11.3444 28.3936 10.612 28.2959 10.0098 28.1006C9.42383 27.9053 8.94368 27.6449 8.56934 27.3193C8.19499 26.9938 7.91829 26.6113 7.73926 26.1719C7.5765 25.7161 7.49512 25.2279 7.49512 24.707V22.3389C8.19499 23.2666 9.00879 23.9827 9.93652 24.4873C10.8805 24.9756 11.971 25.2197 13.208 25.2197C14.0218 25.2197 14.7705 25.0488 15.4541 24.707C16.154 24.3652 16.748 23.8607 17.2363 23.1934C17.7409 22.5098 18.1315 21.6797 18.4082 20.7031C18.7012 19.7103 18.8477 18.5628 18.8477 17.2607C18.8477 15.8773 18.7012 14.7217 18.4082 13.7939C18.1315 12.8662 17.7653 12.1257 17.3096 11.5723C16.8538 11.0026 16.3493 10.5957 15.7959 10.3516C15.2588 10.1074 14.7217 9.98535 14.1846 9.98535C13.3545 9.98535 12.6953 10.1807 12.207 10.5713C11.7188 10.9456 11.3444 11.4014 11.084 11.9385C10.8398 12.4756 10.6771 13.0371 10.5957 13.623C10.5306 14.1927 10.498 14.681 10.498 15.0879Z" fill="#0F1729"/>
</svg>
