<svg width="22" height="51" viewBox="0 0 22 51" fill="none" xmlns="http://www.w3.org/2000/svg">
<path d="M12.1826 1.41602C12.1826 2.42513 11.6943 2.92969 10.7178 2.92969C9.74121 2.92969 9.25293 2.42513 9.25293 1.41602C9.25293 0.472005 9.74121 0 10.7178 0C11.6943 0 12.1826 0.472005 12.1826 1.41602ZM13.4521 2.51465C13.4521 1.52181 13.9486 1.02539 14.9414 1.02539C15.9017 1.02539 16.3818 1.52181 16.3818 2.51465C16.3818 3.47493 15.9017 3.95508 14.9414 3.95508C13.9486 3.95508 13.4521 3.47493 13.4521 2.51465ZM16.6016 5.37109C16.6016 4.39453 17.0898 3.90625 18.0664 3.90625C19.043 3.90625 19.5312 4.42708 19.5312 5.46875C19.5312 6.38021 19.043 6.83594 18.0664 6.83594C17.0898 6.83594 16.6016 6.34766 16.6016 5.37109ZM18.042 9.7168C18.042 8.75651 18.5303 8.27637 19.5068 8.27637C20.4834 8.27637 20.9717 8.75651 20.9717 9.7168C20.9717 10.7096 20.4671 11.2061 19.458 11.2061C18.514 11.2061 18.042 10.7096 18.042 9.7168ZM18.5059 14.8193C18.5059 13.8428 18.9779 13.3545 19.9219 13.3545C20.931 13.3545 21.4355 13.8428 21.4355 14.8193C21.4355 15.7959 20.931 16.2842 19.9219 16.2842C18.9779 16.2842 18.5059 15.7959 18.5059 14.8193ZM12.1826 28.1494C12.1826 29.1423 11.6943 29.6387 10.7178 29.6387C9.74121 29.6387 9.25293 29.1423 9.25293 28.1494C9.25293 27.1891 9.74121 26.709 10.7178 26.709C11.6943 26.709 12.1826 27.1891 12.1826 28.1494ZM18.042 19.9219C18.042 18.9128 18.5303 18.4082 19.5068 18.4082C20.4834 18.4082 20.9717 18.9128 20.9717 19.9219C20.9717 20.8659 20.4834 21.3379 19.5068 21.3379C18.5303 21.3379 18.042 20.8659 18.042 19.9219ZM13.4521 27.0508C13.4521 26.123 13.9486 25.6592 14.9414 25.6592C15.9017 25.6592 16.3818 26.1637 16.3818 27.1729C16.3818 28.1169 15.9017 28.5889 14.9414 28.5889C13.9486 28.5889 13.4521 28.0762 13.4521 27.0508ZM16.6016 24.3164C16.6016 23.3073 17.0898 22.8027 18.0664 22.8027C19.043 22.8027 19.5312 23.3073 19.5312 24.3164C19.5312 25.2604 19.043 25.7324 18.0664 25.7324C17.0898 25.7324 16.6016 25.2604 16.6016 24.3164ZM8.00781 2.51465C8.00781 3.47493 7.50326 3.95508 6.49414 3.95508C5.55013 3.95508 5.07812 3.47493 5.07812 2.51465C5.07812 1.52181 5.55013 1.02539 6.49414 1.02539C7.50326 1.02539 8.00781 1.52181 8.00781 2.51465ZM4.83398 5.37109C4.83398 6.34766 4.3457 6.83594 3.36914 6.83594C2.39258 6.83594 1.9043 6.38021 1.9043 5.46875C1.9043 4.42708 2.39258 3.90625 3.36914 3.90625C4.3457 3.90625 4.83398 4.39453 4.83398 5.37109ZM3.39355 9.7168C3.39355 10.7096 2.92969 11.2061 2.00195 11.2061C0.976562 11.2061 0.463867 10.7096 0.463867 9.7168C0.463867 8.75651 0.952148 8.27637 1.92871 8.27637C2.90527 8.27637 3.39355 8.75651 3.39355 9.7168ZM2.92969 14.8193C2.92969 15.7959 2.45768 16.2842 1.51367 16.2842C0.504557 16.2842 0 15.7959 0 14.8193C0 13.8428 0.504557 13.3545 1.51367 13.3545C2.45768 13.3545 2.92969 13.8428 2.92969 14.8193ZM3.39355 19.9219C3.39355 20.8659 2.90527 21.3379 1.92871 21.3379C0.952148 21.3379 0.463867 20.8659 0.463867 19.9219C0.463867 18.9128 0.952148 18.4082 1.92871 18.4082C2.90527 18.4082 3.39355 18.9128 3.39355 19.9219ZM8.00781 27.0508C8.00781 28.0762 7.50326 28.5889 6.49414 28.5889C5.55013 28.5889 5.07812 28.1169 5.07812 27.1729C5.07812 26.1637 5.55013 25.6592 6.49414 25.6592C7.50326 25.6592 8.00781 26.123 8.00781 27.0508ZM4.83398 24.3164C4.83398 25.2604 4.3457 25.7324 3.36914 25.7324C2.39258 25.7324 1.9043 25.2604 1.9043 24.3164C1.9043 23.3073 2.39258 22.8027 3.36914 22.8027C4.3457 22.8027 4.83398 23.3073 4.83398 24.3164ZM5.59082 37.7441C5.86751 37.3372 6.1849 36.9303 6.54297 36.5234C6.90104 36.1165 7.2998 35.7503 7.73926 35.4248C8.19499 35.1156 8.69141 34.8633 9.22852 34.668C9.76562 34.4727 10.3516 34.375 10.9863 34.375C11.3444 34.375 11.7025 34.432 12.0605 34.5459C12.4349 34.6761 12.7686 34.8796 13.0615 35.1562C13.3545 35.4492 13.5905 35.8236 13.7695 36.2793C13.9648 36.735 14.0625 37.2884 14.0625 37.9395V50.2441H8.54492V38.7451C8.54492 38.4684 8.47982 38.2731 8.34961 38.1592C8.23568 38.0615 8.09733 38.0127 7.93457 38.0127C7.72298 38.0127 7.52767 38.0697 7.34863 38.1836C7.1696 38.2975 6.98242 38.444 6.78711 38.623L5.59082 37.7441Z" fill="#0F1729"/>
</svg>
