<svg width="33" height="36" viewBox="0 0 33 36" fill="none" xmlns="http://www.w3.org/2000/svg">
<path d="M18.3594 17.9199C18.1641 17.9199 17.9688 17.9932 17.7734 18.1396C17.5781 18.2699 17.4235 18.4489 17.3096 18.6768V22.3389C17.4072 22.3063 17.5781 22.2331 17.8223 22.1191C18.0827 22.0052 18.3431 21.8424 18.6035 21.6309C18.8639 21.403 19.0918 21.1182 19.2871 20.7764C19.4824 20.4346 19.5801 20.0277 19.5801 19.5557C19.5801 19.2139 19.5394 18.9372 19.458 18.7256C19.3929 18.4977 19.2952 18.3268 19.165 18.2129C19.0511 18.099 18.9209 18.0257 18.7744 17.9932C18.6442 17.9443 18.5059 17.9199 18.3594 17.9199ZM8.91113 30.9082C8.91113 31.2337 9.01693 31.5104 9.22852 31.7383C9.45638 31.9661 9.70866 32.1533 9.98535 32.2998C10.2783 32.4463 10.5713 32.5521 10.8643 32.6172C11.1572 32.6823 11.377 32.7148 11.5234 32.7148C12.1582 32.7148 12.736 32.5846 13.2568 32.3242C13.7777 32.0638 14.2985 31.779 14.8193 31.4697C15.3564 31.1605 15.918 30.8757 16.5039 30.6152C17.1061 30.3548 17.806 30.2246 18.6035 30.2246C19.3359 30.2246 20.0114 30.3548 20.6299 30.6152C21.2484 30.8757 21.8343 31.1605 22.3877 31.4697C22.9411 31.779 23.4782 32.0638 23.999 32.3242C24.5199 32.5846 25.0488 32.7148 25.5859 32.7148C25.9277 32.7148 26.1719 32.5439 26.3184 32.2021C26.4648 31.8441 26.5381 31.4616 26.5381 31.0547V13.9893C26.5381 12.8174 26.5055 11.8978 26.4404 11.2305C26.3753 10.5632 26.3021 10.0423 26.2207 9.66797C25.8301 10.0423 25.4313 10.4167 25.0244 10.791C24.6175 11.1491 24.2188 11.5153 23.8281 11.8896C23.584 12.1012 23.2747 12.2721 22.9004 12.4023C22.5423 12.5326 22.1273 12.5977 21.6553 12.5977C21.167 12.5977 20.7438 12.5163 20.3857 12.3535C20.0439 12.1745 19.7754 11.9954 19.5801 11.8164L17.334 9.59473C17.3177 9.72493 17.3096 9.847 17.3096 9.96094C17.3096 10.0586 17.3096 10.1237 17.3096 10.1562V16.4307C17.6188 16.2028 17.9606 16.0238 18.335 15.8936C18.7256 15.7633 19.1569 15.6982 19.6289 15.6982C20.6543 15.6982 21.4193 15.9912 21.9238 16.5771C22.4447 17.1468 22.7051 17.8874 22.7051 18.7988C22.7051 19.7754 22.4447 20.6462 21.9238 21.4111C21.4193 22.1761 20.6787 22.819 19.7021 23.3398C18.7419 23.8607 17.57 24.2594 16.1865 24.5361C14.8031 24.8128 13.2487 24.9512 11.5234 24.9512V11.9629C11.5234 11.5397 11.6211 11.0758 11.8164 10.5713C12.028 10.0505 12.3047 9.53776 12.6465 9.0332C13.0046 8.51237 13.4115 8.01595 13.8672 7.54395C14.3229 7.05566 14.7949 6.62435 15.2832 6.25C15.7715 5.87565 16.2598 5.58268 16.748 5.37109C17.2526 5.14323 17.7246 5.0293 18.1641 5.0293C18.7012 5.0293 19.1569 5.14323 19.5312 5.37109C19.9219 5.59896 20.2881 5.8431 20.6299 6.10352L22.8271 8.27637L25.6104 5.81055C25.887 5.58268 26.1556 5.39551 26.416 5.24902C26.6764 5.10254 27.0589 5.0293 27.5635 5.0293C28.0518 5.0293 28.4505 5.07812 28.7598 5.17578C29.0853 5.27344 29.3538 5.41178 29.5654 5.59082C29.8584 5.83496 30.1676 6.15234 30.4932 6.54297C30.8187 6.91732 31.1198 7.38119 31.3965 7.93457C31.6895 8.47168 31.9255 9.11458 32.1045 9.86328C32.2998 10.612 32.3975 11.4827 32.3975 12.4756V30.3711C32.3975 31.3151 32.2347 32.1289 31.9092 32.8125C31.5999 33.4961 31.2012 34.0576 30.7129 34.4971C30.2246 34.9365 29.6875 35.262 29.1016 35.4736C28.5156 35.6852 27.9541 35.791 27.417 35.791C26.4567 35.791 25.5697 35.6771 24.7559 35.4492C23.9583 35.2214 23.2015 34.9691 22.4854 34.6924C21.7855 34.4157 21.11 34.1634 20.459 33.9355C19.8242 33.7077 19.2057 33.5938 18.6035 33.5938C17.8711 33.5938 17.2038 33.7077 16.6016 33.9355C15.9993 34.1634 15.332 34.4157 14.5996 34.6924C13.8835 34.9691 13.0371 35.2214 12.0605 35.4492C11.1003 35.6771 9.89583 35.791 8.44727 35.791C7.50326 35.791 6.68945 35.6689 6.00586 35.4248C5.33854 35.1644 4.78516 34.8063 4.3457 34.3506C3.92253 33.8786 3.60514 33.3089 3.39355 32.6416C3.19824 31.9743 3.10059 31.2337 3.10059 30.4199V5.0293C3.10059 4.80143 3.02734 4.60612 2.88086 4.44336C2.75065 4.2806 2.55534 4.19922 2.29492 4.19922C2.08333 4.19922 1.83105 4.26432 1.53809 4.39453C1.26139 4.52474 0.952148 4.73633 0.610352 5.0293C0.496419 4.89909 0.366211 4.69564 0.219727 4.41895C0.0732422 4.14225 0 3.81673 0 3.44238C0 2.79134 0.179036 2.24609 0.537109 1.80664C0.895182 1.36719 1.33464 1.01725 1.85547 0.756836C2.3763 0.480143 2.92969 0.284831 3.51562 0.170898C4.11784 0.0569661 4.65495 0 5.12695 0C5.64779 0 6.13607 0.0813802 6.5918 0.244141C7.04753 0.406901 7.44629 0.65918 7.78809 1.00098C8.12988 1.34277 8.39844 1.77409 8.59375 2.29492C8.80534 2.81576 8.91113 3.43424 8.91113 4.15039V30.9082Z" fill="#0F1729"/>
</svg>
