<svg width="26" height="34" viewBox="0 0 26 34" fill="none" xmlns="http://www.w3.org/2000/svg">
<path d="M13.623 12.0605C14.1113 12.0605 14.7135 12.0931 15.4297 12.1582C16.1458 12.207 16.8945 12.321 17.6758 12.5C18.4733 12.679 19.2627 12.9313 20.0439 13.2568C20.8415 13.5661 21.5495 13.9811 22.168 14.502C22.8027 15.0065 23.3154 15.6331 23.7061 16.3818C24.0967 17.1143 24.292 17.985 24.292 18.9941V33.3496H18.2373V17.6514C18.2373 16.9678 18.0827 16.4144 17.7734 15.9912C17.4805 15.568 17.1061 15.2344 16.6504 14.9902C16.1947 14.7461 15.6982 14.5833 15.1611 14.502C14.624 14.4043 14.1113 14.3555 13.623 14.3555C13.1348 14.3555 12.6221 14.4043 12.085 14.502C11.5479 14.5833 11.0433 14.7461 10.5713 14.9902C10.1156 15.2344 9.73307 15.568 9.42383 15.9912C9.13086 16.4144 8.98438 16.9678 8.98438 17.6514V33.3496H2.9541V18.9941C2.9541 17.8711 3.1901 16.9189 3.66211 16.1377C4.15039 15.3402 4.77702 14.681 5.54199 14.1602C5.3304 13.8021 5.06185 13.5173 4.73633 13.3057C4.41081 13.0778 4.08529 12.9069 3.75977 12.793C3.45052 12.6628 3.15755 12.5651 2.88086 12.5C2.62044 12.4349 2.44141 12.3861 2.34375 12.3535C2.06706 12.2721 1.78223 12.1826 1.48926 12.085C1.21257 11.9873 0.960286 11.8652 0.732422 11.7188C0.520833 11.5723 0.341797 11.3932 0.195312 11.1816C0.0651042 10.9701 0 10.7015 0 10.376C0 10.1481 0.0732422 9.91211 0.219727 9.66797C0.366211 9.42383 0.545247 9.17969 0.756836 8.93555C0.984701 8.69141 1.22884 8.4554 1.48926 8.22754C1.76595 7.9834 2.02637 7.75553 2.27051 7.54395C2.74251 7.15332 3.25521 6.73014 3.80859 6.27441C4.36198 5.80241 4.88281 5.35482 5.37109 4.93164C5.94076 4.44336 6.51042 3.95508 7.08008 3.4668C7.35677 3.23893 7.67415 3.02734 8.03223 2.83203C8.40658 2.63672 8.87044 2.53906 9.42383 2.53906C9.94466 2.53906 10.3597 2.62044 10.6689 2.7832C10.9945 2.94596 11.2712 3.125 11.499 3.32031C11.9385 3.69466 12.4023 4.12598 12.8906 4.61426C13.3952 5.10254 13.9242 5.56641 14.4775 6.00586C15.0472 6.44531 15.6494 6.81966 16.2842 7.12891C16.9189 7.42188 17.5944 7.56836 18.3105 7.56836C18.6849 7.56836 19.0755 7.53581 19.4824 7.4707C19.9056 7.38932 20.2962 7.25911 20.6543 7.08008C21.0124 6.88477 21.3053 6.62435 21.5332 6.29883C21.7611 5.97331 21.875 5.55013 21.875 5.0293C21.875 4.72005 21.8262 4.45964 21.7285 4.24805C21.6309 4.02018 21.5088 3.84115 21.3623 3.71094C21.2158 3.56445 21.0531 3.45866 20.874 3.39355C20.695 3.32845 20.5241 3.2959 20.3613 3.2959C19.8568 3.2959 19.4906 3.45866 19.2627 3.78418C19.0348 4.09342 18.9209 4.44336 18.9209 4.83398C18.9209 4.93164 18.9209 5.0293 18.9209 5.12695C18.9372 5.20833 18.9535 5.28971 18.9697 5.37109C18.8558 5.33854 18.6768 5.2653 18.4326 5.15137C18.1885 5.02116 17.9443 4.85026 17.7002 4.63867C17.4561 4.41081 17.2363 4.13411 17.041 3.80859C16.862 3.4668 16.7725 3.0599 16.7725 2.58789C16.7725 2.3112 16.8376 2.01823 16.9678 1.70898C17.1143 1.39974 17.334 1.12305 17.627 0.878906C17.9199 0.61849 18.2943 0.406901 18.75 0.244141C19.222 0.0813802 19.7754 0 20.4102 0C21.0775 0 21.7204 0.113932 22.3389 0.341797C22.9736 0.553385 23.5352 0.878906 24.0234 1.31836C24.5117 1.74154 24.9023 2.26237 25.1953 2.88086C25.5046 3.48307 25.6592 4.1748 25.6592 4.95605C25.6592 6.03027 25.4232 6.95801 24.9512 7.73926C24.4792 8.50423 23.877 9.13086 23.1445 9.61914C22.4121 10.1074 21.6064 10.4655 20.7275 10.6934C19.8486 10.9212 18.9941 11.0352 18.1641 11.0352C16.6178 11.0352 15.0798 10.7666 13.5498 10.2295C12.0361 9.67611 10.555 8.74023 9.10645 7.42188C8.89486 7.25911 8.74837 7.13704 8.66699 7.05566C8.60189 6.95801 8.4554 6.81966 8.22754 6.64062L5.59082 8.88672C5.59082 9.24479 5.63151 9.5459 5.71289 9.79004C5.81055 10.0179 5.98145 10.1969 6.22559 10.3271C6.43717 10.4574 6.6569 10.5713 6.88477 10.6689C7.11263 10.7666 7.33236 10.8968 7.54395 11.0596C7.77181 11.2061 7.9834 11.4095 8.17871 11.6699C8.37402 11.9303 8.54492 12.2803 8.69141 12.7197C9.63542 12.4593 10.5469 12.2884 11.4258 12.207C12.321 12.1094 13.0534 12.0605 13.623 12.0605Z" fill="#0F1729"/>
</svg>
