<svg width="27" height="35" viewBox="0 0 27 35" fill="none" xmlns="http://www.w3.org/2000/svg">
<path d="M11.792 29.1504L16.4307 24.707L21.0693 29.1504V18.0908C21.0693 17.4886 21.0205 16.9596 20.9229 16.5039C20.8415 16.0482 20.7194 15.6494 20.5566 15.3076C20.4102 14.9658 20.223 14.6729 19.9951 14.4287C19.7835 14.1683 19.5557 13.9404 19.3115 13.7451C18.4326 14.0055 17.57 14.1846 16.7236 14.2822C15.8936 14.3799 15.21 14.4287 14.6729 14.4287C14.0544 14.4287 13.4115 14.4043 12.7441 14.3555C12.0768 14.3066 11.4176 14.209 10.7666 14.0625C10.1318 13.916 9.52148 13.7044 8.93555 13.4277C8.34961 13.151 7.83691 12.7767 7.39746 12.3047C6.97428 11.8327 6.63249 11.2549 6.37207 10.5713C6.11165 9.8877 5.98145 9.06575 5.98145 8.10547V5.17578C5.98145 4.80143 5.81869 4.61426 5.49316 4.61426C5.31413 4.61426 5.12695 4.67936 4.93164 4.80957C4.7526 4.93978 4.61426 5.11881 4.5166 5.34668C4.38639 5.21647 4.22363 4.98047 4.02832 4.63867C3.84928 4.29688 3.75977 3.88997 3.75977 3.41797C3.75977 2.86458 3.86556 2.3763 4.07715 1.95312C4.28874 1.52995 4.56543 1.17188 4.90723 0.878906C5.24902 0.585938 5.63965 0.366211 6.0791 0.219727C6.53483 0.0732422 6.9987 0 7.4707 0C7.99154 0 8.50423 0.0976562 9.00879 0.292969C9.52962 0.472005 9.99349 0.748698 10.4004 1.12305C10.8236 1.4974 11.1572 1.96126 11.4014 2.51465C11.6618 3.05176 11.792 3.67839 11.792 4.39453V8.47168C11.792 9.77376 12.0605 10.7096 12.5977 11.2793C13.1348 11.8327 13.8265 12.1094 14.6729 12.1094C15.0146 12.1094 15.3564 12.1012 15.6982 12.085C16.0563 12.0687 16.3981 12.028 16.7236 11.9629C16.4144 11.735 16.1133 11.4827 15.8203 11.2061C15.5436 10.9294 15.2913 10.6283 15.0635 10.3027C14.8519 9.97721 14.681 9.62728 14.5508 9.25293C14.4206 8.87858 14.3555 8.47168 14.3555 8.03223C14.3555 7.39746 14.4938 6.81966 14.7705 6.29883C15.0472 5.76172 15.4297 5.31413 15.918 4.95605C16.4062 4.58171 16.9759 4.29688 17.627 4.10156C18.278 3.88997 18.986 3.78418 19.751 3.78418C20.5485 3.78418 21.2728 3.89811 21.9238 4.12598C22.5911 4.33756 23.1527 4.63867 23.6084 5.0293C24.0804 5.40365 24.4385 5.85938 24.6826 6.39648C24.943 6.93359 25.0732 7.51953 25.0732 8.1543C25.0732 8.83789 24.9186 9.46452 24.6094 10.0342C24.3001 10.6038 23.8851 11.141 23.3643 11.6455C23.82 11.9385 24.2594 12.264 24.6826 12.6221C25.1058 12.9639 25.4801 13.3545 25.8057 13.7939C26.1312 14.2334 26.3916 14.7217 26.5869 15.2588C26.7822 15.7959 26.8799 16.3981 26.8799 17.0654V34.5215H21.3623L16.4307 29.5898L11.499 34.5215H5.98145V27.6855C5.65592 27.9134 5.30599 28.0924 4.93164 28.2227C4.55729 28.3529 4.13411 28.418 3.66211 28.418C3.14128 28.418 2.66113 28.3447 2.22168 28.1982C1.78223 28.0518 1.3916 27.832 1.0498 27.5391C0.724284 27.2461 0.463867 26.888 0.268555 26.4648C0.0895182 26.0254 0 25.529 0 24.9756C0 24.1455 0.227865 23.2747 0.683594 22.3633C1.13932 21.4355 1.83919 20.5892 2.7832 19.8242C3.74349 19.043 4.96419 18.4001 6.44531 17.8955C7.94271 17.391 9.72493 17.1387 11.792 17.1387V29.1504ZM21.0693 8.10547C21.0693 7.55208 20.9798 7.13704 20.8008 6.86035C20.6217 6.56738 20.3776 6.4209 20.0684 6.4209C19.8079 6.4209 19.5964 6.57552 19.4336 6.88477C19.2708 7.17773 19.1895 7.56836 19.1895 8.05664C19.1895 8.5612 19.3034 8.9681 19.5312 9.27734C19.7754 9.58659 20.0846 9.85514 20.459 10.083C20.6868 9.82259 20.8415 9.52962 20.9229 9.2041C21.0205 8.8623 21.0693 8.49609 21.0693 8.10547ZM4.93164 26.2207C5.14323 26.2207 5.34668 26.1556 5.54199 26.0254C5.7373 25.8789 5.88379 25.6917 5.98145 25.4639V21.0693C5.86751 21.1344 5.68034 21.2565 5.41992 21.4355C5.17578 21.5983 4.9235 21.8262 4.66309 22.1191C4.41895 22.3958 4.19922 22.7458 4.00391 23.1689C3.82487 23.5758 3.73535 24.0479 3.73535 24.585C3.73535 24.943 3.7679 25.2279 3.83301 25.4395C3.91439 25.651 4.01204 25.8138 4.12598 25.9277C4.23991 26.0417 4.36198 26.123 4.49219 26.1719C4.63867 26.2044 4.78516 26.2207 4.93164 26.2207Z" fill="#0F1729"/>
</svg>
