<svg width="21" height="31" viewBox="0 0 21 31" fill="none" xmlns="http://www.w3.org/2000/svg">
<path d="M5.81055 5.34668C6.11979 5.11881 6.46159 4.93978 6.83594 4.80957C7.21029 4.67936 7.63346 4.61426 8.10547 4.61426C10.1562 4.61426 11.1816 5.72103 11.1816 7.93457C11.1816 8.81348 10.9131 9.70052 10.376 10.5957C9.83887 11.4746 9.08203 12.2721 8.10547 12.9883C7.12891 13.6882 5.94889 14.2578 4.56543 14.6973C3.19824 15.1367 1.67643 15.3564 0 15.3564V6.39648C0 5.45247 0.187174 4.63867 0.561523 3.95508C0.935872 3.25521 1.42415 2.66927 2.02637 2.19727C2.62858 1.72526 3.30404 1.35091 4.05273 1.07422C4.81771 0.78125 5.58268 0.553385 6.34766 0.390625C7.12891 0.227865 7.8776 0.12207 8.59375 0.0732422C9.3099 0.0244141 9.92025 0 10.4248 0C10.9131 0 11.5072 0.016276 12.207 0.0488281C12.9069 0.0813802 13.6393 0.16276 14.4043 0.292969C15.1855 0.423177 15.9587 0.626628 16.7236 0.90332C17.4886 1.16374 18.1722 1.52995 18.7744 2.00195C19.3929 2.45768 19.8893 3.03548 20.2637 3.73535C20.6543 4.41895 20.8496 5.25716 20.8496 6.25C20.8496 7.53581 20.5485 8.7321 19.9463 9.83887C19.3604 10.9456 18.5954 11.9873 17.6514 12.9639C16.7074 13.9242 15.6576 14.8275 14.502 15.6738C13.3626 16.5202 12.2396 17.3258 11.1328 18.0908C10.4167 18.5791 9.73307 19.0592 9.08203 19.5312C8.44727 19.987 7.88574 20.4508 7.39746 20.9229C6.90918 21.3786 6.51855 21.8506 6.22559 22.3389C5.94889 22.8109 5.81055 23.3154 5.81055 23.8525C5.81055 24.7314 5.95703 25.4639 6.25 26.0498C6.55924 26.6195 6.94173 27.0833 7.39746 27.4414C7.85319 27.7995 8.34961 28.0518 8.88672 28.1982C9.42383 28.3447 9.93652 28.418 10.4248 28.418C10.9131 28.418 11.4176 28.3691 11.9385 28.2715C12.4593 28.1576 12.9313 27.946 13.3545 27.6367C13.7939 27.3112 14.152 26.8473 14.4287 26.2451C14.7054 25.6429 14.8438 24.8454 14.8438 23.8525V21.0693H20.8984V24.0234C20.8984 25.0814 20.7031 25.9847 20.3125 26.7334C19.9382 27.4821 19.4417 28.1087 18.8232 28.6133C18.2048 29.1016 17.513 29.4922 16.748 29.7852C15.9831 30.0618 15.21 30.2734 14.4287 30.4199C13.6475 30.5664 12.9069 30.6559 12.207 30.6885C11.5072 30.721 10.9131 30.7373 10.4248 30.7373C9.93652 30.7373 9.34245 30.721 8.64258 30.6885C7.94271 30.6559 7.20215 30.5745 6.4209 30.4443C5.65592 30.2979 4.89095 30.0863 4.12598 29.8096C3.361 29.5166 2.66927 29.1178 2.05078 28.6133C1.44857 28.0924 0.952148 27.4414 0.561523 26.6602C0.187174 25.8789 0 24.9268 0 23.8037C0 22.9899 0.211589 22.2168 0.634766 21.4844C1.05794 20.752 1.61133 20.0521 2.29492 19.3848C2.99479 18.7012 3.78418 18.0501 4.66309 17.4316C5.54199 16.7969 6.43717 16.1702 7.34863 15.5518C8.29264 14.9333 9.22038 14.2904 10.1318 13.623C11.0596 12.9557 11.8896 12.2314 12.6221 11.4502C13.3545 10.6527 13.9404 9.7819 14.3799 8.83789C14.8356 7.89388 15.0635 6.83594 15.0635 5.66406C15.0635 4.98047 14.9089 4.41895 14.5996 3.97949C14.3066 3.54004 13.9242 3.19824 13.4521 2.9541C12.9964 2.70996 12.5 2.5472 11.9629 2.46582C11.4258 2.36816 10.9131 2.31934 10.4248 2.31934C9.9528 2.31934 9.46452 2.3763 8.95996 2.49023C8.47168 2.60417 8.00781 2.7832 7.56836 3.02734C7.14518 3.27148 6.77083 3.58887 6.44531 3.97949C6.13607 4.35384 5.92448 4.80957 5.81055 5.34668ZM6.86035 6.83594C6.64876 6.83594 6.44531 6.90918 6.25 7.05566C6.05469 7.18587 5.9082 7.36491 5.81055 7.59277V11.6455C5.92448 11.5804 6.10352 11.4746 6.34766 11.3281C6.60807 11.1654 6.86035 10.9538 7.10449 10.6934C7.36491 10.4167 7.58464 10.0993 7.76367 9.74121C7.95898 9.36686 8.05664 8.94368 8.05664 8.47168C8.05664 8.11361 8.01595 7.82878 7.93457 7.61719C7.86947 7.4056 7.77995 7.24284 7.66602 7.12891C7.55208 7.01497 7.42188 6.94173 7.27539 6.90918C7.14518 6.86035 7.00684 6.83594 6.86035 6.83594Z" fill="#0F1729"/>
</svg>
