<svg width="17" height="35" viewBox="0 0 17 35" fill="none" xmlns="http://www.w3.org/2000/svg">
<path d="M5.98145 16.6992C5.98145 16.3737 5.92448 16.1133 5.81055 15.918C5.69661 15.7064 5.54199 15.5436 5.34668 15.4297C5.16764 15.2995 4.96419 15.2018 4.73633 15.1367C4.50846 15.0553 4.27246 14.9902 4.02832 14.9414C3.62142 14.8438 3.23079 14.7461 2.85645 14.6484C2.4821 14.5508 2.14844 14.4368 1.85547 14.3066C1.5625 14.1764 1.3265 14.0137 1.14746 13.8184C0.984701 13.623 0.90332 13.387 0.90332 13.1104C0.90332 12.9313 0.952148 12.7197 1.0498 12.4756C1.14746 12.2152 1.26953 11.9466 1.41602 11.6699C1.5625 11.3932 1.71712 11.1165 1.87988 10.8398C2.05892 10.5632 2.22168 10.3027 2.36816 10.0586L5.29785 5.24902C5.55827 4.77702 5.86751 4.41081 6.22559 4.15039C6.58366 3.88997 6.9987 3.75977 7.4707 3.75977C7.76367 3.75977 8.03223 3.84928 8.27637 4.02832C8.52051 4.19108 8.7321 4.40267 8.91113 4.66309C9.10645 4.90723 9.26921 5.17578 9.39941 5.46875C9.5459 5.76172 9.66797 6.03027 9.76562 6.27441C9.87956 6.61621 10.0423 6.94987 10.2539 7.27539C10.4655 7.58464 10.7585 7.73926 11.1328 7.73926C11.2793 7.73926 11.4502 7.70671 11.6455 7.6416C11.8571 7.56022 12.0443 7.43001 12.207 7.25098C12.3861 7.07194 12.5326 6.83594 12.6465 6.54297C12.7767 6.23372 12.8418 5.85938 12.8418 5.41992C12.8418 4.76888 12.7604 4.28874 12.5977 3.97949C12.4349 3.65397 12.2396 3.49121 12.0117 3.49121C11.8978 3.50749 11.8001 3.54818 11.7188 3.61328C11.6374 3.67839 11.5723 3.77604 11.5234 3.90625C11.4746 4.03646 11.4502 4.22363 11.4502 4.46777C11.4502 4.54915 11.4583 4.63867 11.4746 4.73633C11.4909 4.81771 11.5072 4.90723 11.5234 5.00488C10.2539 4.54915 9.61914 3.71094 9.61914 2.49023C9.61914 2.16471 9.68425 1.85547 9.81445 1.5625C9.94466 1.25326 10.1318 0.984701 10.376 0.756836C10.6201 0.528971 10.9294 0.349935 11.3037 0.219727C11.6781 0.0732422 12.1094 0 12.5977 0C13.2324 0 13.7939 0.146484 14.2822 0.439453C14.7868 0.716146 15.2018 1.09049 15.5273 1.5625C15.8529 2.01823 16.097 2.5472 16.2598 3.14941C16.4388 3.73535 16.5283 4.3457 16.5283 4.98047C16.5283 5.95703 16.3818 6.84408 16.0889 7.6416C15.8122 8.43913 15.4215 9.12272 14.917 9.69238C14.4287 10.2458 13.8509 10.6771 13.1836 10.9863C12.5163 11.2793 11.8083 11.4258 11.0596 11.4258C10.7503 11.4258 10.4248 11.4095 10.083 11.377C9.75749 11.3281 9.42383 11.2386 9.08203 11.1084C8.74023 10.9782 8.39844 10.791 8.05664 10.5469C7.73112 10.2865 7.41374 9.94466 7.10449 9.52148L6.54297 10.6201C6.46159 10.7015 6.37207 10.8236 6.27441 10.9863C6.17676 11.1328 6.12793 11.3037 6.12793 11.499C6.12793 11.7269 6.24186 11.8896 6.46973 11.9873C6.69759 12.0687 6.96615 12.1501 7.27539 12.2314C7.76367 12.3454 8.26823 12.4756 8.78906 12.6221C9.32617 12.7686 9.81445 12.9557 10.2539 13.1836C10.6934 13.4115 11.0596 13.7044 11.3525 14.0625C11.6455 14.4043 11.792 14.8275 11.792 15.332V34.2529C9.72493 34.2529 7.94271 34.0007 6.44531 33.4961C4.96419 32.9915 3.74349 32.3568 2.7832 31.5918C1.83919 30.8105 1.13932 29.9642 0.683594 29.0527C0.227865 28.1413 0 27.2705 0 26.4404C0 25.887 0.0895182 25.3988 0.268555 24.9756C0.463867 24.5361 0.724284 24.1699 1.0498 23.877C1.3916 23.584 1.78223 23.3643 2.22168 23.2178C2.66113 23.055 3.14128 22.9736 3.66211 22.9736C4.13411 22.9736 4.55729 23.0387 4.93164 23.1689C5.32227 23.2992 5.6722 23.4782 5.98145 23.7061V16.6992ZM4.93164 25.1709C4.78516 25.1709 4.63867 25.1953 4.49219 25.2441C4.36198 25.2767 4.23991 25.3499 4.12598 25.4639C4.01204 25.5778 3.91439 25.7487 3.83301 25.9766C3.7679 26.1882 3.73535 26.4648 3.73535 26.8066C3.73535 27.3438 3.82487 27.8239 4.00391 28.2471C4.19922 28.654 4.41895 29.0039 4.66309 29.2969C4.9235 29.5898 5.17578 29.8258 5.41992 30.0049C5.68034 30.1676 5.86751 30.2734 5.98145 30.3223V25.9277C5.88379 25.6999 5.7373 25.5208 5.54199 25.3906C5.34668 25.2441 5.14323 25.1709 4.93164 25.1709Z" fill="#0F1729"/>
</svg>
