<svg width="26" height="45" viewBox="0 0 26 45" fill="none" xmlns="http://www.w3.org/2000/svg">
<path d="M11.9873 44.3848C11.499 44.3848 10.9456 44.3604 10.3271 44.3115C9.70866 44.2464 9.07389 44.1243 8.42285 43.9453C7.77181 43.7663 7.12891 43.5221 6.49414 43.2129C5.87565 42.9036 5.32227 42.4967 4.83398 41.9922C4.3457 41.4714 3.94694 40.8529 3.6377 40.1367C3.34473 39.4043 3.19824 38.5417 3.19824 37.5488C3.19824 36.7025 3.40983 35.9131 3.83301 35.1807C4.27246 34.4482 4.84212 33.7484 5.54199 33.0811C6.25814 32.3975 7.0638 31.7383 7.95898 31.1035C8.87044 30.4688 9.79004 29.8258 10.7178 29.1748C11.6618 28.5238 12.5814 27.8483 13.4766 27.1484C14.388 26.4486 15.1937 25.6999 15.8936 24.9023C16.6097 24.1048 17.1794 23.2503 17.6025 22.3389C18.042 21.4111 18.2617 20.402 18.2617 19.3115C18.2617 18.6279 18.1071 18.0664 17.7979 17.627C17.5049 17.1875 17.1224 16.8457 16.6504 16.6016C16.1947 16.3574 15.6982 16.1947 15.1611 16.1133C14.624 16.0156 14.1113 15.9668 13.623 15.9668C13.151 15.9668 12.6628 16.0238 12.1582 16.1377C11.6699 16.2516 11.2061 16.4307 10.7666 16.6748C10.3434 16.9189 9.96908 17.2363 9.64355 17.627C9.33431 18.0013 9.12272 18.457 9.00879 18.9941C9.31803 18.7663 9.65983 18.5872 10.0342 18.457C10.4085 18.3268 10.8317 18.2617 11.3037 18.2617C13.3545 18.2617 14.3799 19.3685 14.3799 21.582C14.3799 22.4609 14.1113 23.348 13.5742 24.2432C13.0371 25.1221 12.2803 25.9196 11.3037 26.6357C10.3271 27.3356 9.14714 27.9053 7.76367 28.3447C6.39648 28.7842 4.87467 29.0039 3.19824 29.0039V20.0439C3.19824 19.4255 3.27962 18.8639 3.44238 18.3594C3.60514 17.8385 3.83301 17.3747 4.12598 16.9678C4.41895 16.5609 4.76074 16.2028 5.15137 15.8936C5.55827 15.568 5.98958 15.2913 6.44531 15.0635C6.3151 14.5101 6.05469 14.0706 5.66406 13.7451C5.27344 13.4033 4.85026 13.1348 4.39453 12.9395C3.95508 12.7441 3.5319 12.6058 3.125 12.5244C2.73438 12.443 2.47396 12.3779 2.34375 12.3291C2.06706 12.2477 1.79036 12.1663 1.51367 12.085C1.23698 11.9873 0.984701 11.8652 0.756836 11.7188C0.528971 11.5723 0.341797 11.3932 0.195312 11.1816C0.0651042 10.9701 0 10.7015 0 10.376C0 10.1481 0.0732422 9.91211 0.219727 9.66797C0.366211 9.42383 0.545247 9.17969 0.756836 8.93555C0.984701 8.69141 1.23698 8.44727 1.51367 8.20312C1.79036 7.95898 2.05078 7.73112 2.29492 7.51953C2.76693 7.14518 3.27962 6.72201 3.83301 6.25C4.38639 5.77799 4.90723 5.3304 5.39551 4.90723C5.96517 4.41895 6.53483 3.9388 7.10449 3.4668C7.36491 3.22266 7.67415 3.00293 8.03223 2.80762C8.40658 2.6123 8.87858 2.51465 9.44824 2.51465C9.96908 2.51465 10.3841 2.60417 10.6934 2.7832C11.0189 2.94596 11.2956 3.125 11.5234 3.32031C11.9629 3.69466 12.4268 4.12598 12.915 4.61426C13.4196 5.10254 13.9486 5.56641 14.502 6.00586C15.0716 6.44531 15.6657 6.81966 16.2842 7.12891C16.9189 7.42188 17.5944 7.56836 18.3105 7.56836C18.6849 7.56836 19.0837 7.53581 19.5068 7.4707C19.93 7.38932 20.3125 7.25098 20.6543 7.05566C21.0124 6.86035 21.3053 6.59994 21.5332 6.27441C21.7773 5.94889 21.8994 5.52572 21.8994 5.00488C21.8994 4.71191 21.8506 4.45964 21.7529 4.24805C21.6553 4.02018 21.5251 3.83301 21.3623 3.68652C21.2158 3.54004 21.0531 3.43424 20.874 3.36914C20.695 3.30404 20.5241 3.27148 20.3613 3.27148C19.8568 3.27148 19.4906 3.43424 19.2627 3.75977C19.0348 4.08529 18.9209 4.44336 18.9209 4.83398C18.9209 4.91536 18.929 5.00488 18.9453 5.10254C18.9616 5.18392 18.9779 5.27344 18.9941 5.37109C18.8802 5.33854 18.7012 5.2653 18.457 5.15137C18.2129 5.02116 17.9688 4.85026 17.7246 4.63867C17.4805 4.41081 17.2607 4.13411 17.0654 3.80859C16.8864 3.4668 16.7969 3.0599 16.7969 2.58789C16.7969 2.3112 16.862 2.01823 16.9922 1.70898C17.1387 1.39974 17.3584 1.12305 17.6514 0.878906C17.9443 0.61849 18.3187 0.406901 18.7744 0.244141C19.2301 0.0813802 19.7835 0 20.4346 0C21.1019 0 21.7448 0.113932 22.3633 0.341797C22.998 0.553385 23.5596 0.870768 24.0479 1.29395C24.5361 1.71712 24.9268 2.23796 25.2197 2.85645C25.5127 3.47493 25.6592 4.1748 25.6592 4.95605C25.6592 6.03027 25.4232 6.94987 24.9512 7.71484C24.4792 8.47982 23.877 9.10645 23.1445 9.59473C22.4284 10.083 21.6227 10.4411 20.7275 10.6689C19.8486 10.8968 18.9941 11.0107 18.1641 11.0107C16.6178 11.0107 15.0798 10.7422 13.5498 10.2051C12.0361 9.65169 10.555 8.72396 9.10645 7.42188C8.91113 7.25911 8.76465 7.13704 8.66699 7.05566C8.58561 6.95801 8.43913 6.81152 8.22754 6.61621L5.59082 8.88672C5.59082 9.22852 5.63151 9.52148 5.71289 9.76562C5.81055 9.99349 5.98958 10.1725 6.25 10.3027C6.49414 10.4655 6.77897 10.612 7.10449 10.7422C7.44629 10.8561 7.77181 11.0352 8.08105 11.2793C8.40658 11.5072 8.69954 11.8327 8.95996 12.2559C9.22038 12.679 9.40755 13.2812 9.52148 14.0625C10.3027 13.8997 11.0514 13.7939 11.7676 13.7451C12.4837 13.68 13.1022 13.6475 13.623 13.6475C14.1113 13.6475 14.7054 13.6637 15.4053 13.6963C16.1051 13.7288 16.8376 13.8102 17.6025 13.9404C18.3838 14.0706 19.1569 14.2741 19.9219 14.5508C20.6868 14.8112 21.3704 15.1774 21.9727 15.6494C22.5911 16.1051 23.0876 16.6829 23.4619 17.3828C23.8525 18.0664 24.0479 18.9046 24.0479 19.8975C24.0479 20.9066 23.8281 21.8669 23.3887 22.7783C22.9655 23.6735 22.3958 24.5361 21.6797 25.3662C20.9798 26.18 20.1823 26.9613 19.2871 27.71C18.3919 28.4587 17.4723 29.1829 16.5283 29.8828C15.5843 30.5664 14.6647 31.2337 13.7695 31.8848C12.8743 32.5358 12.0687 33.1787 11.3525 33.8135C10.6527 34.432 10.083 35.0505 9.64355 35.6689C9.22038 36.2874 9.00879 36.9141 9.00879 37.5488C9.00879 38.444 9.13086 39.1846 9.375 39.7705C9.63542 40.3564 9.96094 40.8203 10.3516 41.1621C10.7422 41.5039 11.1816 41.7399 11.6699 41.8701C12.1582 42.0003 12.6465 42.0654 13.1348 42.0654C13.8835 42.0654 14.5589 41.8783 15.1611 41.5039C15.7633 41.1133 16.276 40.6087 16.6992 39.9902C17.1387 39.3717 17.4723 38.68 17.7002 37.915C17.9281 37.1338 18.042 36.3444 18.042 35.5469V33.7158C18.042 33.2764 18.2129 32.8125 18.5547 32.3242C18.9128 31.8359 19.3685 31.3883 19.9219 30.9814C20.4915 30.5583 21.1344 30.2165 21.8506 29.9561C22.583 29.6794 23.3317 29.541 24.0967 29.541V44.3848H18.042V42.0654C17.749 42.4235 17.3665 42.749 16.8945 43.042C16.4388 43.3187 15.9342 43.5628 15.3809 43.7744C14.8438 43.9697 14.2741 44.1243 13.6719 44.2383C13.0859 44.3359 12.5244 44.3848 11.9873 44.3848ZM10.0586 20.4834C9.847 20.4834 9.64355 20.5566 9.44824 20.7031C9.25293 20.8333 9.10645 21.0124 9.00879 21.2402V25.293C9.12272 25.2279 9.30176 25.1221 9.5459 24.9756C9.80632 24.8128 10.0586 24.6012 10.3027 24.3408C10.5632 24.0641 10.7829 23.7467 10.9619 23.3887C11.1572 23.0143 11.2549 22.5911 11.2549 22.1191C11.2549 21.7611 11.2142 21.4762 11.1328 21.2646C11.0677 21.0531 10.9782 20.8903 10.8643 20.7764C10.7503 20.6624 10.6201 20.5892 10.4736 20.5566C10.3434 20.5078 10.2051 20.4834 10.0586 20.4834Z" fill="#0F1729"/>
</svg>
