<svg width="42" height="31" viewBox="0 0 42 31" fill="none" xmlns="http://www.w3.org/2000/svg">
<path d="M12.1826 2.53906C12.1826 3.54818 11.6943 4.05273 10.7178 4.05273C9.74121 4.05273 9.25293 3.54818 9.25293 2.53906C9.25293 1.59505 9.74121 1.12305 10.7178 1.12305C11.6943 1.12305 12.1826 1.59505 12.1826 2.53906ZM13.4521 3.6377C13.4521 2.64486 13.9486 2.14844 14.9414 2.14844C15.9017 2.14844 16.3818 2.64486 16.3818 3.6377C16.3818 4.59798 15.9017 5.07812 14.9414 5.07812C13.9486 5.07812 13.4521 4.59798 13.4521 3.6377ZM16.6016 6.49414C16.6016 5.51758 17.0898 5.0293 18.0664 5.0293C19.043 5.0293 19.5312 5.55013 19.5312 6.5918C19.5312 7.50326 19.043 7.95898 18.0664 7.95898C17.0898 7.95898 16.6016 7.4707 16.6016 6.49414ZM18.042 10.8398C18.042 9.87956 18.5303 9.39941 19.5068 9.39941C20.4834 9.39941 20.9717 9.87956 20.9717 10.8398C20.9717 11.8327 20.4671 12.3291 19.458 12.3291C18.514 12.3291 18.042 11.8327 18.042 10.8398ZM18.5059 15.9424C18.5059 14.9658 18.9779 14.4775 19.9219 14.4775C20.931 14.4775 21.4355 14.9658 21.4355 15.9424C21.4355 16.9189 20.931 17.4072 19.9219 17.4072C18.9779 17.4072 18.5059 16.9189 18.5059 15.9424ZM12.1826 29.2725C12.1826 30.2653 11.6943 30.7617 10.7178 30.7617C9.74121 30.7617 9.25293 30.2653 9.25293 29.2725C9.25293 28.3122 9.74121 27.832 10.7178 27.832C11.6943 27.832 12.1826 28.3122 12.1826 29.2725ZM18.042 21.0449C18.042 20.0358 18.5303 19.5312 19.5068 19.5312C20.4834 19.5312 20.9717 20.0358 20.9717 21.0449C20.9717 21.9889 20.4834 22.4609 19.5068 22.4609C18.5303 22.4609 18.042 21.9889 18.042 21.0449ZM13.4521 28.1738C13.4521 27.2461 13.9486 26.7822 14.9414 26.7822C15.9017 26.7822 16.3818 27.2868 16.3818 28.2959C16.3818 29.2399 15.9017 29.7119 14.9414 29.7119C13.9486 29.7119 13.4521 29.1992 13.4521 28.1738ZM16.6016 25.4395C16.6016 24.4303 17.0898 23.9258 18.0664 23.9258C19.043 23.9258 19.5312 24.4303 19.5312 25.4395C19.5312 26.3835 19.043 26.8555 18.0664 26.8555C17.0898 26.8555 16.6016 26.3835 16.6016 25.4395ZM8.00781 3.6377C8.00781 4.59798 7.50326 5.07812 6.49414 5.07812C5.55013 5.07812 5.07812 4.59798 5.07812 3.6377C5.07812 2.64486 5.55013 2.14844 6.49414 2.14844C7.50326 2.14844 8.00781 2.64486 8.00781 3.6377ZM4.83398 6.49414C4.83398 7.4707 4.3457 7.95898 3.36914 7.95898C2.39258 7.95898 1.9043 7.50326 1.9043 6.5918C1.9043 5.55013 2.39258 5.0293 3.36914 5.0293C4.3457 5.0293 4.83398 5.51758 4.83398 6.49414ZM3.39355 10.8398C3.39355 11.8327 2.92969 12.3291 2.00195 12.3291C0.976562 12.3291 0.463867 11.8327 0.463867 10.8398C0.463867 9.87956 0.952148 9.39941 1.92871 9.39941C2.90527 9.39941 3.39355 9.87956 3.39355 10.8398ZM2.92969 15.9424C2.92969 16.9189 2.45768 17.4072 1.51367 17.4072C0.504557 17.4072 0 16.9189 0 15.9424C0 14.9658 0.504557 14.4775 1.51367 14.4775C2.45768 14.4775 2.92969 14.9658 2.92969 15.9424ZM3.39355 21.0449C3.39355 21.9889 2.90527 22.4609 1.92871 22.4609C0.952148 22.4609 0.463867 21.9889 0.463867 21.0449C0.463867 20.0358 0.952148 19.5312 1.92871 19.5312C2.90527 19.5312 3.39355 20.0358 3.39355 21.0449ZM8.00781 28.1738C8.00781 29.1992 7.50326 29.7119 6.49414 29.7119C5.55013 29.7119 5.07812 29.2399 5.07812 28.2959C5.07812 27.2868 5.55013 26.7822 6.49414 26.7822C7.50326 26.7822 8.00781 27.2461 8.00781 28.1738ZM4.83398 25.4395C4.83398 26.3835 4.3457 26.8555 3.36914 26.8555C2.39258 26.8555 1.9043 26.3835 1.9043 25.4395C1.9043 24.4303 2.39258 23.9258 3.36914 23.9258C4.3457 23.9258 4.83398 24.4303 4.83398 25.4395ZM21.2158 5.15137C21.6715 4.35384 22.2575 3.6377 22.9736 3.00293C23.7061 2.35189 24.5117 1.80664 25.3906 1.36719C26.2695 0.927734 27.2054 0.594076 28.1982 0.366211C29.1911 0.12207 30.1921 0 31.2012 0C32.3893 0 33.5775 0.138346 34.7656 0.415039C35.9538 0.691732 37.0117 1.13932 37.9395 1.75781C38.8835 2.3763 39.6484 3.18197 40.2344 4.1748C40.8203 5.16764 41.1133 6.38021 41.1133 7.8125V30.7617H35.0586V7.08008C35.0586 5.63151 34.6842 4.48405 33.9355 3.6377C33.2031 2.77507 32.1452 2.34375 30.7617 2.34375C30.1595 2.34375 29.5898 2.47396 29.0527 2.73438C28.5319 2.99479 28.0355 3.361 27.5635 3.83301C27.1077 4.28874 26.6764 4.84212 26.2695 5.49316C25.8789 6.12793 25.5208 6.8278 25.1953 7.59277L21.2158 5.15137Z" fill="#0F1729"/>
</svg>
