<svg width="70" height="31" viewBox="0 0 70 31" fill="none" xmlns="http://www.w3.org/2000/svg">
<path d="M11.2549 20.2148C11.5641 19.987 11.9059 19.8079 12.2803 19.6777C12.6709 19.5475 13.1022 19.4824 13.5742 19.4824C14.0788 19.4824 14.5508 19.5638 14.9902 19.7266C15.446 19.873 15.8366 20.0928 16.1621 20.3857C16.5039 20.6787 16.7643 21.0449 16.9434 21.4844C17.1387 21.9076 17.2363 22.3958 17.2363 22.9492C17.2363 23.7793 17.0085 24.6501 16.5527 25.5615C16.097 26.473 15.389 27.3193 14.4287 28.1006C13.4847 28.8656 12.264 29.5003 10.7666 30.0049C9.28548 30.5094 7.51139 30.7617 5.44434 30.7617V13.208C5.44434 12.8988 5.38737 12.6546 5.27344 12.4756C5.17578 12.2803 5.03744 12.1257 4.8584 12.0117C4.67936 11.8978 4.47591 11.8083 4.24805 11.7432C4.02018 11.6781 3.78418 11.6211 3.54004 11.5723C3.10059 11.4909 2.66927 11.4014 2.24609 11.3037C1.82292 11.1898 1.44043 11.0514 1.09863 10.8887C0.773112 10.7259 0.504557 10.5306 0.292969 10.3027C0.0976562 10.0586 0 9.74935 0 9.375C0 9.16341 0.0732422 8.91113 0.219727 8.61816C0.382487 8.3252 0.577799 8.03223 0.805664 7.73926C1.0498 7.43001 1.30208 7.12891 1.5625 6.83594C1.82292 6.54297 2.05078 6.28255 2.24609 6.05469L6.49414 1.48926C6.91732 1.03353 7.32422 0.675456 7.71484 0.415039C8.12175 0.138346 8.51237 0 8.88672 0C9.16341 0 9.40755 0.0976562 9.61914 0.292969C9.847 0.488281 10.0586 0.732422 10.2539 1.02539C10.4655 1.31836 10.6608 1.63574 10.8398 1.97754C11.0352 2.30306 11.2386 2.6123 11.4502 2.90527C11.6781 3.19824 11.9222 3.44238 12.1826 3.6377C12.4593 3.83301 12.7767 3.93066 13.1348 3.93066C13.4115 3.93066 13.6475 3.8737 13.8428 3.75977C14.0381 3.64583 14.1927 3.49935 14.3066 3.32031C14.4368 3.14128 14.5264 2.93783 14.5752 2.70996C14.6403 2.4821 14.6729 2.25423 14.6729 2.02637V1.75781C15.1286 1.85547 15.5355 2.15658 15.8936 2.66113C16.2679 3.14941 16.4551 3.71908 16.4551 4.37012C16.4551 4.8584 16.3574 5.31413 16.1621 5.7373C15.9831 6.14421 15.7145 6.50228 15.3564 6.81152C14.9984 7.10449 14.5671 7.34049 14.0625 7.51953C13.5579 7.69857 12.9883 7.78809 12.3535 7.78809C11.6048 7.78809 10.8154 7.58464 9.98535 7.17773C9.17155 6.75456 8.42285 6.0791 7.73926 5.15137L5.68848 7.44629C5.57454 7.5765 5.51758 7.7474 5.51758 7.95898C5.51758 8.20312 5.63965 8.37402 5.88379 8.47168C6.14421 8.56934 6.42904 8.65885 6.73828 8.74023C7.22656 8.85417 7.73112 8.98438 8.25195 9.13086C8.78906 9.26107 9.27734 9.46452 9.7168 9.74121C10.1562 10.0016 10.5225 10.3597 10.8154 10.8154C11.1084 11.2549 11.2549 11.8327 11.2549 12.5488V20.2148ZM12.3047 21.6797C12.0931 21.6797 11.8896 21.7529 11.6943 21.8994C11.499 22.0296 11.3525 22.2087 11.2549 22.4365V26.8311C11.3688 26.7822 11.5479 26.6764 11.792 26.5137C12.0524 26.3346 12.3047 26.0986 12.5488 25.8057C12.8092 25.5127 13.029 25.1628 13.208 24.7559C13.4033 24.3327 13.501 23.8525 13.501 23.3154C13.501 22.9736 13.4603 22.6969 13.3789 22.4854C13.3138 22.2575 13.2243 22.0866 13.1104 21.9727C12.9964 21.8587 12.8662 21.7855 12.7197 21.7529C12.5895 21.7041 12.4512 21.6797 12.3047 21.6797Z" fill="#0F1729"/>
<path d="M35.9863 7.25098C35.9863 8.08105 35.5794 8.49609 34.7656 8.49609C33.9518 8.49609 33.5449 8.08105 33.5449 7.25098C33.5449 6.45345 33.9518 6.05469 34.7656 6.05469C35.5794 6.05469 35.9863 6.45345 35.9863 7.25098ZM37.0361 8.1543C37.0361 7.32422 37.4512 6.90918 38.2812 6.90918C39.0788 6.90918 39.4775 7.32422 39.4775 8.1543C39.4775 8.95182 39.0788 9.35059 38.2812 9.35059C37.4512 9.35059 37.0361 8.95182 37.0361 8.1543ZM39.6729 10.5469C39.6729 9.73307 40.0798 9.32617 40.8936 9.32617C41.7074 9.32617 42.1143 9.75749 42.1143 10.6201C42.1143 11.3851 41.7074 11.7676 40.8936 11.7676C40.0798 11.7676 39.6729 11.3607 39.6729 10.5469ZM40.8691 14.1602C40.8691 13.3626 41.276 12.9639 42.0898 12.9639C42.9036 12.9639 43.3105 13.3626 43.3105 14.1602C43.3105 14.9902 42.8874 15.4053 42.041 15.4053C41.2598 15.4053 40.8691 14.9902 40.8691 14.1602ZM41.2598 18.4082C41.2598 17.5944 41.6504 17.1875 42.4316 17.1875C43.278 17.1875 43.7012 17.5944 43.7012 18.4082C43.7012 19.222 43.278 19.6289 42.4316 19.6289C41.6504 19.6289 41.2598 19.222 41.2598 18.4082ZM35.9863 29.5166C35.9863 30.3467 35.5794 30.7617 34.7656 30.7617C33.9518 30.7617 33.5449 30.3467 33.5449 29.5166C33.5449 28.7191 33.9518 28.3203 34.7656 28.3203C35.5794 28.3203 35.9863 28.7191 35.9863 29.5166ZM40.8691 22.6562C40.8691 21.8262 41.276 21.4111 42.0898 21.4111C42.9036 21.4111 43.3105 21.8262 43.3105 22.6562C43.3105 23.4538 42.9036 23.8525 42.0898 23.8525C41.276 23.8525 40.8691 23.4538 40.8691 22.6562ZM37.0361 28.6133C37.0361 27.832 37.4512 27.4414 38.2812 27.4414C39.0788 27.4414 39.4775 27.8646 39.4775 28.7109C39.4775 29.4922 39.0788 29.8828 38.2812 29.8828C37.4512 29.8828 37.0361 29.4596 37.0361 28.6133ZM39.6729 26.3184C39.6729 25.4883 40.0798 25.0732 40.8936 25.0732C41.7074 25.0732 42.1143 25.4883 42.1143 26.3184C42.1143 27.1159 41.7074 27.5146 40.8936 27.5146C40.0798 27.5146 39.6729 27.1159 39.6729 26.3184ZM32.4951 8.1543C32.4951 8.95182 32.0801 9.35059 31.25 9.35059C30.4525 9.35059 30.0537 8.95182 30.0537 8.1543C30.0537 7.32422 30.4525 6.90918 31.25 6.90918C32.0801 6.90918 32.4951 7.32422 32.4951 8.1543ZM29.8584 10.5469C29.8584 11.3607 29.4515 11.7676 28.6377 11.7676C27.8239 11.7676 27.417 11.3851 27.417 10.6201C27.417 9.75749 27.8239 9.32617 28.6377 9.32617C29.4515 9.32617 29.8584 9.73307 29.8584 10.5469ZM28.6621 14.1602C28.6621 14.9902 28.2715 15.4053 27.4902 15.4053C26.6439 15.4053 26.2207 14.9902 26.2207 14.1602C26.2207 13.3626 26.6276 12.9639 27.4414 12.9639C28.2552 12.9639 28.6621 13.3626 28.6621 14.1602ZM28.2715 18.4082C28.2715 19.222 27.8809 19.6289 27.0996 19.6289C26.2533 19.6289 25.8301 19.222 25.8301 18.4082C25.8301 17.5944 26.2533 17.1875 27.0996 17.1875C27.8809 17.1875 28.2715 17.5944 28.2715 18.4082ZM28.6621 22.6562C28.6621 23.4538 28.2552 23.8525 27.4414 23.8525C26.6276 23.8525 26.2207 23.4538 26.2207 22.6562C26.2207 21.8262 26.6276 21.4111 27.4414 21.4111C28.2552 21.4111 28.6621 21.8262 28.6621 22.6562ZM32.4951 28.6133C32.4951 29.4596 32.0801 29.8828 31.25 29.8828C30.4525 29.8828 30.0537 29.4922 30.0537 28.7109C30.0537 27.8646 30.4525 27.4414 31.25 27.4414C32.0801 27.4414 32.4951 27.832 32.4951 28.6133ZM29.8584 26.3184C29.8584 27.1159 29.4515 27.5146 28.6377 27.5146C27.8239 27.5146 27.417 27.1159 27.417 26.3184C27.417 25.4883 27.8239 25.0732 28.6377 25.0732C29.4515 25.0732 29.8584 25.4883 29.8584 26.3184Z" fill="#0F1729"/>
<path d="M50.0244 5.15137C50.4801 4.35384 51.0661 3.6377 51.7822 3.00293C52.5146 2.35189 53.3203 1.80664 54.1992 1.36719C55.0781 0.927734 56.014 0.594076 57.0068 0.366211C57.9997 0.12207 59.0007 0 60.0098 0C61.1979 0 62.3861 0.138346 63.5742 0.415039C64.7624 0.691732 65.8203 1.13932 66.748 1.75781C67.6921 2.3763 68.457 3.18197 69.043 4.1748C69.6289 5.16764 69.9219 6.38021 69.9219 7.8125V30.7617H63.8672V7.08008C63.8672 5.63151 63.4928 4.48405 62.7441 3.6377C62.0117 2.77507 60.9538 2.34375 59.5703 2.34375C58.9681 2.34375 58.3984 2.47396 57.8613 2.73438C57.3405 2.99479 56.8441 3.361 56.3721 3.83301C55.9163 4.28874 55.485 4.84212 55.0781 5.49316C54.6875 6.12793 54.3294 6.8278 54.0039 7.59277L50.0244 5.15137Z" fill="#0F1729"/>
</svg>
