<svg width="32" height="36" viewBox="0 0 32 36" fill="none" xmlns="http://www.w3.org/2000/svg">
<path d="M6.86035 28.7598C6.64876 28.7598 6.44531 28.833 6.25 28.9795C6.05469 29.1097 5.9082 29.2887 5.81055 29.5166V33.1787C5.9082 33.1462 6.0791 33.0729 6.32324 32.959C6.56738 32.8451 6.81966 32.6823 7.08008 32.4707C7.34049 32.2428 7.56836 31.958 7.76367 31.6162C7.95898 31.2744 8.05664 30.8675 8.05664 30.3955C8.05664 30.0537 8.01595 29.777 7.93457 29.5654C7.86947 29.3376 7.77995 29.1667 7.66602 29.0527C7.55208 28.9388 7.42188 28.8656 7.27539 28.833C7.14518 28.7842 7.00684 28.7598 6.86035 28.7598ZM25.2441 5.0293C25.2441 4.80143 25.179 4.60612 25.0488 4.44336C24.9349 4.2806 24.7396 4.19922 24.4629 4.19922C24.2513 4.19922 23.999 4.26432 23.7061 4.39453C23.4294 4.52474 23.1283 4.73633 22.8027 5.0293C22.6725 4.89909 22.5342 4.69564 22.3877 4.41895C22.2412 4.14225 22.168 3.81673 22.168 3.44238C22.168 2.79134 22.347 2.24609 22.7051 1.80664C23.0632 1.36719 23.5026 1.01725 24.0234 0.756836C24.5605 0.480143 25.1221 0.284831 25.708 0.170898C26.2939 0.0569661 26.8229 0 27.2949 0C27.8158 0 28.304 0.0895182 28.7598 0.268555C29.2155 0.431315 29.6143 0.683594 29.9561 1.02539C30.2979 1.36719 30.5664 1.80664 30.7617 2.34375C30.957 2.86458 31.0547 3.48307 31.0547 4.19922V30.9082C31.0547 31.6081 30.9245 32.2184 30.6641 32.7393C30.4199 33.2438 30.0781 33.6833 29.6387 34.0576C29.2155 34.4157 28.7272 34.7087 28.1738 34.9365C27.6367 35.1481 27.0671 35.319 26.4648 35.4492C25.8789 35.5794 25.2848 35.6689 24.6826 35.7178C24.0967 35.7666 23.5514 35.791 23.0469 35.791C22.5423 35.791 21.9971 35.7666 21.4111 35.7178C20.8252 35.6689 20.2311 35.5794 19.6289 35.4492C19.043 35.3027 18.4733 35.1156 17.9199 34.8877C17.3665 34.6436 16.8783 34.3424 16.4551 33.9844C16.0319 33.61 15.6901 33.1706 15.4297 32.666C15.1693 32.1452 15.0391 31.543 15.0391 30.8594V13.9893C15.0391 12.8174 15.0065 11.8978 14.9414 11.2305C14.8763 10.5632 14.7949 10.0423 14.6973 9.66797C14.3066 10.0423 13.9079 10.4167 13.501 10.791C13.0941 11.1491 12.6953 11.5153 12.3047 11.8896C12.0768 12.1012 11.7757 12.2721 11.4014 12.4023C11.0433 12.5326 10.6201 12.5977 10.1318 12.5977C9.65983 12.5977 9.24479 12.5163 8.88672 12.3535C8.54492 12.1745 8.26823 11.9954 8.05664 11.8164L5.83496 9.59473C5.81869 9.72493 5.81055 9.847 5.81055 9.96094C5.81055 10.0586 5.81055 10.1237 5.81055 10.1562V27.2705C6.11979 27.0426 6.46159 26.8636 6.83594 26.7334C7.21029 26.6032 7.63346 26.5381 8.10547 26.5381C9.13086 26.5381 9.89583 26.8311 10.4004 27.417C10.9212 27.9867 11.1816 28.7272 11.1816 29.6387C11.1816 30.6152 10.9212 31.486 10.4004 32.251C9.89583 33.0159 9.15527 33.6589 8.17871 34.1797C7.21842 34.7005 6.04655 35.0993 4.66309 35.376C3.27962 35.6527 1.72526 35.791 0 35.791V11.9629C0 11.084 0.252279 10.2295 0.756836 9.39941C1.26139 8.56934 1.85547 7.82878 2.53906 7.17773C3.23893 6.52669 3.94694 6.00586 4.66309 5.61523C5.37923 5.22461 5.95703 5.0293 6.39648 5.0293C6.93359 5.0293 7.43815 5.14323 7.91016 5.37109C8.38216 5.59896 8.78092 5.8431 9.10645 6.10352L11.3037 8.27637L14.0869 5.81055C14.3636 5.58268 14.6322 5.39551 14.8926 5.24902C15.1693 5.10254 15.5599 5.0293 16.0645 5.0293C16.5365 5.0293 16.9271 5.07812 17.2363 5.17578C17.5618 5.27344 17.8304 5.41178 18.042 5.59082C18.335 5.83496 18.6442 6.15234 18.9697 6.54297C19.3115 6.91732 19.6208 7.38119 19.8975 7.93457C20.1904 8.47168 20.4264 9.11458 20.6055 9.86328C20.8008 10.612 20.8984 11.4827 20.8984 12.4756V31.665C20.8984 32.0068 20.9798 32.2998 21.1426 32.5439C21.3053 32.7718 21.5007 32.9508 21.7285 33.0811C21.9727 33.2113 22.2168 33.3089 22.4609 33.374C22.7051 33.4229 22.9167 33.4473 23.0957 33.4473C23.3073 33.4473 23.5352 33.4147 23.7793 33.3496C24.0397 33.2682 24.2757 33.1543 24.4873 33.0078C24.7152 32.8613 24.8942 32.6823 25.0244 32.4707C25.1709 32.2428 25.2441 31.9743 25.2441 31.665V5.0293Z" fill="#0F1729"/>
</svg>
