<svg width="21" height="31" viewBox="0 0 21 31" fill="none" xmlns="http://www.w3.org/2000/svg">
<path d="M6.86035 8.3252C6.64876 8.3252 6.44531 8.39844 6.25 8.54492C6.05469 8.67513 5.9082 8.85417 5.81055 9.08203V12.7441C5.9082 12.7116 6.0791 12.6383 6.32324 12.5244C6.56738 12.4105 6.81966 12.2477 7.08008 12.0361C7.34049 11.8083 7.56836 11.5234 7.76367 11.1816C7.95898 10.8398 8.05664 10.4329 8.05664 9.96094C8.05664 9.61914 8.01595 9.34245 7.93457 9.13086C7.86947 8.903 7.77995 8.7321 7.66602 8.61816C7.55208 8.50423 7.42188 8.43099 7.27539 8.39844C7.14518 8.34961 7.00684 8.3252 6.86035 8.3252ZM5.81055 6.83594C6.11979 6.60807 6.46159 6.42904 6.83594 6.29883C7.21029 6.16862 7.63346 6.10352 8.10547 6.10352C9.13086 6.10352 9.89583 6.39648 10.4004 6.98242C10.9212 7.55208 11.1816 8.29264 11.1816 9.2041C11.1816 10.1807 10.9212 11.0514 10.4004 11.8164C9.89583 12.5814 9.15527 13.2243 8.17871 13.7451C7.21842 14.266 6.04655 14.6647 4.66309 14.9414C3.27962 15.2181 1.72526 15.3564 0 15.3564V5.83496C0 4.95605 0.187174 4.19922 0.561523 3.56445C0.935872 2.92969 1.42415 2.40072 2.02637 1.97754C2.62858 1.53809 3.30404 1.18815 4.05273 0.927734C4.81771 0.667318 5.58268 0.472005 6.34766 0.341797C7.12891 0.195312 7.8776 0.105794 8.59375 0.0732422C9.3099 0.0244141 9.92025 0 10.4248 0C10.9131 0 11.5072 0.016276 12.207 0.0488281C12.9069 0.0813802 13.6393 0.16276 14.4043 0.292969C15.1855 0.406901 15.9587 0.594076 16.7236 0.854492C17.4886 1.09863 18.1722 1.44043 18.7744 1.87988C19.3929 2.30306 19.8893 2.84017 20.2637 3.49121C20.6543 4.14225 20.8496 4.9235 20.8496 5.83496V14.8438V23.8525C20.8496 24.9105 20.6543 25.8138 20.2637 26.5625C19.8893 27.3112 19.3929 27.946 18.7744 28.4668C18.1722 28.9714 17.4886 29.3783 16.7236 29.6875C15.9587 29.9805 15.1855 30.2083 14.4043 30.3711C13.6393 30.5176 12.9069 30.6152 12.207 30.6641C11.5072 30.7129 10.9131 30.7373 10.4248 30.7373C9.93652 30.7373 9.34245 30.7292 8.64258 30.7129C7.94271 30.6803 7.20215 30.599 6.4209 30.4688C5.65592 30.3223 4.89095 30.1107 4.12598 29.834C3.361 29.541 2.66927 29.1423 2.05078 28.6377C1.44857 28.1169 0.952148 27.474 0.561523 26.709C0.187174 25.9277 0 24.9756 0 23.8525V20.6787H5.81055V23.8525C5.81055 24.7314 5.95703 25.4639 6.25 26.0498C6.55924 26.6195 6.94173 27.0833 7.39746 27.4414C7.85319 27.7995 8.34961 28.0518 8.88672 28.1982C9.42383 28.3447 9.93652 28.418 10.4248 28.418C10.9131 28.418 11.4258 28.3691 11.9629 28.2715C12.5 28.1576 12.9964 27.9378 13.4521 27.6123C13.9242 27.2868 14.3066 26.8311 14.5996 26.2451C14.9089 25.6429 15.0635 24.8454 15.0635 23.8525V5.83496C15.0635 5.10254 14.9089 4.50846 14.5996 4.05273C14.3066 3.59701 13.9242 3.24707 13.4521 3.00293C12.9964 2.74251 12.5 2.56348 11.9629 2.46582C11.4258 2.36816 10.9131 2.31934 10.4248 2.31934C9.98535 2.31934 9.49707 2.38444 8.95996 2.51465C8.42285 2.62858 7.91829 2.82389 7.44629 3.10059C6.99056 3.37728 6.59994 3.74349 6.27441 4.19922C5.96517 4.63867 5.81055 5.18392 5.81055 5.83496V6.83594Z" fill="#0F1729"/>
</svg>
