<svg width="33" height="69" viewBox="0 0 33 69" fill="none" xmlns="http://www.w3.org/2000/svg">
<path d="M32.3242 68.6279H26.5137C26.3997 68.1396 26.2126 67.4886 25.9521 66.6748C25.708 65.861 25.3581 65.0146 24.9023 64.1357C24.4629 63.2568 23.9095 62.4023 23.2422 61.5723C22.5749 60.7585 21.7773 60.1074 20.8496 59.6191V68.6279C19.2057 68.4652 17.7979 68.1478 16.626 67.6758C15.4704 67.2201 14.5101 66.6585 13.7451 65.9912C12.9964 65.3239 12.443 64.5752 12.085 63.7451C11.7432 62.915 11.5723 62.0524 11.5723 61.1572C11.5723 60.6689 11.6374 60.1969 11.7676 59.7412C11.9141 59.2855 12.1257 58.8623 12.4023 58.4717C12.6953 58.0811 13.0615 57.7311 13.501 57.4219C13.9404 57.1289 14.4613 56.8929 15.0635 56.7139V53.2471C15.0635 52.5798 14.917 52.0264 14.624 51.5869C14.3311 51.1637 13.9567 50.8301 13.501 50.5859C13.0615 50.3418 12.5651 50.1709 12.0117 50.0732C11.4583 49.9756 10.9294 49.9268 10.4248 49.9268C9.93652 49.9268 9.42383 49.9674 8.88672 50.0488C8.34961 50.1465 7.85319 50.3174 7.39746 50.5615C6.94173 50.8057 6.55924 51.1393 6.25 51.5625C5.95703 51.9857 5.81055 52.5309 5.81055 53.1982V58.0811C6.11979 57.8532 6.46159 57.6742 6.83594 57.5439C7.21029 57.4137 7.63346 57.3486 8.10547 57.3486C8.61003 57.3486 9.02507 57.43 9.35059 57.5928C9.69238 57.7718 9.96094 57.9997 10.1562 58.2764C10.3516 58.5531 10.4818 58.8786 10.5469 59.2529C10.6283 59.6273 10.6689 60.0179 10.6689 60.4248C10.6689 61.2549 10.498 62.1501 10.1562 63.1104C9.81445 64.0706 9.23665 64.9577 8.42285 65.7715C7.60905 66.5853 6.51855 67.2607 5.15137 67.7979C3.78418 68.3512 2.06706 68.6279 0 68.6279V53.9795C0 53.0355 0.187174 52.2135 0.561523 51.5137C0.952148 50.8301 1.44857 50.2523 2.05078 49.7803C2.66927 49.3083 3.361 48.9258 4.12598 48.6328C4.89095 48.3561 5.65592 48.1364 6.4209 47.9736C7.20215 47.8271 7.94271 47.7295 8.64258 47.6807C9.34245 47.6318 9.93652 47.6074 10.4248 47.6074C10.9294 47.6074 11.5397 47.6318 12.2559 47.6807C12.972 47.7295 13.7126 47.8271 14.4775 47.9736C15.2588 48.1364 16.0238 48.3561 16.7725 48.6328C17.5374 48.9258 18.221 49.3083 18.8232 49.7803C19.4255 50.2523 19.9137 50.8301 20.2881 51.5137C20.6624 52.2135 20.8496 53.0355 20.8496 53.9795V56.8848C22.1354 57.2917 23.2503 57.8939 24.1943 58.6914C25.1383 59.4889 25.9115 60.3923 26.5137 61.4014V9.15527C26.5137 8.35775 26.4242 7.69043 26.2451 7.15332C26.0824 6.61621 25.8545 6.19303 25.5615 5.88379C25.2848 5.55827 24.9593 5.3304 24.585 5.2002C24.2106 5.06999 23.82 5.00488 23.4131 5.00488C22.8434 5.00488 22.2412 5.15137 21.6064 5.44434C20.988 5.7373 20.3776 6.15234 19.7754 6.68945C19.1895 7.21029 18.6279 7.82878 18.0908 8.54492C17.5537 9.26107 17.0898 10.0423 16.6992 10.8887C15.8529 10.8887 15.0716 10.8154 14.3555 10.6689C13.6556 10.5225 13.0534 10.2865 12.5488 9.96094C12.0443 9.63542 11.6455 9.2041 11.3525 8.66699C11.0758 8.11361 10.9375 7.43815 10.9375 6.64062C10.9375 6.33138 10.8887 6.07096 10.791 5.85938C10.7096 5.64779 10.5957 5.48503 10.4492 5.37109C10.319 5.24089 10.1725 5.15137 10.0098 5.10254C9.86328 5.03744 9.73307 5.00488 9.61914 5.00488C8.57747 5.00488 8.05664 5.58268 8.05664 6.73828C8.05664 6.90104 8.06478 7.07194 8.08105 7.25098C8.09733 7.41374 8.12988 7.60091 8.17871 7.8125C7.78809 7.64974 7.44629 7.42188 7.15332 7.12891C6.86035 6.83594 6.60807 6.52669 6.39648 6.20117C6.20117 5.85938 6.05469 5.52572 5.95703 5.2002C5.85938 4.8584 5.81055 4.56543 5.81055 4.32129C5.81055 3.68652 5.94889 3.10872 6.22559 2.58789C6.50228 2.05078 6.86849 1.59505 7.32422 1.2207C7.79622 0.830078 8.33333 0.528971 8.93555 0.317383C9.55404 0.105794 10.1969 0 10.8643 0C11.8734 0 12.7441 0.195312 13.4766 0.585938C14.2253 0.960286 14.8356 1.43229 15.3076 2.00195C15.7959 2.57161 16.154 3.19824 16.3818 3.88184C16.6097 4.56543 16.7236 5.2002 16.7236 5.78613C17.0492 5.36296 17.4479 4.96419 17.9199 4.58984C18.4082 4.19922 18.9535 3.86556 19.5557 3.58887C20.1579 3.2959 20.8089 3.06803 21.5088 2.90527C22.2087 2.74251 22.9411 2.66113 23.7061 2.66113C25.2197 2.66113 26.5218 2.83203 27.6123 3.17383C28.7028 3.51562 29.598 3.97949 30.2979 4.56543C30.9977 5.13509 31.5104 5.80241 31.8359 6.56738C32.1615 7.33236 32.3242 8.14616 32.3242 9.00879V68.6279ZM20.8496 45.2881H15.0635V20.1416C15.0635 19.4743 14.9089 18.929 14.5996 18.5059C14.3066 18.0827 13.9242 17.749 13.4521 17.5049C12.9964 17.2607 12.5 17.098 11.9629 17.0166C11.4258 16.9189 10.9131 16.8701 10.4248 16.8701C9.90397 16.8701 9.375 16.9189 8.83789 17.0166C8.30078 17.098 7.80436 17.2607 7.34863 17.5049C6.8929 17.749 6.51855 18.0827 6.22559 18.5059C5.94889 18.929 5.81055 19.4743 5.81055 20.1416V34.7412C6.11979 34.5133 6.46159 34.3343 6.83594 34.2041C7.21029 34.0739 7.63346 34.0088 8.10547 34.0088C8.61003 34.0088 9.08203 34.0902 9.52148 34.2529C9.97721 34.3994 10.3678 34.6191 10.6934 34.9121C11.0352 35.2051 11.2956 35.5713 11.4746 36.0107C11.6699 36.4339 11.7676 36.9222 11.7676 37.4756C11.7676 38.3057 11.5397 39.1764 11.084 40.0879C10.6283 40.9993 9.92025 41.8457 8.95996 42.627C8.01595 43.3919 6.80339 44.0267 5.32227 44.5312C3.84115 45.0358 2.06706 45.2881 0 45.2881V20.9229C0 19.9788 0.187174 19.165 0.561523 18.4814C0.952148 17.7816 1.44857 17.1956 2.05078 16.7236C2.66927 16.2516 3.361 15.8773 4.12598 15.6006C4.89095 15.3076 5.65592 15.0879 6.4209 14.9414C7.20215 14.7786 7.94271 14.6729 8.64258 14.624C9.34245 14.5752 9.93652 14.5508 10.4248 14.5508C10.9131 14.5508 11.5072 14.5752 12.207 14.624C12.9069 14.6729 13.6393 14.7786 14.4043 14.9414C15.1855 15.0879 15.9587 15.3076 16.7236 15.6006C17.4886 15.8773 18.1722 16.2516 18.7744 16.7236C19.3929 17.1956 19.8893 17.7816 20.2637 18.4814C20.6543 19.165 20.8496 19.9788 20.8496 20.9229V45.2881ZM6.86035 36.2305C6.64876 36.2305 6.44531 36.3037 6.25 36.4502C6.05469 36.5804 5.9082 36.7594 5.81055 36.9873V41.3818C5.92448 41.333 6.10352 41.2272 6.34766 41.0645C6.60807 40.8854 6.86035 40.6494 7.10449 40.3564C7.36491 40.0635 7.58464 39.7135 7.76367 39.3066C7.95898 38.8835 8.05664 38.4033 8.05664 37.8662C8.05664 37.5244 8.01595 37.2477 7.93457 37.0361C7.86947 36.8083 7.77995 36.6374 7.66602 36.5234C7.55208 36.4095 7.42188 36.3363 7.27539 36.3037C7.14518 36.2549 7.00684 36.2305 6.86035 36.2305ZM6.86035 59.5947C6.64876 59.5947 6.44531 59.6598 6.25 59.79C6.05469 59.9365 5.9082 60.1237 5.81055 60.3516V64.7461C5.92448 64.681 6.09538 64.5508 6.32324 64.3555C6.55111 64.1602 6.77897 63.8997 7.00684 63.5742C7.25098 63.2487 7.45443 62.8581 7.61719 62.4023C7.79622 61.9629 7.88574 61.4746 7.88574 60.9375C7.88574 60.3841 7.77995 60.0179 7.56836 59.8389C7.37305 59.6761 7.13704 59.5947 6.86035 59.5947ZM13.4766 61.4502C13.4766 61.5804 13.4928 61.7594 13.5254 61.9873C13.5742 62.2314 13.6556 62.4837 13.7695 62.7441C13.8835 63.0046 14.0381 63.2568 14.2334 63.501C14.445 63.7614 14.7217 63.973 15.0635 64.1357V59.2285C14.4938 59.4564 14.0869 59.7575 13.8428 60.1318C13.5986 60.5225 13.4766 60.9619 13.4766 61.4502Z" fill="#0F1729"/>
</svg>
