<svg width="19" height="32" viewBox="0 0 19 32" fill="none" xmlns="http://www.w3.org/2000/svg">
<path d="M12.3535 11.6211C11.3444 12.2233 10.0993 12.5244 8.61816 12.5244C7.25098 12.5244 6.03027 12.3372 4.95605 11.9629C3.88184 11.5885 2.97852 11.0677 2.24609 10.4004C1.51367 9.7168 0.952148 8.91927 0.561523 8.00781C0.187174 7.08008 0 6.07096 0 4.98047C0 4.3457 0.0895182 3.73535 0.268555 3.14941C0.463867 2.5472 0.74056 2.01823 1.09863 1.5625C1.47298 1.09049 1.92871 0.716146 2.46582 0.439453C3.01921 0.146484 3.66211 0 4.39453 0C5.0944 0 5.69661 0.12207 6.20117 0.366211C6.70573 0.594076 7.11263 0.878906 7.42188 1.2207C7.7474 1.5625 7.9834 1.92871 8.12988 2.31934C8.27637 2.69368 8.34961 3.02734 8.34961 3.32031C8.17057 3.33659 7.91829 3.37728 7.59277 3.44238C7.28353 3.49121 6.97428 3.62142 6.66504 3.83301C6.35579 4.0446 6.08724 4.35384 5.85938 4.76074C5.63151 5.15137 5.51758 5.68848 5.51758 6.37207C5.51758 7.54395 5.78613 8.47168 6.32324 9.15527C6.87663 9.82259 7.6416 10.1562 8.61816 10.1562C9.02507 10.1562 9.44824 10.0667 9.8877 9.8877C10.3434 9.69238 10.7503 9.35059 11.1084 8.8623C11.4665 8.35775 11.7594 7.67415 11.9873 6.81152C12.2314 5.94889 12.3535 4.84212 12.3535 3.49121V0.708008H18.1641V31.4453H12.3535V11.6211Z" fill="#0F1729"/>
</svg>
