<svg width="26" height="34" viewBox="0 0 26 34" fill="none" xmlns="http://www.w3.org/2000/svg">
<path d="M8.98438 29.126L13.623 25.708L18.2129 29.126V22.6074C17.8874 22.8353 17.5374 23.0143 17.1631 23.1445C16.7887 23.2747 16.3656 23.3398 15.8936 23.3398C15.3727 23.3398 14.8926 23.2666 14.4531 23.1201C14.0137 22.9574 13.623 22.7295 13.2812 22.4365C12.9557 22.1436 12.6953 21.7855 12.5 21.3623C12.321 20.9229 12.2314 20.4264 12.2314 19.873C12.2314 19.043 12.4674 18.1722 12.9395 17.2607C13.4277 16.333 14.1602 15.4867 15.1367 14.7217C16.1296 13.9567 17.3747 13.3219 18.8721 12.8174C20.3857 12.3128 22.1761 12.0605 24.2432 12.0605V33.3496H18.5303L13.623 29.4434L8.69141 33.3496H2.9541V14.7217C2.9541 14.3636 2.92969 14.0706 2.88086 13.8428C2.84831 13.6149 2.79134 13.4277 2.70996 13.2812C2.64486 13.1348 2.55534 13.0208 2.44141 12.9395C2.34375 12.8581 2.22168 12.7767 2.0752 12.6953C1.81478 12.5814 1.5625 12.4593 1.31836 12.3291C1.07422 12.1826 0.854492 12.0199 0.65918 11.8408C0.463867 11.6618 0.301107 11.4583 0.170898 11.2305C0.0569661 10.9863 0 10.7015 0 10.376C0 10.1481 0.0732422 9.91211 0.219727 9.66797C0.366211 9.42383 0.545247 9.17969 0.756836 8.93555C0.984701 8.69141 1.22884 8.4554 1.48926 8.22754C1.76595 7.9834 2.02637 7.75553 2.27051 7.54395C2.74251 7.15332 3.25521 6.73014 3.80859 6.27441C4.36198 5.80241 4.88281 5.35482 5.37109 4.93164C5.94076 4.44336 6.51042 3.95508 7.08008 3.4668C7.35677 3.23893 7.67415 3.02734 8.03223 2.83203C8.40658 2.63672 8.87044 2.53906 9.42383 2.53906C9.94466 2.53906 10.3597 2.62044 10.6689 2.7832C10.9945 2.94596 11.2712 3.125 11.499 3.32031C11.9385 3.69466 12.4023 4.12598 12.8906 4.61426C13.3952 5.10254 13.9242 5.56641 14.4775 6.00586C15.0472 6.44531 15.6494 6.81966 16.2842 7.12891C16.9189 7.42188 17.5944 7.56836 18.3105 7.56836C18.6849 7.56836 19.0755 7.53581 19.4824 7.4707C19.9056 7.38932 20.2962 7.25911 20.6543 7.08008C21.0124 6.88477 21.3053 6.62435 21.5332 6.29883C21.7611 5.97331 21.875 5.55013 21.875 5.0293C21.875 4.72005 21.8262 4.45964 21.7285 4.24805C21.6309 4.02018 21.5088 3.84115 21.3623 3.71094C21.2158 3.56445 21.0531 3.45866 20.874 3.39355C20.695 3.32845 20.5241 3.2959 20.3613 3.2959C19.8568 3.2959 19.4906 3.45866 19.2627 3.78418C19.0348 4.09342 18.9209 4.44336 18.9209 4.83398C18.9209 4.93164 18.9209 5.0293 18.9209 5.12695C18.9372 5.20833 18.9535 5.28971 18.9697 5.37109C18.8558 5.33854 18.6768 5.2653 18.4326 5.15137C18.1885 5.02116 17.9443 4.85026 17.7002 4.63867C17.4561 4.41081 17.2363 4.13411 17.041 3.80859C16.862 3.4668 16.7725 3.0599 16.7725 2.58789C16.7725 2.3112 16.8376 2.01823 16.9678 1.70898C17.1143 1.39974 17.334 1.12305 17.627 0.878906C17.9199 0.61849 18.2943 0.406901 18.75 0.244141C19.222 0.0813802 19.7754 0 20.4102 0C21.0775 0 21.7204 0.113932 22.3389 0.341797C22.9736 0.553385 23.5352 0.878906 24.0234 1.31836C24.5117 1.74154 24.9023 2.26237 25.1953 2.88086C25.5046 3.48307 25.6592 4.1748 25.6592 4.95605C25.6592 6.03027 25.4232 6.95801 24.9512 7.73926C24.4792 8.50423 23.877 9.13086 23.1445 9.61914C22.4121 10.1074 21.6064 10.4655 20.7275 10.6934C19.8486 10.9212 18.9941 11.0352 18.1641 11.0352C16.6178 11.0352 15.0798 10.7666 13.5498 10.2295C12.0361 9.67611 10.555 8.74023 9.10645 7.42188C8.89486 7.25911 8.74837 7.13704 8.66699 7.05566C8.60189 6.95801 8.4554 6.81966 8.22754 6.64062L5.59082 8.88672C5.59082 9.24479 5.63151 9.5459 5.71289 9.79004C5.81055 10.0179 5.98145 10.1969 6.22559 10.3271C6.51855 10.5062 6.81966 10.7096 7.12891 10.9375C7.45443 11.1654 7.75553 11.4258 8.03223 11.7188C8.30892 12.0117 8.53678 12.3454 8.71582 12.7197C8.89486 13.0941 8.98438 13.5173 8.98438 13.9893V29.126ZM17.1631 21.1426C17.3747 21.1426 17.5781 21.0775 17.7734 20.9473C17.9688 20.8008 18.1152 20.6055 18.2129 20.3613V15.9668C18.099 16.0319 17.9118 16.154 17.6514 16.333C17.4072 16.4958 17.1549 16.7236 16.8945 17.0166C16.6504 17.3096 16.4307 17.6595 16.2354 18.0664C16.0563 18.4733 15.9668 18.9453 15.9668 19.4824C15.9668 19.8405 15.9993 20.1253 16.0645 20.3369C16.1458 20.5485 16.2435 20.7194 16.3574 20.8496C16.4714 20.9635 16.5934 21.0449 16.7236 21.0938C16.8701 21.1263 17.0166 21.1426 17.1631 21.1426Z" fill="#0F1729"/>
</svg>
