<svg width="40" height="31" viewBox="0 0 40 31" fill="none" xmlns="http://www.w3.org/2000/svg">
<path d="M0 0C2.06706 0 3.77604 0.252279 5.12695 0.756836C6.47786 1.24512 7.55208 1.87174 8.34961 2.63672C9.14714 3.40169 9.70866 4.23991 10.0342 5.15137C10.3597 6.06283 10.5225 6.93359 10.5225 7.76367C10.5225 8.31706 10.4411 8.81348 10.2783 9.25293C10.1156 9.69238 9.89583 10.0667 9.61914 10.376C9.34245 10.6689 9.01693 10.8968 8.64258 11.0596C8.2845 11.2061 7.91016 11.2793 7.51953 11.2793C7.24284 11.2793 6.9987 11.2467 6.78711 11.1816C6.5918 11.1003 6.33952 10.9456 6.03027 10.7178V23.9258C6.03027 24.8372 6.16862 25.5859 6.44531 26.1719C6.72201 26.7578 7.07194 27.2217 7.49512 27.5635C7.93457 27.889 8.41471 28.1169 8.93555 28.2471C9.45638 28.3773 9.96094 28.4424 10.4492 28.4424C10.9701 28.4424 11.5072 28.3691 12.0605 28.2227C12.6139 28.0762 13.1104 27.8239 13.5498 27.4658C14.0055 27.1077 14.3799 26.6439 14.6729 26.0742C14.9658 25.5046 15.1123 24.7884 15.1123 23.9258V13.1348C15.1123 12.5488 15.0228 12.0768 14.8438 11.7188C14.6647 11.3444 14.3392 11.0596 13.8672 10.8643C13.6719 10.7829 13.4277 10.6689 13.1348 10.5225C12.8418 10.376 12.557 10.1969 12.2803 9.98535C12.0199 9.75749 11.792 9.49707 11.5967 9.2041C11.4176 8.91113 11.3281 8.59375 11.3281 8.25195C11.3281 7.82878 11.5072 7.2998 11.8652 6.66504C12.2396 6.014 12.8581 5.20833 13.7207 4.24805L16.6504 1.00098C17.0573 0.528971 17.4072 0.244141 17.7002 0.146484C17.9932 0.0488281 18.2861 0 18.5791 0C18.8721 0 19.1325 0.0732422 19.3604 0.219727C19.6045 0.349935 19.8161 0.520833 19.9951 0.732422C20.1904 0.94401 20.3613 1.18001 20.5078 1.44043C20.6706 1.70085 20.8171 1.95312 20.9473 2.19727C21.0775 2.44141 21.1995 2.63672 21.3135 2.7832C21.4437 2.91341 21.5658 3.01107 21.6797 3.07617C21.7936 3.14128 21.8913 3.18197 21.9727 3.19824C22.0703 3.21452 22.1517 3.22266 22.2168 3.22266C22.2656 3.22266 22.3389 3.21452 22.4365 3.19824C22.5342 3.18197 22.6318 3.13314 22.7295 3.05176C22.8434 2.9541 22.9492 2.80762 23.0469 2.6123C23.1445 2.41699 23.2259 2.13216 23.291 1.75781C23.7467 2.13216 24.0967 2.53092 24.3408 2.9541C24.6012 3.37728 24.7314 3.92253 24.7314 4.58984C24.7314 4.91536 24.6582 5.24902 24.5117 5.59082C24.3652 5.93262 24.1455 6.24186 23.8525 6.51855C23.5596 6.79525 23.1852 7.03125 22.7295 7.22656C22.2738 7.4056 21.7448 7.49512 21.1426 7.49512C20.8659 7.49512 20.5729 7.4707 20.2637 7.42188C19.9707 7.37305 19.6615 7.26725 19.3359 7.10449C19.0104 6.94173 18.6768 6.70573 18.335 6.39648C18.0094 6.08724 17.6921 5.6722 17.3828 5.15137L15.3564 7.44629C15.3076 7.51139 15.2507 7.58464 15.1855 7.66602C15.1367 7.7474 15.1123 7.86133 15.1123 8.00781C15.1123 8.23568 15.2425 8.39844 15.5029 8.49609C15.7796 8.59375 16.0726 8.67513 16.3818 8.74023C16.8701 8.83789 17.391 8.97624 17.9443 9.15527C18.4977 9.31803 19.0104 9.56217 19.4824 9.8877C19.9707 10.2132 20.3695 10.6364 20.6787 11.1572C20.988 11.6781 21.1426 12.3372 21.1426 13.1348V23.9258C21.1426 24.7884 21.2891 25.5046 21.582 26.0742C21.875 26.6439 22.2412 27.1077 22.6807 27.4658C23.1364 27.8239 23.641 28.0762 24.1943 28.2227C24.7477 28.3691 25.2848 28.4424 25.8057 28.4424C26.2939 28.4424 26.7904 28.3773 27.2949 28.2471C27.8158 28.1169 28.2878 27.889 28.7109 27.5635C29.1504 27.2217 29.5085 26.7578 29.7852 26.1719C30.0618 25.5859 30.2002 24.8372 30.2002 23.9258V13.7451C30.2002 13.3545 30.1432 13.029 30.0293 12.7686C29.9316 12.5081 29.7933 12.2965 29.6143 12.1338C29.4352 11.971 29.2236 11.849 28.9795 11.7676C28.7516 11.6862 28.5156 11.6211 28.2715 11.5723C27.832 11.4909 27.4007 11.4014 26.9775 11.3037C26.5706 11.1898 26.1963 11.0514 25.8545 10.8887C25.529 10.7259 25.2604 10.5306 25.0488 10.3027C24.8535 10.0586 24.7559 9.74935 24.7559 9.375C24.7559 9.16341 24.8291 8.91113 24.9756 8.61816C25.1383 8.3252 25.3337 8.03223 25.5615 7.73926C25.7894 7.43001 26.0335 7.12891 26.2939 6.83594C26.5544 6.54297 26.7904 6.28255 27.002 6.05469L31.7383 1.00098C32.1615 0.545247 32.5114 0.268555 32.7881 0.170898C33.0811 0.0569661 33.374 0 33.667 0C33.96 0 34.2204 0.0732422 34.4482 0.219727C34.6924 0.349935 34.904 0.520833 35.083 0.732422C35.2783 0.94401 35.4492 1.18001 35.5957 1.44043C35.7585 1.70085 35.9049 1.95312 36.0352 2.19727C36.1654 2.44141 36.2874 2.63672 36.4014 2.7832C36.5316 2.91341 36.6536 3.01107 36.7676 3.07617C36.8815 3.14128 36.9792 3.18197 37.0605 3.19824C37.1582 3.21452 37.2396 3.22266 37.3047 3.22266C37.3535 3.22266 37.4268 3.21452 37.5244 3.19824C37.6221 3.18197 37.7197 3.13314 37.8174 3.05176C37.9313 2.9541 38.0371 2.80762 38.1348 2.6123C38.2324 2.41699 38.3138 2.13216 38.3789 1.75781C38.8346 2.13216 39.1846 2.53092 39.4287 2.9541C39.6891 3.37728 39.8193 3.92253 39.8193 4.58984C39.8193 4.91536 39.7461 5.24902 39.5996 5.59082C39.4531 5.93262 39.2334 6.24186 38.9404 6.51855C38.6475 6.79525 38.2731 7.03125 37.8174 7.22656C37.3617 7.4056 36.8327 7.49512 36.2305 7.49512C35.9538 7.49512 35.6608 7.4707 35.3516 7.42188C35.0586 7.37305 34.7493 7.26725 34.4238 7.10449C34.0983 6.94173 33.7646 6.70573 33.4229 6.39648C33.0973 6.08724 32.7799 5.6722 32.4707 5.15137L30.4443 7.44629C30.3955 7.51139 30.3385 7.58464 30.2734 7.66602C30.2246 7.7474 30.2002 7.86133 30.2002 8.00781C30.2002 8.23568 30.3304 8.39844 30.5908 8.49609C30.8675 8.59375 31.1605 8.67513 31.4697 8.74023C31.958 8.83789 32.4788 8.97624 33.0322 9.15527C33.5856 9.31803 34.0983 9.56217 34.5703 9.8877C35.0586 10.2132 35.4574 10.6364 35.7666 11.1572C36.0758 11.6781 36.2305 12.3372 36.2305 13.1348V22.583C36.2305 23.9502 36.0189 25.1058 35.5957 26.0498C35.1725 26.9775 34.6354 27.7425 33.9844 28.3447C33.3333 28.9469 32.6009 29.4108 31.7871 29.7363C30.9733 30.0618 30.1839 30.306 29.4189 30.4688C28.654 30.6152 27.946 30.7048 27.2949 30.7373C26.6439 30.7536 26.1475 30.7617 25.8057 30.7617C25.3499 30.7617 24.821 30.7292 24.2188 30.6641C23.6165 30.599 22.9736 30.4606 22.29 30.249C21.6227 30.0374 20.931 29.7363 20.2148 29.3457C19.4987 28.9388 18.807 28.3936 18.1396 27.71C17.4561 28.3936 16.7562 28.9388 16.04 29.3457C15.3402 29.7363 14.6484 30.0374 13.9648 30.249C13.2812 30.4606 12.6383 30.599 12.0361 30.6641C11.4339 30.7292 10.9049 30.7617 10.4492 30.7617C10.1074 30.7617 9.611 30.7536 8.95996 30.7373C8.30892 30.7048 7.59277 30.6152 6.81152 30.4688C6.04655 30.306 5.25716 30.0618 4.44336 29.7363C3.64583 29.3945 2.91341 28.9225 2.24609 28.3203C1.59505 27.7018 1.05794 26.9287 0.634766 26.001C0.211589 25.057 0 23.9014 0 22.5342V0ZM7.08008 9.05762C7.22656 9.05762 7.36491 9.04134 7.49512 9.00879C7.6416 8.95996 7.77181 8.87858 7.88574 8.76465C8.01595 8.65072 8.11361 8.48796 8.17871 8.27637C8.26009 8.0485 8.30078 7.76367 8.30078 7.42188C8.30078 6.88477 8.20312 6.41276 8.00781 6.00586C7.8125 5.58268 7.58464 5.22461 7.32422 4.93164C7.08008 4.63867 6.8278 4.41081 6.56738 4.24805C6.32324 4.06901 6.14421 3.95508 6.03027 3.90625V8.30078C6.14421 8.52865 6.29883 8.71582 6.49414 8.8623C6.68945 8.99251 6.88477 9.05762 7.08008 9.05762Z" fill="#0F1729"/>
</svg>
