<svg width="30" height="42" viewBox="0 0 30 42" fill="none" xmlns="http://www.w3.org/2000/svg">
<path d="M24.0479 5.9082V32.6904C24.0479 33.2275 24.0153 33.7321 23.9502 34.2041C23.8851 34.6761 23.8037 35.1156 23.7061 35.5225C23.9339 35.9456 24.1862 36.2386 24.4629 36.4014C24.7559 36.5641 25.0488 36.6455 25.3418 36.6455C25.6999 36.6455 26.0091 36.499 26.2695 36.2061C26.5462 35.9294 26.709 35.498 26.7578 34.9121C27.2786 35.1237 27.71 35.3597 28.0518 35.6201C28.3936 35.8968 28.6702 36.1735 28.8818 36.4502C29.0934 36.7432 29.2399 37.028 29.3213 37.3047C29.4027 37.5977 29.4434 37.8662 29.4434 38.1104C29.4434 38.6637 29.3294 39.1357 29.1016 39.5264C28.8737 39.917 28.5889 40.2344 28.2471 40.4785C27.9215 40.7227 27.5553 40.9017 27.1484 41.0156C26.7578 41.1296 26.3916 41.1865 26.0498 41.1865C25.5452 41.1865 25.0814 41.1133 24.6582 40.9668C24.235 40.8366 23.8444 40.6576 23.4863 40.4297C23.1445 40.2181 22.8353 39.9658 22.5586 39.6729C22.2819 39.3962 22.0378 39.1113 21.8262 38.8184C21.3542 39.3066 20.8415 39.6973 20.2881 39.9902C19.751 40.2995 19.222 40.5436 18.7012 40.7227C18.1803 40.9017 17.6921 41.0238 17.2363 41.0889C16.7806 41.154 16.4062 41.1865 16.1133 41.1865C14.8112 41.1865 13.7207 41.04 12.8418 40.7471C11.9792 40.4704 11.2467 40.1204 10.6445 39.6973C10.0586 39.2741 9.56217 38.8184 9.15527 38.3301C8.74837 37.8418 8.35775 37.3861 7.9834 36.9629C7.62533 36.5397 7.2347 36.1816 6.81152 35.8887C6.40462 35.612 5.89193 35.4736 5.27344 35.4736C5.06185 35.4736 4.81771 35.498 4.54102 35.5469C4.2806 35.5957 3.97135 35.6934 3.61328 35.8398C3.27148 36.0026 2.88086 36.2386 2.44141 36.5479C2.00195 36.8571 1.51367 37.2803 0.976562 37.8174C1.00911 37.2152 1.1556 36.5804 1.41602 35.9131C1.69271 35.262 2.05078 34.668 2.49023 34.1309C2.94596 33.5938 3.4668 33.1462 4.05273 32.7881C4.63867 32.4463 5.27344 32.2754 5.95703 32.2754C6.90104 32.2754 7.71484 32.43 8.39844 32.7393C9.09831 33.0485 9.7168 33.431 10.2539 33.8867C10.8073 34.3587 11.3037 34.8633 11.7432 35.4004C12.1826 35.9538 12.6058 36.4583 13.0127 36.9141C13.4196 37.3861 13.8346 37.7767 14.2578 38.0859C14.6973 38.3952 15.1937 38.5498 15.7471 38.5498C15.9749 38.5498 16.2354 38.5091 16.5283 38.4277C16.8213 38.3626 17.0898 38.2243 17.334 38.0127C17.5944 37.8174 17.8141 37.5407 17.9932 37.1826C18.1722 36.8245 18.2617 36.3607 18.2617 35.791V5.7373C18.2617 5.44434 18.2048 5.17578 18.0908 4.93164C17.9769 4.6875 17.8467 4.47591 17.7002 4.29688L15.1855 6.44531C15.0879 6.52669 14.9495 6.63249 14.7705 6.7627C14.5915 6.8929 14.388 7.01497 14.1602 7.12891C13.9323 7.24284 13.6882 7.34049 13.4277 7.42188C13.1673 7.50326 12.8906 7.54395 12.5977 7.54395C12.3047 7.54395 12.0199 7.49512 11.7432 7.39746C11.4665 7.28353 11.2061 7.16146 10.9619 7.03125C10.7178 6.88477 10.5062 6.74642 10.3271 6.61621C10.1481 6.46973 10.0179 6.36393 9.93652 6.29883L7.42188 4.1748L5.05371 6.34766C4.95605 6.44531 4.90723 6.55924 4.90723 6.68945C4.90723 6.88477 5.00488 7.09635 5.2002 7.32422C5.41178 7.53581 5.66406 7.76367 5.95703 8.00781C6.26628 8.25195 6.59994 8.50423 6.95801 8.76465C7.31608 9.02507 7.6416 9.30176 7.93457 9.59473C8.24382 9.87142 8.49609 10.1562 8.69141 10.4492C8.903 10.7422 9.00879 11.0433 9.00879 11.3525V20.2637C9.31803 20.0358 9.65983 19.8568 10.0342 19.7266C10.4085 19.5964 10.8317 19.5312 11.3037 19.5312C11.8083 19.5312 12.2803 19.6126 12.7197 19.7754C13.1755 19.9219 13.5661 20.1416 13.8916 20.4346C14.2334 20.7275 14.4938 21.0938 14.6729 21.5332C14.8682 21.9564 14.9658 22.4447 14.9658 22.998C14.9658 23.8281 14.738 24.6989 14.2822 25.6104C13.8265 26.5218 13.1185 27.3682 12.1582 28.1494C11.2142 28.9144 10.0016 29.5492 8.52051 30.0537C7.03939 30.5583 5.2653 30.8105 3.19824 30.8105V12.1094C3.19824 11.6862 3.11686 11.3444 2.9541 11.084C2.80762 10.8073 2.6123 10.5794 2.36816 10.4004C2.12402 10.2051 1.86361 10.0423 1.58691 9.91211C1.3265 9.76562 1.07422 9.60286 0.830078 9.42383C0.585938 9.24479 0.382487 9.0332 0.219727 8.78906C0.0732422 8.54492 0 8.22754 0 7.83691C0 7.56022 0.0569661 7.28353 0.170898 7.00684C0.284831 6.73014 0.439453 6.46159 0.634766 6.20117C0.830078 5.92448 1.0498 5.66406 1.29395 5.41992C1.53809 5.15951 1.79036 4.91536 2.05078 4.6875C2.39258 4.37826 2.80762 4.00391 3.2959 3.56445C3.78418 3.125 4.24805 2.70996 4.6875 2.31934C5.20833 1.86361 5.74544 1.3916 6.29883 0.90332C6.57552 0.642904 6.88477 0.431315 7.22656 0.268555C7.56836 0.0895182 8.02409 0 8.59375 0C9.13086 0 9.5459 0.0732422 9.83887 0.219727C10.1481 0.366211 10.4248 0.553385 10.6689 0.78125L13.623 3.36914L16.9189 0.78125C17.1794 0.553385 17.5374 0.366211 17.9932 0.219727C18.4489 0.0732422 18.8721 0 19.2627 0C19.751 0 20.1497 0.0488281 20.459 0.146484C20.7682 0.227865 21.0286 0.358073 21.2402 0.537109C21.5332 0.78125 21.8424 1.09049 22.168 1.46484C22.4935 1.83919 22.7946 2.26237 23.0713 2.73438C23.3643 3.1901 23.6003 3.68652 23.7793 4.22363C23.9583 4.76074 24.0479 5.32227 24.0479 5.9082ZM10.0586 21.7529C9.847 21.7529 9.64355 21.8262 9.44824 21.9727C9.25293 22.1029 9.10645 22.2819 9.00879 22.5098V26.9043C9.12272 26.8555 9.30176 26.7497 9.5459 26.5869C9.80632 26.4079 10.0586 26.1719 10.3027 25.8789C10.5632 25.5859 10.7829 25.236 10.9619 24.8291C11.1572 24.4059 11.2549 23.9258 11.2549 23.3887C11.2549 23.0469 11.2142 22.7702 11.1328 22.5586C11.0677 22.3307 10.9782 22.1598 10.8643 22.0459C10.7503 21.932 10.6201 21.8587 10.4736 21.8262C10.3434 21.7773 10.2051 21.7529 10.0586 21.7529Z" fill="#0F1729"/>
</svg>
