<svg width="42" height="31" viewBox="0 0 42 31" fill="none" xmlns="http://www.w3.org/2000/svg">
<path d="M11.4746 23.9258C11.4746 24.7884 11.6211 25.5046 11.9141 26.0742C12.207 26.6439 12.5732 27.1077 13.0127 27.4658C13.4684 27.8239 13.973 28.0762 14.5264 28.2227C15.0798 28.3691 15.6169 28.4424 16.1377 28.4424C16.626 28.4424 17.1224 28.3773 17.627 28.2471C18.1478 28.1169 18.6198 27.889 19.043 27.5635C19.4824 27.2217 19.8405 26.7578 20.1172 26.1719C20.3939 25.5859 20.5322 24.8372 20.5322 23.9258V6.4209C20.5322 5.47689 20.7275 4.66309 21.1182 3.97949C21.5088 3.27962 22.0215 2.69368 22.6562 2.22168C23.291 1.74967 23.999 1.37533 24.7803 1.09863C25.5778 0.805664 26.3672 0.577799 27.1484 0.415039C27.946 0.252279 28.7028 0.146484 29.4189 0.0976562C30.1351 0.0488281 30.7373 0.0244141 31.2256 0.0244141C31.7301 0.0244141 32.3405 0.0488281 33.0566 0.0976562C33.7728 0.146484 34.5133 0.252279 35.2783 0.415039C36.0596 0.577799 36.8245 0.805664 37.5732 1.09863C38.3382 1.37533 39.0218 1.74967 39.624 2.22168C40.2262 2.69368 40.7145 3.27962 41.0889 3.97949C41.4632 4.66309 41.6504 5.47689 41.6504 6.4209V30.7617H35.6201V5.85938C35.6201 5.19206 35.4818 4.63053 35.2051 4.1748C34.9447 3.71908 34.6029 3.361 34.1797 3.10059C33.7728 2.82389 33.3008 2.62858 32.7637 2.51465C32.2428 2.40072 31.7301 2.34375 31.2256 2.34375C30.7373 2.34375 30.2165 2.39258 29.6631 2.49023C29.126 2.57161 28.6214 2.73438 28.1494 2.97852C27.6937 3.22266 27.3112 3.55632 27.002 3.97949C26.709 4.40267 26.5625 4.94792 26.5625 5.61523V22.583C26.5625 23.9502 26.3509 25.1058 25.9277 26.0498C25.5046 26.9775 24.9674 27.7425 24.3164 28.3447C23.6654 28.9469 22.9329 29.4108 22.1191 29.7363C21.3053 30.0618 20.516 30.306 19.751 30.4688C18.986 30.6152 18.278 30.7048 17.627 30.7373C16.9759 30.7536 16.4795 30.7617 16.1377 30.7617C15.7959 30.7617 15.2913 30.7373 14.624 30.6885C13.973 30.6396 13.2487 30.5339 12.4512 30.3711C11.6536 30.1921 10.8398 29.9235 10.0098 29.5654C9.19596 29.2074 8.44727 28.7191 7.76367 28.1006C7.08008 27.4821 6.51855 26.709 6.0791 25.7812C5.65592 24.8535 5.44434 23.7305 5.44434 22.4121V13.7451C5.44434 13.3545 5.38737 13.029 5.27344 12.7686C5.17578 12.5081 5.03744 12.2965 4.8584 12.1338C4.67936 11.971 4.46777 11.849 4.22363 11.7676C3.99577 11.6862 3.75977 11.6211 3.51562 11.5723C3.07617 11.4909 2.64486 11.4014 2.22168 11.3037C1.81478 11.1898 1.44043 11.0514 1.09863 10.8887C0.773112 10.7259 0.504557 10.5306 0.292969 10.3027C0.0976562 10.0586 0 9.74935 0 9.375C0 9.16341 0.0732422 8.91113 0.219727 8.61816C0.382487 8.3252 0.577799 8.03223 0.805664 7.73926C1.03353 7.43001 1.27767 7.12891 1.53809 6.83594C1.7985 6.54297 2.03451 6.28255 2.24609 6.05469L6.95801 1.00098C7.38119 0.545247 7.73926 0.268555 8.03223 0.170898C8.3252 0.0569661 8.61816 0 8.91113 0C9.2041 0 9.46452 0.0732422 9.69238 0.219727C9.93652 0.349935 10.1481 0.520833 10.3271 0.732422C10.5225 0.94401 10.6934 1.18001 10.8398 1.44043C11.0026 1.70085 11.1491 1.95312 11.2793 2.19727C11.4095 2.44141 11.5316 2.63672 11.6455 2.7832C11.7757 2.91341 11.8896 3.01107 11.9873 3.07617C12.1012 3.14128 12.1989 3.18197 12.2803 3.19824C12.3779 3.21452 12.4593 3.22266 12.5244 3.22266C12.5895 3.22266 12.6709 3.21452 12.7686 3.19824C12.8662 3.18197 12.9639 3.13314 13.0615 3.05176C13.1755 2.9541 13.2812 2.80762 13.3789 2.6123C13.4766 2.41699 13.5579 2.13216 13.623 1.75781C14.0788 2.13216 14.4287 2.53092 14.6729 2.9541C14.9333 3.37728 15.0635 3.92253 15.0635 4.58984C15.0635 4.91536 14.9902 5.24902 14.8438 5.59082C14.6973 5.93262 14.4775 6.24186 14.1846 6.51855C13.8916 6.79525 13.5173 7.03125 13.0615 7.22656C12.6058 7.4056 12.0768 7.49512 11.4746 7.49512C11.1979 7.49512 10.9049 7.4707 10.5957 7.42188C10.3027 7.37305 9.98535 7.26725 9.64355 7.10449C9.31803 6.94173 8.98438 6.70573 8.64258 6.39648C8.31706 6.08724 7.99967 5.6722 7.69043 5.15137L5.68848 7.44629C5.63965 7.51139 5.58268 7.58464 5.51758 7.66602C5.46875 7.7474 5.44434 7.86133 5.44434 8.00781C5.44434 8.23568 5.57454 8.39844 5.83496 8.49609C6.09538 8.59375 6.38835 8.67513 6.71387 8.74023C7.20215 8.83789 7.72298 8.97624 8.27637 9.15527C8.82975 9.31803 9.34245 9.56217 9.81445 9.8877C10.3027 10.2132 10.7015 10.6364 11.0107 11.1572C11.32 11.6781 11.4746 12.3372 11.4746 13.1348V23.9258Z" fill="#0F1729"/>
</svg>
