<svg width="44" height="19" viewBox="0 0 44 19" fill="none" xmlns="http://www.w3.org/2000/svg">
<path d="M3.06836 7.33984C2.83398 7.19336 2.5752 7.01758 2.29199 6.8125C2.00879 6.59766 1.74512 6.36328 1.50098 6.10938C1.25684 5.8457 1.05176 5.5625 0.885742 5.25977C0.719727 4.95703 0.636719 4.63965 0.636719 4.30762C0.636719 4.1416 0.700195 3.97559 0.827148 3.80957C0.963867 3.63379 1.10547 3.48242 1.25195 3.35547L4.41602 1.01172C4.54297 0.914062 4.70898 0.816406 4.91406 0.71875C5.12891 0.611328 5.36328 0.557617 5.61719 0.557617C5.73438 0.557617 5.86133 0.577148 5.99805 0.616211C6.13477 0.655273 6.34961 0.748047 6.64258 0.894531C6.93555 1.03125 7.33594 1.23633 7.84375 1.50977C8.35156 1.7832 9.03027 2.15918 9.87988 2.6377C11.1201 1.93457 12.1406 1.41211 12.9414 1.07031C13.752 0.728516 14.3135 0.557617 14.626 0.557617C14.9971 0.557617 15.4609 0.650391 16.0176 0.835938C16.5742 1.01172 17.165 1.25098 17.79 1.55371C18.415 1.84668 19.04 2.18359 19.665 2.56445C20.29 2.94531 20.8516 3.34082 21.3496 3.75098C21.8574 4.15137 22.2676 4.54688 22.5801 4.9375C22.8926 5.32812 23.0488 5.68457 23.0488 6.00684V19H19.5625V6.90039C19.5625 6.58789 19.4502 6.26562 19.2256 5.93359C19.0107 5.60156 18.7275 5.28418 18.376 4.98145C18.0244 4.66895 17.6338 4.37598 17.2041 4.10254C16.7842 3.8291 16.3643 3.58984 15.9443 3.38477C15.5342 3.17969 15.1533 3.01855 14.8018 2.90137C14.46 2.78418 14.1914 2.72559 13.9961 2.72559C13.9473 2.72559 13.8008 2.78418 13.5566 2.90137C13.3223 3.00879 13.0342 3.15039 12.6924 3.32617C12.3604 3.50195 12.0039 3.70215 11.623 3.92676C11.2422 4.15137 10.8809 4.38086 10.5391 4.61523C10.334 4.75195 10.1582 4.86426 10.0117 4.95215C9.875 5.04004 9.68457 5.08398 9.44043 5.08398C9.15723 5.08398 8.91797 5.04492 8.72266 4.9668C8.52734 4.87891 8.30273 4.76172 8.04883 4.61523L4.94336 2.88672C4.63086 3.0918 4.30859 3.32129 3.97656 3.5752C3.64453 3.8291 3.36133 4.03906 3.12695 4.20508C3.27344 4.49805 3.45898 4.7666 3.68359 5.01074C3.91797 5.24512 4.16699 5.45508 4.43066 5.64062C4.69434 5.82617 4.96777 5.97754 5.25098 6.09473C5.53418 6.21191 5.80762 6.29004 6.07129 6.3291C6.39355 6.28027 6.69629 6.25098 6.97949 6.24121C7.2627 6.23145 7.52148 6.22656 7.75586 6.22656C8.04883 6.22656 8.40527 6.24121 8.8252 6.27051C9.24512 6.2998 9.68457 6.36328 10.1436 6.46094C10.6123 6.54883 11.0762 6.68066 11.5352 6.85645C11.9941 7.02246 12.4043 7.24707 12.7656 7.53027C13.1367 7.80371 13.4346 8.14551 13.6592 8.55566C13.8936 8.96582 14.0107 9.45898 14.0107 10.0352V19H10.5391V9.58105C10.5391 9.1709 10.4463 8.83887 10.2607 8.58496C10.085 8.33105 9.85547 8.13086 9.57227 7.98438C9.29883 7.83789 9.00098 7.74023 8.67871 7.69141C8.35645 7.63281 8.04883 7.60352 7.75586 7.60352C7.44336 7.60352 7.12109 7.63281 6.78906 7.69141C6.4668 7.74023 6.16895 7.83789 5.89551 7.98438C5.63184 8.13086 5.41211 8.33105 5.23633 8.58496C5.06055 8.83887 4.97266 9.1709 4.97266 9.58105V12.6719C5.16797 12.5352 5.37793 12.4277 5.60254 12.3496C5.82715 12.2715 6.08105 12.2324 6.36426 12.2324C6.66699 12.2324 6.9502 12.2812 7.21387 12.3789C7.4873 12.4668 7.72168 12.5986 7.91699 12.7744C8.12207 12.9502 8.27832 13.1699 8.38574 13.4336C8.50293 13.6875 8.56152 13.9805 8.56152 14.3125C8.56152 14.8105 8.4248 15.333 8.15137 15.8799C7.87793 16.4268 7.45312 16.9346 6.87695 17.4033C6.31055 17.8623 5.58301 18.2432 4.69434 18.5459C3.80566 18.8486 2.74121 19 1.50098 19V10.0352C1.50098 9.44922 1.64258 8.93652 1.92578 8.49707C2.21875 8.05762 2.59961 7.67188 3.06836 7.33984ZM5.61719 13.5654C5.49023 13.5654 5.36816 13.6094 5.25098 13.6973C5.13379 13.7754 5.04102 13.8828 4.97266 14.0195V16.6562C5.04102 16.627 5.14844 16.5635 5.29492 16.4658C5.45117 16.3584 5.60742 16.2168 5.76367 16.041C5.91992 15.8652 6.05176 15.6553 6.15918 15.4111C6.27637 15.1572 6.33496 14.8691 6.33496 14.5469C6.33496 14.3418 6.31055 14.1758 6.26172 14.0488C6.22266 13.9121 6.16895 13.8096 6.10059 13.7412C6.03223 13.6729 5.9541 13.6289 5.86621 13.6094C5.77832 13.5801 5.69531 13.5654 5.61719 13.5654ZM28.7617 8.79004C28.7617 8.55566 28.7275 8.36035 28.6592 8.2041C28.6006 8.04785 28.5176 7.9209 28.4102 7.82324C28.3027 7.72559 28.1758 7.65234 28.0293 7.60352C27.8926 7.55469 27.751 7.51562 27.6045 7.48633C27.3408 7.4375 27.082 7.38379 26.8281 7.3252C26.584 7.25684 26.3594 7.17383 26.1543 7.07617C25.959 6.97852 25.7979 6.86133 25.6709 6.72461C25.5537 6.57812 25.4951 6.39258 25.4951 6.16797C25.4951 6.04102 25.5391 5.88965 25.627 5.71387C25.7246 5.53809 25.8418 5.3623 25.9785 5.18652C26.1152 5.00098 26.2617 4.82031 26.418 4.64453C26.5742 4.46875 26.7158 4.3125 26.8428 4.17578L29.6699 1.14355C29.9238 0.870117 30.1387 0.704102 30.3145 0.645508C30.4902 0.577148 30.666 0.542969 30.8418 0.542969C31.0176 0.542969 31.1738 0.586914 31.3105 0.674805C31.457 0.75293 31.584 0.855469 31.6914 0.982422C31.8086 1.10938 31.9111 1.25098 31.999 1.40723C32.0967 1.56348 32.1846 1.71484 32.2627 1.86133C32.3408 2.00781 32.4141 2.125 32.4824 2.21289C32.5605 2.29102 32.6289 2.34961 32.6875 2.38867C32.7559 2.42773 32.8145 2.45215 32.8633 2.46191C32.9219 2.47168 32.9707 2.47656 33.0098 2.47656C33.0488 2.47656 33.0977 2.47168 33.1562 2.46191C33.2148 2.45215 33.2734 2.42285 33.332 2.37402C33.4004 2.31543 33.4639 2.22754 33.5225 2.11035C33.5811 1.99316 33.6299 1.82227 33.6689 1.59766C33.9424 1.82227 34.1523 2.06152 34.2988 2.31543C34.4551 2.56934 34.5332 2.89648 34.5332 3.29688C34.5332 3.49219 34.4893 3.69238 34.4014 3.89746C34.3135 4.10254 34.1816 4.28809 34.0059 4.4541C33.8301 4.62012 33.6055 4.76172 33.332 4.87891C33.0586 4.98633 32.7412 5.04004 32.3799 5.04004C32.2139 5.04004 32.0381 5.02539 31.8525 4.99609C31.6768 4.9668 31.4863 4.90332 31.2812 4.80566C31.0859 4.70801 30.8857 4.56641 30.6807 4.38086C30.4854 4.19531 30.2949 3.94629 30.1094 3.63379L28.9082 5.01074C28.8789 5.0498 28.8447 5.09375 28.8057 5.14258C28.7764 5.19141 28.7617 5.25977 28.7617 5.34766C28.7617 5.48438 28.8398 5.58203 28.9961 5.64062C29.1523 5.69922 29.3281 5.74805 29.5234 5.78711C29.8164 5.8457 30.1289 5.92871 30.4609 6.03613C30.793 6.13379 31.1006 6.28027 31.3838 6.47559C31.6768 6.6709 31.916 6.9248 32.1016 7.2373C32.2871 7.5498 32.3799 7.94531 32.3799 8.42383V14.8984C32.3799 15.416 32.4678 15.8457 32.6436 16.1875C32.8193 16.5293 33.0391 16.8076 33.3027 17.0225C33.5762 17.2373 33.8789 17.3887 34.2109 17.4766C34.543 17.5645 34.8652 17.6084 35.1777 17.6084C35.4707 17.6084 35.7686 17.5693 36.0713 17.4912C36.3838 17.4131 36.667 17.2764 36.9209 17.0811C37.1846 16.876 37.3994 16.5977 37.5654 16.2461C37.7314 15.8945 37.8145 15.4453 37.8145 14.8984V8.79004C37.8145 8.55566 37.7803 8.36035 37.7119 8.2041C37.6533 8.04785 37.5703 7.9209 37.4629 7.82324C37.3555 7.72559 37.2285 7.65234 37.082 7.60352C36.9453 7.55469 36.8037 7.51562 36.6572 7.48633C36.3936 7.4375 36.1348 7.38379 35.8809 7.3252C35.6367 7.25684 35.4121 7.17383 35.207 7.07617C35.0117 6.97852 34.8506 6.86133 34.7236 6.72461C34.6064 6.57812 34.5479 6.39258 34.5479 6.16797C34.5479 6.04102 34.5918 5.88965 34.6797 5.71387C34.7773 5.53809 34.8945 5.3623 35.0312 5.18652C35.168 5.00098 35.3145 4.82031 35.4707 4.64453C35.627 4.46875 35.7686 4.3125 35.8955 4.17578L38.7227 1.14355C38.9766 0.870117 39.1914 0.704102 39.3672 0.645508C39.543 0.577148 39.7188 0.542969 39.8945 0.542969C40.0703 0.542969 40.2266 0.586914 40.3633 0.674805C40.5098 0.75293 40.6367 0.855469 40.7441 0.982422C40.8613 1.10938 40.9639 1.25098 41.0518 1.40723C41.1494 1.56348 41.2373 1.71484 41.3154 1.86133C41.3936 2.00781 41.4668 2.125 41.5352 2.21289C41.6133 2.29102 41.6816 2.34961 41.7402 2.38867C41.8086 2.42773 41.8672 2.45215 41.916 2.46191C41.9746 2.47168 42.0234 2.47656 42.0625 2.47656C42.1016 2.47656 42.1504 2.47168 42.209 2.46191C42.2676 2.45215 42.3262 2.42285 42.3848 2.37402C42.4531 2.31543 42.5166 2.22754 42.5752 2.11035C42.6338 1.99316 42.6826 1.82227 42.7217 1.59766C42.9951 1.82227 43.2051 2.06152 43.3516 2.31543C43.5078 2.56934 43.5859 2.89648 43.5859 3.29688C43.5859 3.49219 43.542 3.69238 43.4541 3.89746C43.3662 4.10254 43.2344 4.28809 43.0586 4.4541C42.8828 4.62012 42.6582 4.76172 42.3848 4.87891C42.1113 4.98633 41.7939 5.04004 41.4326 5.04004C41.2666 5.04004 41.0908 5.02539 40.9053 4.99609C40.7295 4.9668 40.5391 4.90332 40.334 4.80566C40.1387 4.70801 39.9385 4.56641 39.7334 4.38086C39.5381 4.19531 39.3477 3.94629 39.1621 3.63379L37.9609 5.01074C37.9316 5.0498 37.8975 5.09375 37.8584 5.14258C37.8291 5.19141 37.8145 5.25977 37.8145 5.34766C37.8145 5.48438 37.8926 5.58203 38.0488 5.64062C38.2051 5.69922 38.3809 5.74805 38.5762 5.78711C38.8691 5.8457 39.1816 5.92871 39.5137 6.03613C39.8457 6.13379 40.1533 6.28027 40.4365 6.47559C40.7295 6.6709 40.9688 6.9248 41.1543 7.2373C41.3398 7.5498 41.4326 7.94531 41.4326 8.42383V14.0928C41.4326 14.9131 41.3057 15.6064 41.0518 16.1729C40.7979 16.7295 40.4756 17.1885 40.085 17.5498C39.6943 17.9111 39.2549 18.1895 38.7666 18.3848C38.2783 18.5801 37.8047 18.7266 37.3457 18.8242C36.8867 18.9121 36.4619 18.9658 36.0713 18.9854C35.6807 18.9951 35.3828 19 35.1777 19C34.9727 19 34.6699 18.9951 34.2695 18.9854C33.8789 18.9658 33.4443 18.9121 32.9658 18.8242C32.4873 18.7266 31.999 18.5801 31.501 18.3848C31.0127 18.1895 30.5635 17.9111 30.1533 17.5498C29.7432 17.1885 29.4062 16.7295 29.1426 16.1729C28.8887 15.6064 28.7617 14.918 28.7617 14.1074V8.79004Z" fill="#0F1729"/>
</svg>
