<svg width="36" height="31" viewBox="0 0 36 31" fill="none" xmlns="http://www.w3.org/2000/svg">
<path d="M0 6.98242C0 5.95703 0.187174 5.06999 0.561523 4.32129C0.952148 3.57259 1.44857 2.94596 2.05078 2.44141C2.66927 1.92057 3.361 1.50553 4.12598 1.19629C4.90723 0.870768 5.68034 0.61849 6.44531 0.439453C7.22656 0.260417 7.96712 0.146484 8.66699 0.0976562C9.36686 0.0325521 9.96094 0 10.4492 0C10.9212 0 11.4421 0.0244141 12.0117 0.0732422C12.5814 0.12207 13.1836 0.236003 13.8184 0.415039C14.4531 0.577799 15.1204 0.830078 15.8203 1.17188C16.5365 1.4974 17.2607 1.94499 17.9932 2.51465C18.6279 1.94499 19.2871 1.4974 19.9707 1.17188C20.6706 0.830078 21.3542 0.577799 22.0215 0.415039C22.6888 0.236003 23.3236 0.12207 23.9258 0.0732422C24.528 0.0244141 25.057 0 25.5127 0C26.001 0 26.5951 0.0325521 27.2949 0.0976562C27.9948 0.16276 28.7272 0.284831 29.4922 0.463867C30.2734 0.642904 31.0465 0.895182 31.8115 1.2207C32.5765 1.54622 33.2601 1.9694 33.8623 2.49023C34.4808 3.01107 34.9772 3.6377 35.3516 4.37012C35.7422 5.10254 35.9375 5.97331 35.9375 6.98242V30.7373H30.1514V5.59082C30.1514 4.9235 29.9723 4.39453 29.6143 4.00391C29.2562 3.59701 28.8249 3.2959 28.3203 3.10059C27.832 2.889 27.3193 2.75879 26.7822 2.70996C26.2614 2.64486 25.8382 2.6123 25.5127 2.6123C25.1872 2.6123 24.764 2.64486 24.2432 2.70996C23.7223 2.77507 23.2096 2.91341 22.7051 3.125C22.2168 3.33659 21.7936 3.64583 21.4355 4.05273C21.0775 4.44336 20.8984 4.98047 20.8984 5.66406V30.7373H15.0879V5.66406C15.0879 4.98047 14.9007 4.44336 14.5264 4.05273C14.152 3.64583 13.7126 3.33659 13.208 3.125C12.7035 2.91341 12.1908 2.77507 11.6699 2.70996C11.1491 2.64486 10.7422 2.6123 10.4492 2.6123C10.0911 2.6123 9.64355 2.64486 9.10645 2.70996C8.58561 2.75879 8.08105 2.889 7.59277 3.10059C7.10449 3.2959 6.68131 3.59701 6.32324 4.00391C5.98145 4.39453 5.81055 4.9235 5.81055 5.59082V22.2168C6.11979 21.9889 6.46159 21.8099 6.83594 21.6797C7.21029 21.5495 7.63346 21.4844 8.10547 21.4844C9.13086 21.4844 9.89583 21.7773 10.4004 22.3633C10.9212 22.9329 11.1816 23.6735 11.1816 24.585C11.1816 25.5615 10.9212 26.4323 10.4004 27.1973C9.89583 27.9622 9.15527 28.6051 8.17871 29.126C7.21842 29.6468 6.04655 30.0456 4.66309 30.3223C3.27962 30.599 1.72526 30.7373 0 30.7373V6.98242ZM6.86035 23.7061C6.64876 23.7061 6.44531 23.7793 6.25 23.9258C6.05469 24.056 5.9082 24.235 5.81055 24.4629V28.125C5.9082 28.0924 6.0791 28.0192 6.32324 27.9053C6.56738 27.7913 6.81966 27.6286 7.08008 27.417C7.34049 27.1891 7.56836 26.9043 7.76367 26.5625C7.95898 26.2207 8.05664 25.8138 8.05664 25.3418C8.05664 25 8.01595 24.7233 7.93457 24.5117C7.86947 24.2839 7.77995 24.113 7.66602 23.999C7.55208 23.8851 7.42188 23.8118 7.27539 23.7793C7.14518 23.7305 7.00684 23.7061 6.86035 23.7061Z" fill="#0F1729"/>
</svg>
