<svg width="16" height="31" viewBox="0 0 16 31" fill="none" xmlns="http://www.w3.org/2000/svg">
<path d="M11.792 30.7617C9.72493 30.7617 7.94271 30.5094 6.44531 30.0049C4.96419 29.5003 3.74349 28.8656 2.7832 28.1006C1.83919 27.3193 1.13932 26.473 0.683594 25.5615C0.227865 24.6501 0 23.7793 0 22.9492C0 22.3958 0.0895182 21.9076 0.268555 21.4844C0.463867 21.0449 0.724284 20.6787 1.0498 20.3857C1.3916 20.0928 1.78223 19.873 2.22168 19.7266C2.66113 19.5638 3.14128 19.4824 3.66211 19.4824C4.13411 19.4824 4.55729 19.5475 4.93164 19.6777C5.32227 19.8079 5.6722 19.987 5.98145 20.2148V13.208C5.98145 12.8988 5.92448 12.6546 5.81055 12.4756C5.71289 12.2803 5.57454 12.1257 5.39551 12.0117C5.21647 11.8978 5.01302 11.8083 4.78516 11.7432C4.55729 11.6781 4.32129 11.6211 4.07715 11.5723C3.6377 11.4909 3.20638 11.4014 2.7832 11.3037C2.36003 11.1898 1.97754 11.0514 1.63574 10.8887C1.31022 10.7259 1.04167 10.5306 0.830078 10.3027C0.634766 10.0586 0.537109 9.74935 0.537109 9.375C0.537109 9.16341 0.610352 8.91113 0.756836 8.61816C0.919596 8.3252 1.11491 8.03223 1.34277 7.73926C1.58691 7.43001 1.83919 7.12891 2.09961 6.83594C2.36003 6.54297 2.58789 6.28255 2.7832 6.05469L7.03125 1.48926C7.45443 1.03353 7.86133 0.675456 8.25195 0.415039C8.64258 0.138346 9.02507 0 9.39941 0C9.82259 0 10.1888 0.203451 10.498 0.610352C10.8236 1.01725 11.1247 1.47298 11.4014 1.97754C11.6781 2.46582 11.9466 2.91341 12.207 3.32031C12.4837 3.72721 12.7848 3.93066 13.1104 3.93066C13.4033 3.93066 13.6312 3.77604 13.7939 3.4668C13.973 3.14128 14.0625 2.67741 14.0625 2.0752C14.0625 1.99382 14.0625 1.89616 14.0625 1.78223C14.0625 1.66829 14.0544 1.5625 14.0381 1.46484C14.5264 1.75781 14.9658 2.18099 15.3564 2.73438C15.7471 3.27148 15.9424 3.90625 15.9424 4.63867C15.9424 5.01302 15.8691 5.38737 15.7227 5.76172C15.5762 6.11979 15.3564 6.45345 15.0635 6.7627C14.7705 7.07194 14.3962 7.32422 13.9404 7.51953C13.4847 7.69857 12.9395 7.78809 12.3047 7.78809C11.556 7.78809 10.8643 7.58464 10.2295 7.17773C9.611 6.75456 8.95996 6.0791 8.27637 5.15137L6.22559 7.44629C6.16048 7.52767 6.11165 7.60091 6.0791 7.66602C6.04655 7.73112 6.03027 7.82878 6.03027 7.95898C6.03027 8.20312 6.16048 8.37402 6.4209 8.47168C6.68131 8.56934 6.96615 8.65885 7.27539 8.74023C7.76367 8.85417 8.26823 8.98438 8.78906 9.13086C9.32617 9.26107 9.81445 9.46452 10.2539 9.74121C10.6934 10.0016 11.0596 10.3597 11.3525 10.8154C11.6455 11.2549 11.792 11.8327 11.792 12.5488V30.7617ZM4.93164 21.6797C4.78516 21.6797 4.63867 21.7041 4.49219 21.7529C4.36198 21.7855 4.23991 21.8587 4.12598 21.9727C4.01204 22.0866 3.91439 22.2575 3.83301 22.4854C3.7679 22.6969 3.73535 22.9736 3.73535 23.3154C3.73535 23.8525 3.82487 24.3327 4.00391 24.7559C4.19922 25.1628 4.41895 25.5127 4.66309 25.8057C4.9235 26.0986 5.17578 26.3346 5.41992 26.5137C5.68034 26.6764 5.86751 26.7822 5.98145 26.8311V22.4365C5.88379 22.2087 5.7373 22.0296 5.54199 21.8994C5.34668 21.7529 5.14323 21.6797 4.93164 21.6797Z" fill="#0F1729"/>
</svg>
