<svg width="24" height="31" viewBox="0 0 24 31" fill="none" xmlns="http://www.w3.org/2000/svg">
<path d="M7.27539 20.2148C7.58464 19.987 7.92643 19.8079 8.30078 19.6777C8.67513 19.5475 9.09831 19.4824 9.57031 19.4824C10.0749 19.4824 10.5469 19.5638 10.9863 19.7266C11.4421 19.873 11.8327 20.0928 12.1582 20.3857C12.5 20.6787 12.7604 21.0449 12.9395 21.4844C13.1348 21.9076 13.2324 22.3958 13.2324 22.9492C13.2324 23.7793 13.0046 24.6501 12.5488 25.5615C12.0931 26.473 11.3851 27.3193 10.4248 28.1006C9.48079 28.8656 8.26823 29.5003 6.78711 30.0049C5.30599 30.5094 3.5319 30.7617 1.46484 30.7617V15.8203C1.46484 14.8438 1.70085 13.9893 2.17285 13.2568C2.66113 12.5244 3.2959 11.8815 4.07715 11.3281C3.361 10.8887 2.74251 10.4492 2.22168 10.0098C1.70085 9.57031 1.30208 9.15527 1.02539 8.76465C0.732422 8.3252 0.488281 7.8776 0.292969 7.42188C0.0976562 6.94987 0 6.56738 0 6.27441C0 5.99772 0.105794 5.72103 0.317383 5.44434C0.528971 5.16764 0.748698 4.91536 0.976562 4.6875L4.95605 0.732422C5.10254 0.585938 5.3304 0.431315 5.63965 0.268555C5.94889 0.0895182 6.40462 0 7.00684 0C7.44629 0 7.82064 0.0813802 8.12988 0.244141C8.4554 0.390625 8.7321 0.553385 8.95996 0.732422C9.30176 0.976562 9.60286 1.20443 9.86328 1.41602C10.14 1.61133 10.4004 1.80664 10.6445 2.00195C10.9049 2.19727 11.1654 2.40072 11.4258 2.6123C11.7025 2.80762 12.0036 3.02734 12.3291 3.27148L14.8438 0.732422C15.0879 0.504557 15.3809 0.325521 15.7227 0.195312C16.0807 0.0651042 16.4958 0 16.9678 0C17.1305 0 17.3096 0.0244141 17.5049 0.0732422C17.7002 0.105794 17.9525 0.219727 18.2617 0.415039C18.5872 0.594076 18.9941 0.887044 19.4824 1.29395C19.9707 1.68457 20.5973 2.22982 21.3623 2.92969C21.4437 2.91341 21.5332 2.79948 21.6309 2.58789C21.7448 2.36003 21.9076 2.11589 22.1191 1.85547C22.2982 2.03451 22.4854 2.25423 22.6807 2.51465C22.876 2.77507 23.055 3.05176 23.2178 3.34473C23.3805 3.6377 23.5107 3.9388 23.6084 4.24805C23.7223 4.55729 23.7793 4.85026 23.7793 5.12695C23.7793 5.35482 23.7142 5.6071 23.584 5.88379C23.4701 6.16048 23.291 6.4209 23.0469 6.66504C22.819 6.8929 22.526 7.08822 22.168 7.25098C21.8099 7.41374 21.3867 7.49512 20.8984 7.49512C20.4753 7.49512 20.0439 7.4056 19.6045 7.22656C19.165 7.03125 18.7256 6.78711 18.2861 6.49414C17.8467 6.1849 17.4154 5.85124 16.9922 5.49316C16.569 5.11881 16.1784 4.7526 15.8203 4.39453C15.446 4.78516 15.0716 5.18392 14.6973 5.59082C14.3229 5.98145 13.9567 6.38021 13.5986 6.78711C13.4521 6.93359 13.2243 7.10449 12.915 7.2998C12.6221 7.49512 12.1745 7.59277 11.5723 7.59277C11.0026 7.59277 10.5469 7.51139 10.2051 7.34863C9.87956 7.1696 9.63542 7.01497 9.47266 6.88477L5.83496 4.07715L4.27246 5.61523C4.5166 6.08724 4.82585 6.55111 5.2002 7.00684C5.57454 7.46256 5.97331 7.8776 6.39648 8.25195C6.83594 8.61003 7.28353 8.91927 7.73926 9.17969C8.21126 9.42383 8.65885 9.57845 9.08203 9.64355C9.61914 9.56217 10.1237 9.51335 10.5957 9.49707C11.0677 9.48079 11.499 9.47266 11.8896 9.47266C12.3779 9.47266 12.972 9.49707 13.6719 9.5459C14.3717 9.59473 15.1042 9.70052 15.8691 9.86328C16.6504 10.0098 17.4235 10.2295 18.1885 10.5225C18.9535 10.7992 19.637 11.1735 20.2393 11.6455C20.8577 12.1012 21.3542 12.6709 21.7285 13.3545C22.1191 14.0381 22.3145 14.86 22.3145 15.8203V30.7617H16.5283V15.0635C16.5283 14.3799 16.3737 13.8265 16.0645 13.4033C15.7715 12.9801 15.389 12.6465 14.917 12.4023C14.4613 12.1582 13.9648 11.9954 13.4277 11.9141C12.8906 11.8164 12.3779 11.7676 11.8896 11.7676C11.3688 11.7676 10.8398 11.8164 10.3027 11.9141C9.76562 11.9954 9.26921 12.1582 8.81348 12.4023C8.35775 12.6465 7.9834 12.9801 7.69043 13.4033C7.41374 13.8265 7.27539 14.3799 7.27539 15.0635V20.2148ZM8.3252 21.7041C8.11361 21.7041 7.91016 21.7773 7.71484 21.9238C7.51953 22.054 7.37305 22.2331 7.27539 22.4609V26.8555C7.38932 26.8066 7.56836 26.7008 7.8125 26.5381C8.07292 26.359 8.3252 26.123 8.56934 25.8301C8.82975 25.5371 9.04948 25.1872 9.22852 24.7803C9.42383 24.3571 9.52148 23.877 9.52148 23.3398C9.52148 22.998 9.48079 22.7214 9.39941 22.5098C9.33431 22.2819 9.24479 22.111 9.13086 21.9971C9.01693 21.8831 8.88672 21.8099 8.74023 21.7773C8.61003 21.7285 8.47168 21.7041 8.3252 21.7041Z" fill="#0F1729"/>
</svg>
