<svg width="49" height="48" viewBox="0 0 49 48" fill="none" xmlns="http://www.w3.org/2000/svg">
<path d="M11.2549 36.7676C11.5641 36.5397 11.9059 36.3607 12.2803 36.2305C12.6709 36.1003 13.1022 36.0352 13.5742 36.0352C14.0788 36.0352 14.5508 36.1165 14.9902 36.2793C15.446 36.4258 15.8366 36.6455 16.1621 36.9385C16.5039 37.2314 16.7643 37.5977 16.9434 38.0371C17.1387 38.4603 17.2363 38.9486 17.2363 39.502C17.2363 40.332 17.0085 41.2028 16.5527 42.1143C16.097 43.0257 15.389 43.8721 14.4287 44.6533C13.4847 45.4183 12.264 46.0531 10.7666 46.5576C9.28548 47.0622 7.51139 47.3145 5.44434 47.3145V29.7607C5.44434 29.4515 5.38737 29.2074 5.27344 29.0283C5.17578 28.833 5.03744 28.6784 4.8584 28.5645C4.67936 28.4505 4.47591 28.361 4.24805 28.2959C4.02018 28.2308 3.78418 28.1738 3.54004 28.125C3.10059 28.0436 2.66927 27.9541 2.24609 27.8564C1.82292 27.7425 1.44043 27.6042 1.09863 27.4414C0.773112 27.2786 0.504557 27.0833 0.292969 26.8555C0.0976562 26.6113 0 26.3021 0 25.9277C0 25.7161 0.0732422 25.4639 0.219727 25.1709C0.382487 24.8779 0.577799 24.585 0.805664 24.292C1.0498 23.9827 1.30208 23.6816 1.5625 23.3887C1.82292 23.0957 2.05078 22.8353 2.24609 22.6074L6.49414 18.042C6.91732 17.5863 7.32422 17.2282 7.71484 16.9678C8.12175 16.6911 8.51237 16.5527 8.88672 16.5527C9.16341 16.5527 9.40755 16.6504 9.61914 16.8457C9.847 17.041 10.0586 17.2852 10.2539 17.5781C10.4655 17.8711 10.6608 18.1885 10.8398 18.5303C11.0352 18.8558 11.2386 19.165 11.4502 19.458C11.6781 19.751 11.9222 19.9951 12.1826 20.1904C12.4593 20.3857 12.7767 20.4834 13.1348 20.4834C13.4115 20.4834 13.6475 20.4264 13.8428 20.3125C14.0381 20.1986 14.1927 20.0521 14.3066 19.873C14.4368 19.694 14.5264 19.4906 14.5752 19.2627C14.6403 19.0348 14.6729 18.807 14.6729 18.5791V18.3105C15.1286 18.4082 15.5355 18.7093 15.8936 19.2139C16.2679 19.7021 16.4551 20.2718 16.4551 20.9229C16.4551 21.4111 16.3574 21.8669 16.1621 22.29C15.9831 22.6969 15.7145 23.055 15.3564 23.3643C14.9984 23.6572 14.5671 23.8932 14.0625 24.0723C13.5579 24.2513 12.9883 24.3408 12.3535 24.3408C11.6048 24.3408 10.8154 24.1374 9.98535 23.7305C9.17155 23.3073 8.42285 22.6318 7.73926 21.7041L5.68848 23.999C5.57454 24.1292 5.51758 24.3001 5.51758 24.5117C5.51758 24.7559 5.63965 24.9268 5.88379 25.0244C6.14421 25.1221 6.42904 25.2116 6.73828 25.293C7.22656 25.4069 7.73112 25.5371 8.25195 25.6836C8.78906 25.8138 9.27734 26.0173 9.7168 26.2939C10.1562 26.5544 10.5225 26.9124 10.8154 27.3682C11.1084 27.8076 11.2549 28.3854 11.2549 29.1016V36.7676ZM12.3047 38.2324C12.0931 38.2324 11.8896 38.3057 11.6943 38.4521C11.499 38.5824 11.3525 38.7614 11.2549 38.9893V43.3838C11.3688 43.335 11.5479 43.2292 11.792 43.0664C12.0524 42.8874 12.3047 42.6514 12.5488 42.3584C12.8092 42.0654 13.029 41.7155 13.208 41.3086C13.4033 40.8854 13.501 40.4053 13.501 39.8682C13.501 39.5264 13.4603 39.2497 13.3789 39.0381C13.3138 38.8102 13.2243 38.6393 13.1104 38.5254C12.9964 38.4115 12.8662 38.3382 12.7197 38.3057C12.5895 38.2568 12.4512 38.2324 12.3047 38.2324Z" fill="#0F1729"/>
<path d="M35.9863 23.8037C35.9863 24.6338 35.5794 25.0488 34.7656 25.0488C33.9518 25.0488 33.5449 24.6338 33.5449 23.8037C33.5449 23.0062 33.9518 22.6074 34.7656 22.6074C35.5794 22.6074 35.9863 23.0062 35.9863 23.8037ZM37.0361 24.707C37.0361 23.877 37.4512 23.4619 38.2812 23.4619C39.0788 23.4619 39.4775 23.877 39.4775 24.707C39.4775 25.5046 39.0788 25.9033 38.2812 25.9033C37.4512 25.9033 37.0361 25.5046 37.0361 24.707ZM39.6729 27.0996C39.6729 26.2858 40.0798 25.8789 40.8936 25.8789C41.7074 25.8789 42.1143 26.3102 42.1143 27.1729C42.1143 27.9378 41.7074 28.3203 40.8936 28.3203C40.0798 28.3203 39.6729 27.9134 39.6729 27.0996ZM40.8691 30.7129C40.8691 29.9154 41.276 29.5166 42.0898 29.5166C42.9036 29.5166 43.3105 29.9154 43.3105 30.7129C43.3105 31.543 42.8874 31.958 42.041 31.958C41.2598 31.958 40.8691 31.543 40.8691 30.7129ZM41.2598 34.9609C41.2598 34.1471 41.6504 33.7402 42.4316 33.7402C43.278 33.7402 43.7012 34.1471 43.7012 34.9609C43.7012 35.7747 43.278 36.1816 42.4316 36.1816C41.6504 36.1816 41.2598 35.7747 41.2598 34.9609ZM35.9863 46.0693C35.9863 46.8994 35.5794 47.3145 34.7656 47.3145C33.9518 47.3145 33.5449 46.8994 33.5449 46.0693C33.5449 45.2718 33.9518 44.873 34.7656 44.873C35.5794 44.873 35.9863 45.2718 35.9863 46.0693ZM40.8691 39.209C40.8691 38.3789 41.276 37.9639 42.0898 37.9639C42.9036 37.9639 43.3105 38.3789 43.3105 39.209C43.3105 40.0065 42.9036 40.4053 42.0898 40.4053C41.276 40.4053 40.8691 40.0065 40.8691 39.209ZM37.0361 45.166C37.0361 44.3848 37.4512 43.9941 38.2812 43.9941C39.0788 43.9941 39.4775 44.4173 39.4775 45.2637C39.4775 46.0449 39.0788 46.4355 38.2812 46.4355C37.4512 46.4355 37.0361 46.0124 37.0361 45.166ZM39.6729 42.8711C39.6729 42.041 40.0798 41.626 40.8936 41.626C41.7074 41.626 42.1143 42.041 42.1143 42.8711C42.1143 43.6686 41.7074 44.0674 40.8936 44.0674C40.0798 44.0674 39.6729 43.6686 39.6729 42.8711ZM32.4951 24.707C32.4951 25.5046 32.0801 25.9033 31.25 25.9033C30.4525 25.9033 30.0537 25.5046 30.0537 24.707C30.0537 23.877 30.4525 23.4619 31.25 23.4619C32.0801 23.4619 32.4951 23.877 32.4951 24.707ZM29.8584 27.0996C29.8584 27.9134 29.4515 28.3203 28.6377 28.3203C27.8239 28.3203 27.417 27.9378 27.417 27.1729C27.417 26.3102 27.8239 25.8789 28.6377 25.8789C29.4515 25.8789 29.8584 26.2858 29.8584 27.0996ZM28.6621 30.7129C28.6621 31.543 28.2715 31.958 27.4902 31.958C26.6439 31.958 26.2207 31.543 26.2207 30.7129C26.2207 29.9154 26.6276 29.5166 27.4414 29.5166C28.2552 29.5166 28.6621 29.9154 28.6621 30.7129ZM28.2715 34.9609C28.2715 35.7747 27.8809 36.1816 27.0996 36.1816C26.2533 36.1816 25.8301 35.7747 25.8301 34.9609C25.8301 34.1471 26.2533 33.7402 27.0996 33.7402C27.8809 33.7402 28.2715 34.1471 28.2715 34.9609ZM28.6621 39.209C28.6621 40.0065 28.2552 40.4053 27.4414 40.4053C26.6276 40.4053 26.2207 40.0065 26.2207 39.209C26.2207 38.3789 26.6276 37.9639 27.4414 37.9639C28.2552 37.9639 28.6621 38.3789 28.6621 39.209ZM32.4951 45.166C32.4951 46.0124 32.0801 46.4355 31.25 46.4355C30.4525 46.4355 30.0537 46.0449 30.0537 45.2637C30.0537 44.4173 30.4525 43.9941 31.25 43.9941C32.0801 43.9941 32.4951 44.3848 32.4951 45.166ZM29.8584 42.8711C29.8584 43.6686 29.4515 44.0674 28.6377 44.0674C27.8239 44.0674 27.417 43.6686 27.417 42.8711C27.417 42.041 27.8239 41.626 28.6377 41.626C29.4515 41.626 29.8584 42.041 29.8584 42.8711Z" fill="#0F1729"/>
<path d="M44.873 9.22852C45.166 8.44727 45.3776 7.75553 45.5078 7.15332C45.6217 6.55111 45.6787 5.89193 45.6787 5.17578C45.6787 4.55729 45.5973 4.13411 45.4346 3.90625C45.2555 3.66211 45.0846 3.54004 44.9219 3.54004C44.8405 3.54004 44.7428 3.57259 44.6289 3.6377C44.515 3.7028 44.4255 3.82487 44.3604 4.00391C44.0837 3.90625 43.8639 3.77604 43.7012 3.61328C43.5221 3.45052 43.3838 3.27962 43.2861 3.10059C43.1722 2.90527 43.099 2.7181 43.0664 2.53906C43.0176 2.34375 42.9932 2.18099 42.9932 2.05078C42.9932 1.36719 43.2129 0.854492 43.6523 0.512695C44.0755 0.170898 44.5882 0 45.1904 0C45.7764 0 46.2809 0.138346 46.7041 0.415039C47.111 0.675456 47.4447 1.03353 47.7051 1.48926C47.9492 1.92871 48.1283 2.44954 48.2422 3.05176C48.3561 3.6377 48.4131 4.24805 48.4131 4.88281C48.4131 5.89193 48.3317 6.80339 48.1689 7.61719C48.0062 8.43099 47.819 9.16341 47.6074 9.81445C47.3796 10.4492 47.1598 11.0026 46.9482 11.4746C46.7204 11.9303 46.5413 12.2965 46.4111 12.5732H31.1035C30.127 12.5732 29.2887 12.4756 28.5889 12.2803C27.889 12.0687 27.3193 11.792 26.8799 11.4502C26.4404 11.0921 26.1149 10.6852 25.9033 10.2295C25.6917 9.75749 25.5859 9.26107 25.5859 8.74023C25.5859 7.84505 25.7975 7.0638 26.2207 6.39648C26.6439 5.72917 27.2217 5.17578 27.9541 4.73633C28.6702 4.2806 29.5085 3.94694 30.4688 3.73535C31.429 3.50749 32.4463 3.39355 33.5205 3.39355C34.8551 3.39355 36.1003 3.54004 37.2559 3.83301C38.3952 4.1097 39.4368 4.50846 40.3809 5.0293C41.3249 5.55013 42.1712 6.16862 42.9199 6.88477C43.6686 7.60091 44.3197 8.38216 44.873 9.22852ZM40.3809 10.376C40.2344 10.0505 39.9984 9.63542 39.6729 9.13086C39.3311 8.61003 38.8916 8.11361 38.3545 7.6416C37.8174 7.15332 37.1908 6.73828 36.4746 6.39648C35.7422 6.03841 34.9284 5.85938 34.0332 5.85938C33.4961 5.85938 33.0485 5.93262 32.6904 6.0791C32.3161 6.22559 32.015 6.41276 31.7871 6.64062C31.543 6.86849 31.3721 7.12077 31.2744 7.39746C31.1605 7.65788 31.1035 7.91829 31.1035 8.17871C31.1035 8.42285 31.1442 8.67513 31.2256 8.93555C31.307 9.17969 31.4616 9.41569 31.6895 9.64355C31.901 9.85514 32.194 10.0342 32.5684 10.1807C32.9427 10.3109 33.4147 10.376 33.9844 10.376H40.3809Z" fill="#0F1729"/>
</svg>
