<svg width="113" height="28" viewBox="0 0 113 28" fill="none" xmlns="http://www.w3.org/2000/svg">
<path d="M10.5537 13.6152C10.3486 13.752 10.1729 13.8643 10.0264 13.9521C9.88965 14.04 9.69922 14.084 9.45508 14.084C9.17188 14.084 8.93262 14.0449 8.7373 13.9668C8.54199 13.8789 8.32227 13.7617 8.07812 13.6152L4.95801 11.8867C4.64551 12.0918 4.32324 12.3213 3.99121 12.5752C3.65918 12.8291 3.38086 13.0391 3.15625 13.2051C3.30273 13.498 3.48828 13.7666 3.71289 14.0107C3.9375 14.2451 4.18164 14.4551 4.44531 14.6406C4.70898 14.8262 4.98242 14.9775 5.26562 15.0947C5.54883 15.2119 5.82227 15.29 6.08594 15.3291C6.4082 15.2803 6.71094 15.251 6.99414 15.2412C7.28711 15.2314 7.5459 15.2266 7.77051 15.2266C8.06348 15.2266 8.41992 15.2412 8.83984 15.2705C9.25977 15.2998 9.7041 15.3633 10.1729 15.4609C10.6416 15.5488 11.1055 15.6807 11.5645 15.8564C12.0234 16.0225 12.4385 16.2471 12.8096 16.5303C13.1807 16.8037 13.4785 17.1455 13.7031 17.5557C13.9375 17.9658 14.0547 18.459 14.0547 19.0352V28H10.5684V18.5811C10.5684 18.1709 10.4756 17.8389 10.29 17.585C10.1143 17.3311 9.88965 17.1309 9.61621 16.9844C9.34277 16.8379 9.04004 16.7402 8.70801 16.6914C8.37598 16.6328 8.06348 16.6035 7.77051 16.6035C7.45801 16.6035 7.14062 16.6328 6.81836 16.6914C6.49609 16.7402 6.19824 16.8379 5.9248 16.9844C5.65137 17.1309 5.42676 17.3311 5.25098 17.585C5.08496 17.8389 5.00195 18.1709 5.00195 18.5811V28H1.51562V19.0352C1.51562 18.4492 1.65723 17.9365 1.94043 17.4971C2.2334 17.0576 2.61426 16.6719 3.08301 16.3398C2.84863 16.1934 2.58984 16.0176 2.30664 15.8125C2.02344 15.5977 1.75977 15.3633 1.51562 15.1094C1.27148 14.8457 1.06641 14.5625 0.900391 14.2598C0.734375 13.957 0.651367 13.6396 0.651367 13.3076C0.651367 13.1416 0.714844 12.9756 0.841797 12.8096C0.978516 12.6338 1.12012 12.4824 1.2666 12.3555L4.43066 10.0117C4.55762 9.91406 4.72363 9.81641 4.92871 9.71875C5.14355 9.61133 5.37793 9.55762 5.63184 9.55762C5.74902 9.55762 5.87598 9.57715 6.0127 9.61621C6.15918 9.65527 6.37402 9.74805 6.65723 9.89453C6.9502 10.0312 7.35059 10.2363 7.8584 10.5098C8.36621 10.7832 9.04492 11.1592 9.89453 11.6377C11.1348 10.9346 12.1553 10.4121 12.9561 10.0703C13.7666 9.72852 14.3281 9.55762 14.6406 9.55762C15.0117 9.55762 15.4756 9.65039 16.0322 9.83594C16.5986 10.0117 17.1943 10.251 17.8193 10.5537C18.4443 10.8467 19.0645 11.1836 19.6797 11.5645C20.3047 11.9453 20.8662 12.3408 21.3643 12.751C21.8721 13.1514 22.2822 13.5469 22.5947 13.9375C22.9072 14.3281 23.0635 14.6846 23.0635 15.0068V28H19.5918V15.9004C19.5918 15.5879 19.4795 15.2656 19.2549 14.9336C19.04 14.6016 18.7568 14.2842 18.4053 13.9814C18.0537 13.6689 17.6631 13.376 17.2334 13.1025C16.8037 12.8291 16.3838 12.5898 15.9736 12.3848C15.5635 12.1797 15.1826 12.0186 14.8311 11.9014C14.4795 11.7842 14.2061 11.7256 14.0107 11.7256C13.9619 11.7256 13.8154 11.7842 13.5713 11.9014C13.3369 12.0088 13.0488 12.1504 12.707 12.3262C12.375 12.502 12.0186 12.7021 11.6377 12.9268C11.2568 13.1514 10.8955 13.3809 10.5537 13.6152ZM28.791 17.79C28.791 17.5557 28.7568 17.3604 28.6885 17.2041C28.6299 17.0479 28.5469 16.9209 28.4395 16.8232C28.332 16.7256 28.2051 16.6523 28.0586 16.6035C27.9219 16.5547 27.7803 16.5156 27.6338 16.4863C27.3701 16.4375 27.1113 16.3838 26.8574 16.3252C26.6133 16.2568 26.3887 16.1738 26.1836 16.0762C25.9883 15.9785 25.8271 15.8613 25.7002 15.7246C25.583 15.5781 25.5244 15.3926 25.5244 15.168C25.5244 15.041 25.5684 14.8896 25.6562 14.7139C25.7539 14.5381 25.8711 14.3623 26.0078 14.1865C26.1445 14.001 26.291 13.8203 26.4473 13.6445C26.6035 13.4688 26.7451 13.3125 26.8721 13.1758L29.6992 10.1436C29.9531 9.87012 30.168 9.7041 30.3438 9.64551C30.5195 9.57715 30.6953 9.54297 30.8711 9.54297C31.0469 9.54297 31.2031 9.58691 31.3398 9.6748C31.4863 9.75293 31.6133 9.85547 31.7207 9.98242C31.8379 10.1094 31.9404 10.251 32.0283 10.4072C32.126 10.5635 32.2139 10.7148 32.292 10.8613C32.3701 11.0078 32.4434 11.125 32.5117 11.2129C32.5898 11.291 32.6582 11.3496 32.7168 11.3887C32.7852 11.4277 32.8438 11.4521 32.8926 11.4619C32.9512 11.4717 33 11.4766 33.0391 11.4766C33.0781 11.4766 33.127 11.4717 33.1855 11.4619C33.2441 11.4521 33.3027 11.4229 33.3613 11.374C33.4297 11.3154 33.4932 11.2275 33.5518 11.1104C33.6104 10.9932 33.6592 10.8223 33.6982 10.5977C33.9717 10.8223 34.1816 11.0615 34.3281 11.3154C34.4844 11.5693 34.5625 11.8965 34.5625 12.2969C34.5625 12.4922 34.5186 12.6924 34.4307 12.8975C34.3428 13.1025 34.2109 13.2881 34.0352 13.4541C33.8594 13.6201 33.6348 13.7617 33.3613 13.8789C33.0879 13.9863 32.7705 14.04 32.4092 14.04C32.2432 14.04 32.0674 14.0254 31.8818 13.9961C31.7061 13.9668 31.5156 13.9033 31.3105 13.8057C31.1152 13.708 30.915 13.5664 30.71 13.3809C30.5146 13.1953 30.3242 12.9463 30.1387 12.6338L28.9375 14.0107C28.9082 14.0498 28.874 14.0938 28.835 14.1426C28.8057 14.1914 28.791 14.2598 28.791 14.3477C28.791 14.4844 28.8691 14.582 29.0254 14.6406C29.1816 14.6992 29.3574 14.748 29.5527 14.7871C29.8457 14.8457 30.1582 14.9287 30.4902 15.0361C30.8223 15.1338 31.1299 15.2803 31.4131 15.4756C31.7061 15.6709 31.9453 15.9248 32.1309 16.2373C32.3164 16.5498 32.4092 16.9453 32.4092 17.4238V23.8984C32.4092 24.416 32.4971 24.8457 32.6729 25.1875C32.8486 25.5293 33.0684 25.8076 33.332 26.0225C33.6055 26.2373 33.9082 26.3887 34.2402 26.4766C34.5723 26.5645 34.8945 26.6084 35.207 26.6084C35.5 26.6084 35.7979 26.5693 36.1006 26.4912C36.4131 26.4131 36.6963 26.2764 36.9502 26.0811C37.2139 25.876 37.4287 25.5977 37.5947 25.2461C37.7607 24.8945 37.8438 24.4453 37.8438 23.8984V17.79C37.8438 17.5557 37.8096 17.3604 37.7412 17.2041C37.6826 17.0479 37.5996 16.9209 37.4922 16.8232C37.3848 16.7256 37.2578 16.6523 37.1113 16.6035C36.9746 16.5547 36.833 16.5156 36.6865 16.4863C36.4229 16.4375 36.1641 16.3838 35.9102 16.3252C35.666 16.2568 35.4414 16.1738 35.2363 16.0762C35.041 15.9785 34.8799 15.8613 34.7529 15.7246C34.6357 15.5781 34.5771 15.3926 34.5771 15.168C34.5771 15.041 34.6211 14.8896 34.709 14.7139C34.8066 14.5381 34.9238 14.3623 35.0605 14.1865C35.1973 14.001 35.3438 13.8203 35.5 13.6445C35.6562 13.4688 35.7979 13.3125 35.9248 13.1758L38.752 10.1436C39.0059 9.87012 39.2207 9.7041 39.3965 9.64551C39.5723 9.57715 39.748 9.54297 39.9238 9.54297C40.0996 9.54297 40.2559 9.58691 40.3926 9.6748C40.5391 9.75293 40.666 9.85547 40.7734 9.98242C40.8906 10.1094 40.9932 10.251 41.0811 10.4072C41.1787 10.5635 41.2666 10.7148 41.3447 10.8613C41.4229 11.0078 41.4961 11.125 41.5645 11.2129C41.6426 11.291 41.7109 11.3496 41.7695 11.3887C41.8379 11.4277 41.8965 11.4521 41.9453 11.4619C42.0039 11.4717 42.0527 11.4766 42.0918 11.4766C42.1309 11.4766 42.1797 11.4717 42.2383 11.4619C42.2969 11.4521 42.3555 11.4229 42.4141 11.374C42.4824 11.3154 42.5459 11.2275 42.6045 11.1104C42.6631 10.9932 42.7119 10.8223 42.751 10.5977C43.0244 10.8223 43.2344 11.0615 43.3809 11.3154C43.5371 11.5693 43.6152 11.8965 43.6152 12.2969C43.6152 12.4922 43.5713 12.6924 43.4834 12.8975C43.3955 13.1025 43.2637 13.2881 43.0879 13.4541C42.9121 13.6201 42.6875 13.7617 42.4141 13.8789C42.1406 13.9863 41.8232 14.04 41.4619 14.04C41.2959 14.04 41.1201 14.0254 40.9346 13.9961C40.7588 13.9668 40.5684 13.9033 40.3633 13.8057C40.168 13.708 39.9678 13.5664 39.7627 13.3809C39.5674 13.1953 39.377 12.9463 39.1914 12.6338L37.9902 14.0107C37.9609 14.0498 37.9268 14.0938 37.8877 14.1426C37.8584 14.1914 37.8438 14.2598 37.8438 14.3477C37.8438 14.4844 37.9219 14.582 38.0781 14.6406C38.2344 14.6992 38.4102 14.748 38.6055 14.7871C38.8984 14.8457 39.2109 14.9287 39.543 15.0361C39.875 15.1338 40.1826 15.2803 40.4658 15.4756C40.7588 15.6709 40.998 15.9248 41.1836 16.2373C41.3691 16.5498 41.4619 16.9453 41.4619 17.4238V23.0928C41.4619 23.9131 41.335 24.6064 41.0811 25.1729C40.8271 25.7295 40.5049 26.1885 40.1143 26.5498C39.7236 26.9111 39.2842 27.1895 38.7959 27.3848C38.3076 27.5801 37.834 27.7266 37.375 27.8242C36.916 27.9121 36.4912 27.9658 36.1006 27.9854C35.71 27.9951 35.4121 28 35.207 28C35.002 28 34.6992 27.9951 34.2988 27.9854C33.9082 27.9658 33.4736 27.9121 32.9951 27.8242C32.5166 27.7266 32.0283 27.5801 31.5303 27.3848C31.042 27.1895 30.5928 26.9111 30.1826 26.5498C29.7725 26.1885 29.4355 25.7295 29.1719 25.1729C28.918 24.6064 28.791 23.918 28.791 23.1074V17.79ZM36.9941 0.416992V4.26953C36.9941 4.64062 36.8965 5.00195 36.7012 5.35352C36.4961 5.69531 36.2324 6.00293 35.9102 6.27637C35.5781 6.54004 35.2021 6.75488 34.7822 6.9209C34.3623 7.07715 33.9375 7.15527 33.5078 7.15527V0.416992H36.9941ZM53.9424 21.6719C54.1279 21.5352 54.333 21.4277 54.5576 21.3496C54.792 21.2715 55.0508 21.2324 55.334 21.2324C55.6367 21.2324 55.9199 21.2812 56.1836 21.3789C56.457 21.4668 56.6914 21.5986 56.8867 21.7744C57.0918 21.9502 57.248 22.1699 57.3555 22.4336C57.4727 22.6875 57.5312 22.9805 57.5312 23.3125C57.5312 23.8105 57.3945 24.333 57.1211 24.8799C56.8477 25.4268 56.4229 25.9346 55.8467 26.4033C55.2803 26.8623 54.5479 27.2432 53.6494 27.5459C52.7607 27.8486 51.6963 28 50.4561 28V17.4678C50.4561 17.2822 50.4219 17.1357 50.3535 17.0283C50.2949 16.9111 50.2119 16.8184 50.1045 16.75C49.9971 16.6816 49.875 16.6279 49.7383 16.5889C49.6016 16.5498 49.46 16.5156 49.3135 16.4863C49.0498 16.4375 48.791 16.3838 48.5371 16.3252C48.2832 16.2568 48.0537 16.1738 47.8486 16.0762C47.6533 15.9785 47.4922 15.8613 47.3652 15.7246C47.248 15.5781 47.1895 15.3926 47.1895 15.168C47.1895 15.041 47.2334 14.8896 47.3213 14.7139C47.4189 14.5381 47.5361 14.3623 47.6729 14.1865C47.8193 14.001 47.9707 13.8203 48.127 13.6445C48.2832 13.4688 48.4199 13.3125 48.5371 13.1758L51.0859 10.4365C51.3398 10.1631 51.584 9.94824 51.8184 9.79199C52.0625 9.62598 52.2969 9.54297 52.5215 9.54297C52.6875 9.54297 52.834 9.60156 52.9609 9.71875C53.0977 9.83594 53.2246 9.98242 53.3418 10.1582C53.4688 10.334 53.5859 10.5244 53.6934 10.7295C53.8105 10.9248 53.9326 11.1104 54.0596 11.2861C54.1963 11.4619 54.3428 11.6084 54.499 11.7256C54.665 11.8428 54.8555 11.9014 55.0703 11.9014C55.2363 11.9014 55.3779 11.8672 55.4951 11.7988C55.6123 11.7305 55.7051 11.6426 55.7734 11.5352C55.8516 11.4277 55.9053 11.3057 55.9346 11.1689C55.9736 11.0322 55.9932 10.8955 55.9932 10.7588V10.5977C56.2666 10.6562 56.5107 10.8369 56.7256 11.1396C56.9502 11.4326 57.0625 11.7744 57.0625 12.165C57.0625 12.458 57.0039 12.7314 56.8867 12.9854C56.7793 13.2295 56.6182 13.4443 56.4033 13.6299C56.1885 13.8057 55.9297 13.9473 55.627 14.0547C55.3242 14.1621 54.9824 14.2158 54.6016 14.2158C54.1523 14.2158 53.6787 14.0938 53.1807 13.8496C52.6924 13.5957 52.2432 13.1904 51.833 12.6338L50.6025 14.0107C50.5342 14.0889 50.5 14.1914 50.5 14.3184C50.5 14.4648 50.5732 14.5674 50.7197 14.626C50.876 14.6846 51.0469 14.7383 51.2324 14.7871C51.5254 14.8555 51.8281 14.9336 52.1406 15.0215C52.4629 15.0996 52.7559 15.2217 53.0195 15.3877C53.2832 15.5439 53.5029 15.7588 53.6787 16.0322C53.8545 16.2959 53.9424 16.6426 53.9424 17.0723V21.6719ZM54.5723 22.5508C54.4453 22.5508 54.3232 22.5947 54.2061 22.6826C54.0889 22.7607 54.001 22.8682 53.9424 23.0049V25.6416C54.0107 25.6123 54.1182 25.5488 54.2646 25.4512C54.4209 25.3438 54.5723 25.2021 54.7188 25.0264C54.875 24.8506 55.0068 24.6406 55.1143 24.3965C55.2314 24.1426 55.29 23.8545 55.29 23.5322C55.29 23.3271 55.2656 23.1611 55.2168 23.0342C55.1777 22.8975 55.124 22.7949 55.0557 22.7266C54.9873 22.6582 54.9092 22.6143 54.8213 22.5947C54.7432 22.5654 54.6602 22.5508 54.5723 22.5508ZM84.9678 22.9902C84.9678 23.7812 84.8359 24.4551 84.5723 25.0117C84.3184 25.5684 83.9863 26.0322 83.5762 26.4033C83.166 26.7744 82.7119 27.0674 82.2139 27.2822C81.7256 27.4971 81.2422 27.6582 80.7637 27.7656C80.2852 27.8633 79.8457 27.9268 79.4453 27.9561C79.0547 27.9854 78.7568 28 78.5518 28C78.3467 28 78.0488 27.9951 77.6582 27.9854C77.2676 27.9658 76.8428 27.9121 76.3838 27.8242C75.9248 27.7266 75.4512 27.5801 74.9629 27.3848C74.4746 27.1895 74.0352 26.9111 73.6445 26.5498C73.2539 26.1885 72.9316 25.7295 72.6777 25.1729C72.4238 24.6064 72.2969 23.9131 72.2969 23.0928V12.9121C72.2969 12.5117 72.2041 12.1846 72.0186 11.9307C71.8428 11.6768 71.6182 11.4766 71.3447 11.3301C71.0713 11.1836 70.7686 11.0859 70.4365 11.0371C70.1045 10.9785 69.792 10.9492 69.499 10.9492C69.1865 10.9492 68.874 10.9834 68.5615 11.0518C68.249 11.1201 67.9658 11.2373 67.7119 11.4033C67.4678 11.5596 67.2627 11.7744 67.0967 12.0479C66.9404 12.3213 66.8623 12.6582 66.8623 13.0586V21.6719C67.0479 21.5352 67.2529 21.4277 67.4775 21.3496C67.7119 21.2715 67.9707 21.2324 68.2539 21.2324C68.5566 21.2324 68.8398 21.2812 69.1035 21.3789C69.377 21.4668 69.6113 21.5986 69.8066 21.7744C70.0117 21.9502 70.168 22.1699 70.2754 22.4336C70.3926 22.6875 70.4512 22.9805 70.4512 23.3125C70.4512 23.8105 70.3047 24.333 70.0117 24.8799C69.7285 25.4268 69.2891 25.9346 68.6934 26.4033C68.1074 26.8623 67.3604 27.2432 66.4521 27.5459C65.5537 27.8486 64.4844 28 63.2441 28V13.3955C63.2441 12.8291 63.3564 12.3408 63.5811 11.9307C63.8057 11.5107 64.0986 11.1592 64.46 10.876C64.8213 10.5928 65.2266 10.3682 65.6758 10.2021C66.1348 10.0264 66.5938 9.88965 67.0527 9.79199C67.5215 9.69434 67.9707 9.63086 68.4004 9.60156C68.8301 9.57227 69.1963 9.55762 69.499 9.55762C69.792 9.55762 70.1533 9.57227 70.583 9.60156C71.0127 9.63086 71.4619 9.69434 71.9307 9.79199C72.4092 9.88965 72.8828 10.0264 73.3516 10.2021C73.8301 10.3682 74.2598 10.5928 74.6406 10.876C75.0215 11.1592 75.3291 11.5107 75.5635 11.9307C75.7979 12.3408 75.915 12.8291 75.915 13.3955V23.8984C75.915 24.4453 75.998 24.8945 76.1641 25.2461C76.3301 25.5977 76.54 25.876 76.7939 26.0811C77.0576 26.2764 77.3408 26.4131 77.6436 26.4912C77.9561 26.5693 78.2588 26.6084 78.5518 26.6084C78.8643 26.6084 79.1865 26.5645 79.5186 26.4766C79.8506 26.3887 80.1484 26.2373 80.4121 26.0225C80.6855 25.8076 80.9102 25.5293 81.0859 25.1875C81.2617 24.8457 81.3496 24.416 81.3496 23.8984V17.4678C81.3496 17.2822 81.3154 17.1357 81.2471 17.0283C81.1885 16.9111 81.1055 16.8184 80.998 16.75C80.9004 16.6816 80.7783 16.6279 80.6318 16.5889C80.4951 16.5498 80.3535 16.5156 80.207 16.4863C79.9434 16.4375 79.6846 16.3838 79.4307 16.3252C79.1768 16.2568 78.9473 16.1738 78.7422 16.0762C78.5469 15.9785 78.3857 15.8613 78.2588 15.7246C78.1416 15.5781 78.083 15.3926 78.083 15.168C78.083 15.0312 78.1318 14.875 78.2295 14.6992C78.3271 14.5234 78.4443 14.3477 78.5811 14.1719C78.7178 13.9863 78.8643 13.8057 79.0205 13.6299C79.1768 13.4541 79.3135 13.3027 79.4307 13.1758C80.1045 12.4824 80.7637 11.9062 81.4082 11.4473C82.0625 10.9785 82.6582 10.6074 83.1953 10.334C83.7422 10.0508 84.2109 9.85059 84.6016 9.7334C84.9922 9.61621 85.2656 9.55762 85.4219 9.55762C85.7832 9.55762 86.2422 9.65039 86.7988 9.83594C87.3652 10.0117 87.9609 10.251 88.5859 10.5537C89.2109 10.8467 89.8359 11.1836 90.4609 11.5645C91.0859 11.9453 91.6475 12.3408 92.1455 12.751C92.6533 13.1514 93.0635 13.5469 93.376 13.9375C93.6885 14.3281 93.8447 14.6846 93.8447 15.0068V28H90.373V15.9004C90.373 15.5879 90.2607 15.2656 90.0361 14.9336C89.8115 14.6016 89.5234 14.2842 89.1719 13.9814C88.8301 13.6689 88.4443 13.376 88.0146 13.1025C87.585 12.8291 87.1602 12.5898 86.7402 12.3848C86.3301 12.1797 85.9492 12.0186 85.5977 11.9014C85.2461 11.7842 84.9727 11.7256 84.7773 11.7256C84.709 11.7256 84.5527 11.7891 84.3086 11.916C84.0645 12.0332 83.7812 12.1992 83.459 12.4141C83.1465 12.6191 82.8145 12.8633 82.4629 13.1465C82.1113 13.4199 81.7891 13.708 81.4961 14.0107C81.457 14.0498 81.4229 14.0938 81.3936 14.1426C81.3643 14.1914 81.3496 14.2451 81.3496 14.3037C81.3496 14.4404 81.4326 14.543 81.5986 14.6113C81.7646 14.6797 81.9404 14.7383 82.126 14.7871C82.4189 14.8555 82.7314 14.9336 83.0635 15.0215C83.3955 15.1094 83.7031 15.2266 83.9863 15.373C84.2695 15.5098 84.5039 15.6855 84.6895 15.9004C84.875 16.1055 84.9678 16.3594 84.9678 16.6621V22.9902ZM67.4922 22.5508C67.375 22.5508 67.2578 22.5947 67.1406 22.6826C67.0234 22.7607 66.9307 22.8682 66.8623 23.0049V25.6416C66.9307 25.6123 67.0381 25.5488 67.1846 25.4512C67.3408 25.3438 67.4922 25.2021 67.6387 25.0264C67.7949 24.8506 67.9316 24.6406 68.0488 24.3965C68.166 24.1426 68.2246 23.8545 68.2246 23.5322C68.2246 23.3271 68.2002 23.1611 68.1514 23.0342C68.1123 22.8975 68.0537 22.7949 67.9756 22.7266C67.9072 22.6582 67.8291 22.6143 67.7412 22.5947C67.6631 22.5654 67.5801 22.5508 67.4922 22.5508ZM111.511 11.3008C111.56 11.291 111.613 11.2227 111.672 11.0957C111.74 10.959 111.838 10.8125 111.965 10.6562C112.072 10.7637 112.185 10.8955 112.302 11.0518C112.419 11.208 112.526 11.374 112.624 11.5498C112.722 11.7256 112.8 11.9062 112.858 12.0918C112.927 12.2773 112.961 12.4531 112.961 12.6191C112.961 12.7559 112.922 12.9072 112.844 13.0732C112.775 13.2393 112.668 13.3955 112.521 13.542C112.385 13.6787 112.209 13.7959 111.994 13.8936C111.779 13.9912 111.525 14.04 111.232 14.04C110.979 14.04 110.72 13.9863 110.456 13.8789C110.192 13.7617 109.929 13.6152 109.665 13.4395C109.401 13.2539 109.143 13.0537 108.889 12.8389C108.635 12.6143 108.4 12.3945 108.186 12.1797C107.961 12.4141 107.736 12.6533 107.512 12.8975C107.287 13.1318 107.067 13.3711 106.853 13.6152C106.765 13.7031 106.628 13.8057 106.442 13.9229C106.267 14.04 105.998 14.0986 105.637 14.0986C105.295 14.0986 105.021 14.0498 104.816 13.9521C104.621 13.8447 104.475 13.752 104.377 13.6738L102.194 11.9893L101.257 12.9121C101.403 13.1953 101.589 13.4736 101.813 13.7471C102.038 14.0205 102.277 14.2695 102.531 14.4941C102.795 14.709 103.063 14.8945 103.337 15.0508C103.62 15.1973 103.889 15.29 104.143 15.3291C104.465 15.2803 104.768 15.251 105.051 15.2412C105.334 15.2314 105.593 15.2266 105.827 15.2266C106.12 15.2266 106.477 15.2412 106.896 15.2705C107.316 15.2998 107.756 15.3633 108.215 15.4609C108.684 15.5488 109.147 15.6807 109.606 15.8564C110.065 16.0225 110.476 16.2471 110.837 16.5303C111.208 16.8037 111.506 17.1455 111.73 17.5557C111.965 17.9658 112.082 18.459 112.082 19.0352V28H108.61V18.5811C108.61 18.1709 108.518 17.8389 108.332 17.585C108.156 17.3311 107.927 17.1309 107.644 16.9844C107.37 16.8379 107.072 16.7402 106.75 16.6914C106.428 16.6328 106.12 16.6035 105.827 16.6035C105.515 16.6035 105.197 16.6328 104.875 16.6914C104.553 16.7402 104.255 16.8379 103.981 16.9844C103.708 17.1309 103.483 17.3311 103.308 17.585C103.142 17.8389 103.059 18.1709 103.059 18.5811V28H99.5723V19.0352C99.5723 18.4492 99.7139 17.9365 99.9971 17.4971C100.29 17.0576 100.671 16.6719 101.14 16.3398C100.71 16.0762 100.339 15.8125 100.026 15.5488C99.7139 15.2852 99.4746 15.0361 99.3086 14.8018C99.1328 14.5381 98.9863 14.2695 98.8691 13.9961C98.752 13.7129 98.6934 13.4834 98.6934 13.3076C98.6934 13.1416 98.7568 12.9756 98.8838 12.8096C99.0107 12.6436 99.1426 12.4922 99.2793 12.3555L101.667 9.98242C101.755 9.89453 101.892 9.80176 102.077 9.7041C102.263 9.59668 102.536 9.54297 102.897 9.54297C103.161 9.54297 103.386 9.5918 103.571 9.68945C103.767 9.77734 103.933 9.875 104.069 9.98242C104.274 10.1289 104.455 10.2656 104.611 10.3926C104.777 10.5098 104.934 10.627 105.08 10.7441C105.236 10.8613 105.393 10.9834 105.549 11.1104C105.715 11.2275 105.896 11.3594 106.091 11.5059L107.6 9.98242C107.746 9.8457 107.922 9.73828 108.127 9.66016C108.342 9.58203 108.591 9.54297 108.874 9.54297C108.972 9.54297 109.079 9.55762 109.196 9.58691C109.313 9.60645 109.465 9.6748 109.65 9.79199C109.846 9.89941 110.09 10.0752 110.383 10.3193C110.676 10.5537 111.052 10.8809 111.511 11.3008Z" fill="#0F1729"/>
</svg>
