<svg width="21" height="31" viewBox="0 0 21 31" fill="none" xmlns="http://www.w3.org/2000/svg">
<path d="M5.81055 23.8525C5.81055 24.8454 5.95703 25.6429 6.25 26.2451C6.55924 26.8473 6.94173 27.3112 7.39746 27.6367C7.85319 27.946 8.34961 28.1576 8.88672 28.2715C9.42383 28.3691 9.93652 28.418 10.4248 28.418C10.9131 28.418 11.4258 28.3447 11.9629 28.1982C12.5 28.0518 12.9964 27.7995 13.4521 27.4414C13.9242 27.0833 14.3066 26.6195 14.5996 26.0498C14.9089 25.4639 15.0635 24.7314 15.0635 23.8525V5.59082C15.0635 4.9235 14.917 4.37826 14.624 3.95508C14.3311 3.5319 13.9567 3.19824 13.501 2.9541C13.0615 2.70996 12.5651 2.5472 12.0117 2.46582C11.4583 2.36816 10.9294 2.31934 10.4248 2.31934C9.93652 2.31934 9.42383 2.36816 8.88672 2.46582C8.34961 2.5472 7.85319 2.70996 7.39746 2.9541C6.94173 3.19824 6.55924 3.54004 6.25 3.97949C5.95703 4.41895 5.81055 4.98047 5.81055 5.66406V23.8525ZM20.8496 23.8037C20.8496 24.9268 20.6543 25.8789 20.2637 26.6602C19.8893 27.4414 19.3929 28.0924 18.7744 28.6133C18.1722 29.1178 17.4886 29.5166 16.7236 29.8096C15.9587 30.0863 15.1855 30.2979 14.4043 30.4443C13.6393 30.5745 12.9069 30.6559 12.207 30.6885C11.5072 30.721 10.9131 30.7373 10.4248 30.7373C9.93652 30.7373 9.34245 30.721 8.64258 30.6885C7.94271 30.6559 7.20215 30.5664 6.4209 30.4199C5.65592 30.2734 4.89095 30.0618 4.12598 29.7852C3.361 29.4922 2.66927 29.1016 2.05078 28.6133C1.44857 28.125 0.952148 27.5065 0.561523 26.7578C0.187174 26.0091 0 25.1058 0 24.0479V6.25C0 5.25716 0.187174 4.41895 0.561523 3.73535C0.952148 3.03548 1.44857 2.45768 2.05078 2.00195C2.66927 1.52995 3.361 1.16374 4.12598 0.90332C4.89095 0.626628 5.65592 0.423177 6.4209 0.292969C7.20215 0.16276 7.94271 0.0813802 8.64258 0.0488281C9.34245 0.016276 9.93652 0 10.4248 0C10.9294 0 11.5397 0.0244141 12.2559 0.0732422C12.972 0.12207 13.7126 0.227865 14.4775 0.390625C15.2588 0.553385 16.0238 0.78125 16.7725 1.07422C17.5374 1.35091 18.221 1.72526 18.8232 2.19727C19.4255 2.66927 19.9137 3.25521 20.2881 3.95508C20.6624 4.63867 20.8496 5.45247 20.8496 6.39648V23.8037Z" fill="#0F1729"/>
</svg>
