<svg width="24" height="43" viewBox="0 0 24 43" fill="none" xmlns="http://www.w3.org/2000/svg">
<path d="M13.1836 14.1113C13.1836 15.1204 12.6953 15.625 11.7188 15.625C10.7422 15.625 10.2539 15.1204 10.2539 14.1113C10.2539 13.1673 10.7422 12.6953 11.7188 12.6953C12.6953 12.6953 13.1836 13.1673 13.1836 14.1113ZM14.4531 15.21C14.4531 14.2171 14.9495 13.7207 15.9424 13.7207C16.9027 13.7207 17.3828 14.2171 17.3828 15.21C17.3828 16.1702 16.9027 16.6504 15.9424 16.6504C14.9495 16.6504 14.4531 16.1702 14.4531 15.21ZM17.6025 18.0664C17.6025 17.0898 18.0908 16.6016 19.0674 16.6016C20.0439 16.6016 20.5322 17.1224 20.5322 18.1641C20.5322 19.0755 20.0439 19.5312 19.0674 19.5312C18.0908 19.5312 17.6025 19.043 17.6025 18.0664ZM19.043 22.4121C19.043 21.4518 19.5312 20.9717 20.5078 20.9717C21.4844 20.9717 21.9727 21.4518 21.9727 22.4121C21.9727 23.4049 21.4681 23.9014 20.459 23.9014C19.515 23.9014 19.043 23.4049 19.043 22.4121ZM19.5068 27.5146C19.5068 26.5381 19.9788 26.0498 20.9229 26.0498C21.932 26.0498 22.4365 26.5381 22.4365 27.5146C22.4365 28.4912 21.932 28.9795 20.9229 28.9795C19.9788 28.9795 19.5068 28.4912 19.5068 27.5146ZM13.1836 40.8447C13.1836 41.8376 12.6953 42.334 11.7188 42.334C10.7422 42.334 10.2539 41.8376 10.2539 40.8447C10.2539 39.8844 10.7422 39.4043 11.7188 39.4043C12.6953 39.4043 13.1836 39.8844 13.1836 40.8447ZM19.043 32.6172C19.043 31.6081 19.5312 31.1035 20.5078 31.1035C21.4844 31.1035 21.9727 31.6081 21.9727 32.6172C21.9727 33.5612 21.4844 34.0332 20.5078 34.0332C19.5312 34.0332 19.043 33.5612 19.043 32.6172ZM14.4531 39.7461C14.4531 38.8184 14.9495 38.3545 15.9424 38.3545C16.9027 38.3545 17.3828 38.8591 17.3828 39.8682C17.3828 40.8122 16.9027 41.2842 15.9424 41.2842C14.9495 41.2842 14.4531 40.7715 14.4531 39.7461ZM17.6025 37.0117C17.6025 36.0026 18.0908 35.498 19.0674 35.498C20.0439 35.498 20.5322 36.0026 20.5322 37.0117C20.5322 37.9557 20.0439 38.4277 19.0674 38.4277C18.0908 38.4277 17.6025 37.9557 17.6025 37.0117ZM8.98438 15.21C8.98438 16.1702 8.48796 16.6504 7.49512 16.6504C6.53483 16.6504 6.05469 16.1702 6.05469 15.21C6.05469 14.2171 6.53483 13.7207 7.49512 13.7207C8.48796 13.7207 8.98438 14.2171 8.98438 15.21ZM5.83496 18.0664C5.83496 19.043 5.34668 19.5312 4.37012 19.5312C3.39355 19.5312 2.90527 19.0755 2.90527 18.1641C2.90527 17.1224 3.39355 16.6016 4.37012 16.6016C5.34668 16.6016 5.83496 17.0898 5.83496 18.0664ZM4.39453 22.4121C4.39453 23.4049 3.92253 23.9014 2.97852 23.9014C1.9694 23.9014 1.46484 23.4049 1.46484 22.4121C1.46484 21.4518 1.95312 20.9717 2.92969 20.9717C3.90625 20.9717 4.39453 21.4518 4.39453 22.4121ZM3.93066 27.5146C3.93066 28.4912 3.45866 28.9795 2.51465 28.9795C1.50553 28.9795 1.00098 28.4912 1.00098 27.5146C1.00098 26.5381 1.50553 26.0498 2.51465 26.0498C3.45866 26.0498 3.93066 26.5381 3.93066 27.5146ZM4.39453 32.6172C4.39453 33.5612 3.90625 34.0332 2.92969 34.0332C1.95312 34.0332 1.46484 33.5612 1.46484 32.6172C1.46484 31.6081 1.95312 31.1035 2.92969 31.1035C3.90625 31.1035 4.39453 31.6081 4.39453 32.6172ZM8.98438 39.7461C8.98438 40.7715 8.48796 41.2842 7.49512 41.2842C6.53483 41.2842 6.05469 40.8122 6.05469 39.8682C6.05469 38.8591 6.53483 38.3545 7.49512 38.3545C8.48796 38.3545 8.98438 38.8184 8.98438 39.7461ZM5.83496 37.0117C5.83496 37.9557 5.34668 38.4277 4.37012 38.4277C3.39355 38.4277 2.90527 37.9557 2.90527 37.0117C2.90527 36.0026 3.39355 35.498 4.37012 35.498C5.34668 35.498 5.83496 36.0026 5.83496 37.0117ZM4.27246 5.46875C4.14225 5.59896 4.06087 5.71289 4.02832 5.81055C4.01204 5.9082 4.00391 6.00586 4.00391 6.10352C4.23177 6.10352 4.39453 6.08724 4.49219 6.05469C4.58984 6.00586 4.71191 5.94889 4.8584 5.88379C4.8584 6.35579 4.67122 6.7627 4.29688 7.10449C3.9388 7.44629 3.40169 7.61719 2.68555 7.61719C1.74154 7.61719 1.05794 7.44629 0.634766 7.10449C0.211589 6.7627 0 6.40462 0 6.03027C0 5.80241 0.0732422 5.58268 0.219727 5.37109C0.382487 5.15951 0.577799 4.93978 0.805664 4.71191L4.78516 0.732422C4.93164 0.585938 5.15951 0.431315 5.46875 0.268555C5.77799 0.0895182 6.23372 0 6.83594 0C7.27539 0 7.65788 0.0813802 7.9834 0.244141C8.30892 0.390625 8.58561 0.553385 8.81348 0.732422C9.15527 0.976562 9.45638 1.20443 9.7168 1.41602C9.99349 1.61133 10.2539 1.80664 10.498 2.00195C10.7585 2.19727 11.0189 2.40072 11.2793 2.6123C11.556 2.80762 11.8571 3.02734 12.1826 3.27148L14.6973 0.732422C15.1855 0.244141 15.8854 0 16.7969 0C16.9596 0 17.1387 0.0244141 17.334 0.0732422C17.5456 0.105794 17.806 0.219727 18.1152 0.415039C18.4408 0.594076 18.8477 0.887044 19.3359 1.29395C19.8242 1.68457 20.4427 2.22982 21.1914 2.92969C21.2728 2.91341 21.3704 2.79948 21.4844 2.58789C21.5983 2.36003 21.7611 2.11589 21.9727 1.85547C22.1354 2.03451 22.3145 2.25423 22.5098 2.51465C22.7051 2.77507 22.8841 3.05176 23.0469 3.34473C23.2259 3.6377 23.3643 3.9388 23.4619 4.24805C23.5758 4.55729 23.6328 4.85026 23.6328 5.12695C23.6328 5.35482 23.5677 5.6071 23.4375 5.88379C23.3236 6.16048 23.1445 6.4209 22.9004 6.66504C22.6562 6.8929 22.3551 7.08822 21.9971 7.25098C21.639 7.41374 21.2158 7.49512 20.7275 7.49512C20.3206 7.49512 19.8975 7.4056 19.458 7.22656C19.0186 7.03125 18.5791 6.78711 18.1396 6.49414C17.7002 6.1849 17.2689 5.85124 16.8457 5.49316C16.4225 5.11881 16.0319 4.7526 15.6738 4.39453C14.8763 5.19206 14.1276 5.98958 13.4277 6.78711C13.2812 6.93359 13.0615 7.10449 12.7686 7.2998C12.4756 7.49512 12.028 7.59277 11.4258 7.59277C10.8561 7.59277 10.4004 7.51139 10.0586 7.34863C9.7168 7.1696 9.46452 7.01497 9.30176 6.88477L5.66406 4.07715L4.27246 5.46875Z" fill="#0F1729"/>
</svg>
