<svg width="25" height="36" viewBox="0 0 25 36" fill="none" xmlns="http://www.w3.org/2000/svg">
<path d="M21.1914 8.54492C21.1914 9.375 21.0531 10.0749 20.7764 10.6445C20.516 11.1979 20.1416 11.6455 19.6533 11.9873C19.165 12.3128 18.5628 12.5488 17.8467 12.6953C17.1468 12.8418 16.3574 12.915 15.4785 12.915C13.9648 12.915 12.6058 13.1429 11.4014 13.5986C10.2132 14.0381 9.2041 14.7135 8.37402 15.625C7.54395 16.5202 6.90918 17.6595 6.46973 19.043C6.03027 20.4102 5.81055 22.0296 5.81055 23.9014V28.0273C5.81055 28.4993 5.8431 29.0039 5.9082 29.541C5.98958 30.0781 6.11979 30.5745 6.29883 31.0303C6.47786 31.486 6.71387 31.8604 7.00684 32.1533C7.2998 32.4463 7.66602 32.5928 8.10547 32.5928C8.52865 32.5928 8.93555 32.5439 9.32617 32.4463C9.73307 32.3486 10.14 32.2428 10.5469 32.1289C10.9538 32.015 11.3607 31.9092 11.7676 31.8115C12.1908 31.7139 12.6302 31.665 13.0859 31.665C13.4766 31.665 13.8509 31.7301 14.209 31.8604C14.5833 31.9743 14.9414 32.1126 15.2832 32.2754C15.625 32.4219 15.9587 32.5602 16.2842 32.6904C16.6097 32.8044 16.9352 32.8613 17.2607 32.8613C17.4235 32.8613 17.57 32.7962 17.7002 32.666C17.8467 32.5358 18.0094 32.3161 18.1885 32.0068C17.0329 31.6488 15.8854 31.2419 14.7461 30.7861C13.623 30.3304 12.6058 29.7363 11.6943 29.0039C10.7992 28.2715 10.0667 27.3682 9.49707 26.2939C8.94368 25.2035 8.66699 23.8363 8.66699 22.1924C8.66699 21.1182 8.85417 20.1172 9.22852 19.1895C9.60286 18.2454 10.1481 17.4316 10.8643 16.748C11.5967 16.0482 12.4919 15.5029 13.5498 15.1123C14.624 14.7054 15.861 14.502 17.2607 14.502C18.5791 14.502 19.7184 14.7135 20.6787 15.1367C21.639 15.5599 22.4365 16.1051 23.0713 16.7725C23.7061 17.4235 24.1781 18.1559 24.4873 18.9697C24.7965 19.7835 24.9512 20.5729 24.9512 21.3379C24.9512 22.1029 24.8454 22.8109 24.6338 23.4619C24.4222 24.0967 24.1211 24.6501 23.7305 25.1221C23.3561 25.5778 22.9085 25.9359 22.3877 26.1963C21.8669 26.4567 21.3053 26.5869 20.7031 26.5869C20.2148 26.5869 19.7347 26.4974 19.2627 26.3184C18.807 26.1393 18.4001 25.8952 18.042 25.5859C17.6839 25.2604 17.391 24.8861 17.1631 24.4629C16.9515 24.0234 16.8457 23.5596 16.8457 23.0713C16.8457 22.9248 16.8538 22.7539 16.8701 22.5586C16.8864 22.3633 16.9515 22.1517 17.0654 21.9238C17.1794 21.696 17.3503 21.4518 17.5781 21.1914C17.806 20.931 18.1396 20.6706 18.5791 20.4102C18.7581 20.9798 18.9453 21.3704 19.1406 21.582C19.3522 21.7773 19.5964 21.875 19.873 21.875C20.0684 21.875 20.2148 21.7448 20.3125 21.4844C20.4264 21.224 20.4834 20.8659 20.4834 20.4102C20.4834 20.1823 20.4346 19.8649 20.3369 19.458C20.2393 19.0511 20.0684 18.6523 19.8242 18.2617C19.5801 17.8711 19.2464 17.5293 18.8232 17.2363C18.4163 16.9434 17.8955 16.7969 17.2607 16.7969C16.8376 16.7969 16.4551 16.9108 16.1133 17.1387C15.7715 17.3503 15.4785 17.6595 15.2344 18.0664C14.9902 18.4733 14.8031 18.9697 14.6729 19.5557C14.5426 20.1253 14.4775 20.7601 14.4775 21.46C14.4775 22.9248 14.6891 24.2188 15.1123 25.3418C15.5518 26.4486 16.2028 27.417 17.0654 28.2471C17.9281 29.0771 19.0186 29.7933 20.3369 30.3955C21.6553 30.9814 23.1934 31.4941 24.9512 31.9336C24.9512 32.487 24.8047 32.9997 24.5117 33.4717C24.235 33.9437 23.8607 34.3506 23.3887 34.6924C22.9329 35.0342 22.404 35.3027 21.8018 35.498C21.2158 35.6934 20.6217 35.791 20.0195 35.791C19.2708 35.791 18.6198 35.7178 18.0664 35.5713C17.5293 35.4085 17.0247 35.2295 16.5527 35.0342C16.097 34.8389 15.6331 34.668 15.1611 34.5215C14.7054 34.3587 14.1846 34.2773 13.5986 34.2773C13.1266 34.2773 12.6709 34.3587 12.2314 34.5215C11.792 34.668 11.3444 34.8389 10.8887 35.0342C10.4329 35.2295 9.96094 35.4085 9.47266 35.5713C8.98438 35.7178 8.46354 35.791 7.91016 35.791C5.24089 35.791 3.25521 35.1562 1.95312 33.8867C0.651042 32.6009 0 30.7048 0 28.1982V22.3389C0 20.402 0.317383 18.7581 0.952148 17.4072C1.60319 16.04 2.42513 14.9007 3.41797 13.9893C3.04362 13.7126 2.69368 13.4115 2.36816 13.0859C2.04264 12.7604 1.75781 12.4023 1.51367 12.0117C1.26953 11.6211 1.07422 11.1898 0.927734 10.7178C0.797526 10.2458 0.732422 9.72493 0.732422 9.15527C0.732422 8.30892 0.895182 7.55208 1.2207 6.88477C1.54622 6.20117 1.98568 5.62337 2.53906 5.15137C3.09245 4.67936 3.74349 4.32129 4.49219 4.07715C5.24089 3.81673 6.04655 3.68652 6.90918 3.68652C7.77181 3.68652 8.57747 3.83301 9.32617 4.12598C10.0749 4.41895 10.7259 4.82585 11.2793 5.34668C11.849 5.85124 12.2884 6.44531 12.5977 7.12891C12.9232 7.79622 13.0859 8.52051 13.0859 9.30176C13.0859 9.70866 13.029 10.1318 12.915 10.5713C13.0452 10.555 13.1592 10.5469 13.2568 10.5469C13.3545 10.5469 13.4684 10.5469 13.5986 10.5469C13.9404 10.5469 14.2253 10.4818 14.4531 10.3516C14.681 10.2051 14.86 10.026 14.9902 9.81445C15.1367 9.58659 15.2344 9.32617 15.2832 9.0332C15.3483 8.74023 15.3809 8.43913 15.3809 8.12988V4.15039C15.3809 3.43424 15.4785 2.81576 15.6738 2.29492C15.8854 1.77409 16.1621 1.34277 16.5039 1.00098C16.8457 0.65918 17.2445 0.406901 17.7002 0.244141C18.1559 0.0813802 18.6442 0 19.165 0C19.637 0 20.166 0.0569661 20.752 0.170898C21.3542 0.284831 21.9157 0.480143 22.4365 0.756836C22.9574 1.01725 23.3968 1.36719 23.7549 1.80664C24.113 2.24609 24.292 2.79134 24.292 3.44238C24.292 3.81673 24.2188 4.14225 24.0723 4.41895C23.9258 4.69564 23.7956 4.89909 23.6816 5.0293C23.3398 4.73633 23.0225 4.52474 22.7295 4.39453C22.4528 4.26432 22.2087 4.19922 21.9971 4.19922C21.7367 4.19922 21.5332 4.2806 21.3867 4.44336C21.2565 4.60612 21.1914 4.80143 21.1914 5.0293V8.54492ZM4.73633 9.10645C4.73633 9.44824 4.77702 9.7819 4.8584 10.1074C4.95605 10.4167 5.07812 10.7015 5.22461 10.9619C5.38737 11.2061 5.57454 11.4014 5.78613 11.5479C5.99772 11.6943 6.22559 11.7676 6.46973 11.7676C6.71387 11.7676 6.93359 11.6943 7.12891 11.5479C7.34049 11.4014 7.51953 11.1979 7.66602 10.9375C7.82878 10.6771 7.95085 10.3841 8.03223 10.0586C8.11361 9.73307 8.1543 9.38314 8.1543 9.00879C8.1543 8.66699 8.11361 8.34147 8.03223 8.03223C7.95085 7.70671 7.82878 7.42188 7.66602 7.17773C7.51953 6.93359 7.34049 6.74642 7.12891 6.61621C6.93359 6.46973 6.71387 6.39648 6.46973 6.39648C6.22559 6.39648 5.99772 6.46973 5.78613 6.61621C5.57454 6.7627 5.38737 6.95801 5.22461 7.20215C5.07812 7.44629 4.95605 7.73926 4.8584 8.08105C4.77702 8.40658 4.73633 8.74837 4.73633 9.10645Z" fill="#0F1729"/>
</svg>
