<svg width="26" height="31" viewBox="0 0 26 31" fill="none" xmlns="http://www.w3.org/2000/svg">
<path d="M17.1631 18.6035C17.3747 18.6035 17.5781 18.5384 17.7734 18.4082C17.9688 18.2617 18.1152 18.0664 18.2129 17.8223V13.4277C18.099 13.4928 17.9118 13.6149 17.6514 13.7939C17.4072 13.9567 17.1549 14.1846 16.8945 14.4775C16.6504 14.7705 16.4307 15.1204 16.2354 15.5273C16.0563 15.9342 15.9668 16.4062 15.9668 16.9434C15.9668 17.3014 15.9993 17.5863 16.0645 17.7979C16.1458 18.0094 16.2435 18.1803 16.3574 18.3105C16.4714 18.4245 16.5934 18.5059 16.7236 18.5547C16.8701 18.5872 17.0166 18.6035 17.1631 18.6035ZM14.4775 3.32031L16.7236 0.952148C17.2119 0.463867 17.9118 0.219727 18.8232 0.219727C18.986 0.219727 19.165 0.244141 19.3604 0.292969C19.5719 0.325521 19.8324 0.439453 20.1416 0.634766C20.4671 0.813802 20.874 1.10677 21.3623 1.51367C21.8506 1.9043 22.4691 2.44954 23.2178 3.14941C23.2992 3.13314 23.3968 3.01921 23.5107 2.80762C23.6247 2.57975 23.7874 2.33561 23.999 2.0752C24.1618 2.25423 24.3408 2.47396 24.5361 2.73438C24.7314 2.99479 24.9105 3.27148 25.0732 3.56445C25.2523 3.85742 25.3906 4.15853 25.4883 4.46777C25.6022 4.77702 25.6592 5.06999 25.6592 5.34668C25.6592 5.57454 25.5941 5.82682 25.4639 6.10352C25.3499 6.38021 25.1709 6.64062 24.9268 6.88477C24.6826 7.11263 24.3815 7.30794 24.0234 7.4707C23.6654 7.63346 23.2422 7.71484 22.7539 7.71484C22.347 7.71484 21.9238 7.62533 21.4844 7.44629C21.0449 7.25098 20.6055 7.00684 20.166 6.71387C19.7266 6.40462 19.2952 6.07096 18.8721 5.71289C18.4489 5.33854 18.0583 4.97233 17.7002 4.61426C17.3096 5.02116 16.9271 5.41992 16.5527 5.81055C16.1784 6.20117 15.8122 6.60807 15.4541 7.03125C15.3076 7.17773 15.0879 7.34863 14.7949 7.54395C14.502 7.72298 14.0544 7.8125 13.4521 7.8125C12.9801 7.8125 12.557 7.69857 12.1826 7.4707C11.8245 7.24284 11.5641 7.0638 11.4014 6.93359L8.20312 4.12598L5.59082 6.34766C5.42806 6.49414 5.34668 6.63249 5.34668 6.7627C5.34668 6.92546 5.4362 7.09635 5.61523 7.27539C5.79427 7.43815 6.014 7.62533 6.27441 7.83691C6.55111 8.03223 6.84408 8.26009 7.15332 8.52051C7.47884 8.76465 7.77181 9.04948 8.03223 9.375C8.30892 9.68425 8.53678 10.0423 8.71582 10.4492C8.89486 10.8561 8.98438 11.3118 8.98438 11.8164V25.2197C8.98438 25.887 9.13086 26.4323 9.42383 26.8555C9.73307 27.2786 10.1156 27.6123 10.5713 27.8564C11.0433 28.1006 11.5479 28.2715 12.085 28.3691C12.6221 28.4505 13.1348 28.4912 13.623 28.4912C14.1276 28.4912 14.6484 28.4505 15.1855 28.3691C15.7389 28.2715 16.2354 28.1087 16.6748 27.8809C17.1305 27.6367 17.4967 27.3031 17.7734 26.8799C18.0664 26.4567 18.2129 25.9115 18.2129 25.2441V20.0684C17.8874 20.2962 17.5374 20.4753 17.1631 20.6055C16.7887 20.7357 16.3656 20.8008 15.8936 20.8008C15.3727 20.8008 14.8926 20.7275 14.4531 20.5811C14.0137 20.4183 13.623 20.1904 13.2812 19.8975C12.9557 19.6045 12.6953 19.2464 12.5 18.8232C12.321 18.3838 12.2314 17.8874 12.2314 17.334C12.2314 16.5039 12.4674 15.6331 12.9395 14.7217C13.4277 13.7939 14.1602 12.9476 15.1367 12.1826C16.1296 11.4176 17.3747 10.7829 18.8721 10.2783C20.3857 9.77376 22.1761 9.52148 24.2432 9.52148V24.4141C24.2432 25.3743 24.0479 26.1963 23.6572 26.8799C23.2829 27.5635 22.7865 28.1413 22.168 28.6133C21.5495 29.0853 20.8496 29.4678 20.0684 29.7607C19.3034 30.0374 18.5221 30.2572 17.7246 30.4199C16.9434 30.5827 16.1947 30.6885 15.4785 30.7373C14.7624 30.7861 14.1439 30.8105 13.623 30.8105C13.1348 30.8105 12.5326 30.7861 11.8164 30.7373C11.1003 30.6885 10.3434 30.5908 9.5459 30.4443C8.76465 30.2979 7.97526 30.0863 7.17773 29.8096C6.39648 29.5166 5.68848 29.1341 5.05371 28.6621C4.43522 28.1901 3.93066 27.6123 3.54004 26.9287C3.14941 26.2451 2.9541 25.4313 2.9541 24.4873V12.1826C2.9541 11.8245 2.92969 11.5316 2.88086 11.3037C2.84831 11.0758 2.79134 10.8887 2.70996 10.7422C2.64486 10.5957 2.55534 10.4818 2.44141 10.4004C2.34375 10.319 2.22168 10.2376 2.0752 10.1562C1.81478 10.0423 1.5625 9.92025 1.31836 9.79004C1.07422 9.64355 0.854492 9.48079 0.65918 9.30176C0.463867 9.12272 0.301107 8.91927 0.170898 8.69141C0.0569661 8.44727 0 8.16243 0 7.83691C0 7.60905 0.0732422 7.37305 0.219727 7.12891C0.366211 6.88477 0.545247 6.64062 0.756836 6.39648C0.984701 6.15234 1.22884 5.91634 1.48926 5.68848C1.76595 5.44434 2.02637 5.21647 2.27051 5.00488C2.74251 4.61426 3.26335 4.18294 3.83301 3.71094C4.40267 3.23893 4.93978 2.79134 5.44434 2.36816C6.014 1.87988 6.5918 1.3916 7.17773 0.90332C7.45443 0.675456 7.75553 0.472005 8.08105 0.292969C8.42285 0.0976562 8.87044 0 9.42383 0C9.97721 0 10.4004 0.0732422 10.6934 0.219727C11.0026 0.366211 11.2874 0.553385 11.5479 0.78125L14.4775 3.32031Z" fill="#0F1729"/>
</svg>
