<svg width="23" height="45" viewBox="0 0 23 45" fill="none" xmlns="http://www.w3.org/2000/svg">
<path d="M12.7686 16.4551C12.7686 17.4642 12.2803 17.9688 11.3037 17.9688C10.3271 17.9688 9.83887 17.4642 9.83887 16.4551C9.83887 15.5111 10.3271 15.0391 11.3037 15.0391C12.2803 15.0391 12.7686 15.5111 12.7686 16.4551ZM14.0381 17.5537C14.0381 16.5609 14.5345 16.0645 15.5273 16.0645C16.4876 16.0645 16.9678 16.5609 16.9678 17.5537C16.9678 18.514 16.4876 18.9941 15.5273 18.9941C14.5345 18.9941 14.0381 18.514 14.0381 17.5537ZM17.1875 20.4102C17.1875 19.4336 17.6758 18.9453 18.6523 18.9453C19.6289 18.9453 20.1172 19.4661 20.1172 20.5078C20.1172 21.4193 19.6289 21.875 18.6523 21.875C17.6758 21.875 17.1875 21.3867 17.1875 20.4102ZM18.6279 24.7559C18.6279 23.7956 19.1162 23.3154 20.0928 23.3154C21.0693 23.3154 21.5576 23.7956 21.5576 24.7559C21.5576 25.7487 21.0531 26.2451 20.0439 26.2451C19.0999 26.2451 18.6279 25.7487 18.6279 24.7559ZM19.0918 29.8584C19.0918 28.8818 19.5638 28.3936 20.5078 28.3936C21.5169 28.3936 22.0215 28.8818 22.0215 29.8584C22.0215 30.835 21.5169 31.3232 20.5078 31.3232C19.5638 31.3232 19.0918 30.835 19.0918 29.8584ZM12.7686 43.1885C12.7686 44.1813 12.2803 44.6777 11.3037 44.6777C10.3271 44.6777 9.83887 44.1813 9.83887 43.1885C9.83887 42.2282 10.3271 41.748 11.3037 41.748C12.2803 41.748 12.7686 42.2282 12.7686 43.1885ZM18.6279 34.9609C18.6279 33.9518 19.1162 33.4473 20.0928 33.4473C21.0693 33.4473 21.5576 33.9518 21.5576 34.9609C21.5576 35.9049 21.0693 36.377 20.0928 36.377C19.1162 36.377 18.6279 35.9049 18.6279 34.9609ZM14.0381 42.0898C14.0381 41.1621 14.5345 40.6982 15.5273 40.6982C16.4876 40.6982 16.9678 41.2028 16.9678 42.2119C16.9678 43.1559 16.4876 43.6279 15.5273 43.6279C14.5345 43.6279 14.0381 43.1152 14.0381 42.0898ZM17.1875 39.3555C17.1875 38.3464 17.6758 37.8418 18.6523 37.8418C19.6289 37.8418 20.1172 38.3464 20.1172 39.3555C20.1172 40.2995 19.6289 40.7715 18.6523 40.7715C17.6758 40.7715 17.1875 40.2995 17.1875 39.3555ZM8.59375 17.5537C8.59375 18.514 8.08919 18.9941 7.08008 18.9941C6.13607 18.9941 5.66406 18.514 5.66406 17.5537C5.66406 16.5609 6.13607 16.0645 7.08008 16.0645C8.08919 16.0645 8.59375 16.5609 8.59375 17.5537ZM5.41992 20.4102C5.41992 21.3867 4.93164 21.875 3.95508 21.875C2.97852 21.875 2.49023 21.4193 2.49023 20.5078C2.49023 19.4661 2.97852 18.9453 3.95508 18.9453C4.93164 18.9453 5.41992 19.4336 5.41992 20.4102ZM3.97949 24.7559C3.97949 25.7487 3.51562 26.2451 2.58789 26.2451C1.5625 26.2451 1.0498 25.7487 1.0498 24.7559C1.0498 23.7956 1.53809 23.3154 2.51465 23.3154C3.49121 23.3154 3.97949 23.7956 3.97949 24.7559ZM3.51562 29.8584C3.51562 30.835 3.04362 31.3232 2.09961 31.3232C1.09049 31.3232 0.585938 30.835 0.585938 29.8584C0.585938 28.8818 1.09049 28.3936 2.09961 28.3936C3.04362 28.3936 3.51562 28.8818 3.51562 29.8584ZM3.97949 34.9609C3.97949 35.9049 3.49121 36.377 2.51465 36.377C1.53809 36.377 1.0498 35.9049 1.0498 34.9609C1.0498 33.9518 1.53809 33.4473 2.51465 33.4473C3.49121 33.4473 3.97949 33.9518 3.97949 34.9609ZM8.59375 42.0898C8.59375 43.1152 8.08919 43.6279 7.08008 43.6279C6.13607 43.6279 5.66406 43.1559 5.66406 42.2119C5.66406 41.2028 6.13607 40.6982 7.08008 40.6982C8.08919 40.6982 8.59375 41.1621 8.59375 42.0898ZM5.41992 39.3555C5.41992 40.2995 4.93164 40.7715 3.95508 40.7715C2.97852 40.7715 2.49023 40.2995 2.49023 39.3555C2.49023 38.3464 2.97852 37.8418 3.95508 37.8418C4.93164 37.8418 5.41992 38.3464 5.41992 39.3555ZM20.8252 9.93652H5.51758C4.54102 9.93652 3.7028 9.83887 3.00293 9.64355C2.30306 9.43197 1.7334 9.15527 1.29395 8.81348C0.854492 8.4554 0.528971 8.0485 0.317383 7.59277C0.105794 7.12077 0 6.62435 0 6.10352C0 5.20833 0.211589 4.42708 0.634766 3.75977C1.05794 3.09245 1.6276 2.53906 2.34375 2.09961C3.07617 1.64388 3.92253 1.31022 4.88281 1.09863C5.8431 0.870768 6.86035 0.756836 7.93457 0.756836C9.26921 0.756836 10.4899 0.895182 11.5967 1.17188C12.7197 1.43229 13.7451 1.80664 14.6729 2.29492C14.9007 1.6276 15.3239 1.08236 15.9424 0.65918C16.5609 0.219727 17.2852 0 18.1152 0C18.75 0 19.3115 0.105794 19.7998 0.317383C20.2881 0.512695 20.695 0.789388 21.0205 1.14746C21.346 1.50553 21.5902 1.92871 21.7529 2.41699C21.9157 2.889 21.9971 3.40169 21.9971 3.95508C21.9971 4.6875 21.818 5.37109 21.46 6.00586C21.1019 6.64062 20.5322 7.13704 19.751 7.49512C20.1742 8.26009 20.5322 9.07389 20.8252 9.93652ZM14.7949 7.73926C14.6484 7.41374 14.4043 6.9987 14.0625 6.49414C13.737 5.97331 13.3057 5.47689 12.7686 5.00488C12.2314 4.5166 11.5967 4.10156 10.8643 3.75977C10.1481 3.40169 9.34245 3.22266 8.44727 3.22266C7.91016 3.22266 7.45443 3.2959 7.08008 3.44238C6.72201 3.58887 6.4209 3.77604 6.17676 4.00391C5.94889 4.23177 5.77799 4.48405 5.66406 4.76074C5.56641 5.02116 5.51758 5.28158 5.51758 5.54199C5.51758 5.78613 5.55827 6.03841 5.63965 6.29883C5.72103 6.54297 5.86751 6.77897 6.0791 7.00684C6.30697 7.21842 6.60807 7.39746 6.98242 7.54395C7.35677 7.67415 7.82878 7.73926 8.39844 7.73926H14.7949ZM19.3359 3.95508C19.3359 3.48307 19.2057 3.09245 18.9453 2.7832C18.7012 2.47396 18.3919 2.31934 18.0176 2.31934C17.6758 2.31934 17.3991 2.47396 17.1875 2.7832C16.9922 3.07617 16.8783 3.40983 16.8457 3.78418C17.1224 4.01204 17.3828 4.26432 17.627 4.54102C17.8874 4.81771 18.1315 5.10254 18.3594 5.39551C18.6198 5.31413 18.8477 5.16764 19.043 4.95605C19.2383 4.74447 19.3359 4.41081 19.3359 3.95508Z" fill="#0F1729"/>
</svg>
