<svg width="50" height="40" viewBox="0 0 50 40" fill="none" xmlns="http://www.w3.org/2000/svg">
<path d="M22.2393 21.9902C22.2393 22.7812 22.1074 23.4551 21.8438 24.0117C21.5898 24.5684 21.2578 25.0322 20.8477 25.4033C20.4375 25.7744 19.9834 26.0674 19.4854 26.2822C18.9971 26.4971 18.5137 26.6582 18.0352 26.7656C17.5566 26.8633 17.1172 26.9268 16.7168 26.9561C16.3262 26.9854 16.0283 27 15.8232 27C15.6182 27 15.3203 26.9951 14.9297 26.9854C14.5391 26.9658 14.1143 26.9121 13.6553 26.8242C13.1963 26.7266 12.7227 26.5801 12.2344 26.3848C11.7461 26.1895 11.3066 25.9111 10.916 25.5498C10.5254 25.1885 10.2031 24.7295 9.94922 24.1729C9.69531 23.6064 9.56836 22.9131 9.56836 22.0928V17.6104C9.56836 17.21 9.47559 16.8828 9.29004 16.6289C9.11426 16.375 8.88965 16.1748 8.61621 16.0283C8.34277 15.8818 8.04004 15.7842 7.70801 15.7354C7.37598 15.6768 7.06348 15.6475 6.77051 15.6475C6.45801 15.6475 6.14551 15.6816 5.83301 15.75C5.52051 15.8184 5.2373 15.9355 4.9834 16.1016C4.73926 16.2578 4.53418 16.4727 4.36816 16.7461C4.21191 17.0098 4.13379 17.3467 4.13379 17.7568V20.6719C4.31934 20.5352 4.52441 20.4277 4.74902 20.3496C4.9834 20.2715 5.24219 20.2324 5.52539 20.2324C5.82812 20.2324 6.11133 20.2812 6.375 20.3789C6.64844 20.4668 6.88281 20.5986 7.07812 20.7744C7.2832 20.9502 7.43945 21.1699 7.54688 21.4336C7.66406 21.6875 7.72266 21.9805 7.72266 22.3125C7.72266 22.8105 7.57617 23.333 7.2832 23.8799C7 24.4268 6.56055 24.9346 5.96484 25.4033C5.37891 25.8623 4.63184 26.2432 3.72363 26.5459C2.8252 26.8486 1.75586 27 0.515625 27V18.0938C0.515625 17.7129 0.564453 17.3662 0.662109 17.0537C0.769531 16.7412 0.911133 16.4629 1.08691 16.2188C1.27246 15.9746 1.4873 15.7598 1.73145 15.5742C1.97559 15.3887 2.23926 15.2227 2.52246 15.0762C2.31738 14.998 2.11719 14.915 1.92188 14.8271C1.72656 14.7295 1.55566 14.627 1.40918 14.5195C1.2627 14.4023 1.14551 14.2803 1.05762 14.1533C0.969727 14.0166 0.925781 13.875 0.925781 13.7285C0.925781 13.6016 0.969727 13.4502 1.05762 13.2744C1.15527 13.0986 1.27246 12.9229 1.40918 12.7471C1.5459 12.5615 1.69238 12.3809 1.84863 12.2051C2.00488 12.0293 2.14648 11.873 2.27344 11.7363L4.70508 9.14355C4.95898 8.87012 5.16895 8.7041 5.33496 8.64551C5.51074 8.57715 5.68652 8.54297 5.8623 8.54297C6.03809 8.54297 6.19434 8.58691 6.33105 8.6748C6.47754 8.75293 6.60449 8.85547 6.71191 8.98242C6.8291 9.10938 6.93164 9.25098 7.01953 9.40723C7.11719 9.56348 7.20508 9.71484 7.2832 9.86133C7.36133 10.0078 7.43457 10.125 7.50293 10.2129C7.58105 10.291 7.6543 10.3496 7.72266 10.3887C7.79102 10.4277 7.84961 10.4521 7.89844 10.4619C7.95703 10.4717 8.00586 10.4766 8.04492 10.4766C8.07422 10.4766 8.11816 10.4717 8.17676 10.4619C8.23535 10.4521 8.29395 10.4229 8.35254 10.374C8.4209 10.3154 8.48438 10.2275 8.54297 10.1104C8.60156 9.99316 8.65039 9.82227 8.68945 9.59766C8.96289 9.82227 9.17285 10.0615 9.31934 10.3154C9.47559 10.5693 9.55371 10.8965 9.55371 11.2969C9.55371 11.4922 9.50977 11.6924 9.42188 11.8975C9.33398 12.1025 9.20215 12.2881 9.02637 12.4541C8.85059 12.6201 8.62598 12.7617 8.35254 12.8789C8.0791 12.9863 7.76172 13.04 7.40039 13.04C7.23438 13.04 7.05859 13.0254 6.87305 12.9961C6.69727 12.9668 6.51172 12.9033 6.31641 12.8057C6.12109 12.708 5.9209 12.5664 5.71582 12.3809C5.52051 12.1953 5.33008 11.9463 5.14453 11.6338L3.92871 13.0107C3.90918 13.0303 3.87012 13.0742 3.81152 13.1426C3.75293 13.2109 3.68457 13.2891 3.60645 13.377C3.53809 13.4648 3.47461 13.5527 3.41602 13.6406C3.36719 13.7188 3.34277 13.7773 3.34277 13.8164C3.34277 13.9922 3.44043 14.1338 3.63574 14.2412C3.84082 14.3389 4.08984 14.4219 4.38281 14.4902C4.8418 14.4023 5.27637 14.3438 5.68652 14.3145C6.10645 14.2754 6.46777 14.2559 6.77051 14.2559C7.06348 14.2559 7.4248 14.2705 7.85449 14.2998C8.28418 14.3291 8.7334 14.3926 9.20215 14.4902C9.68066 14.5879 10.1543 14.7246 10.623 14.9004C11.1016 15.0664 11.5312 15.291 11.9121 15.5742C12.293 15.8574 12.6006 16.209 12.835 16.6289C13.0693 17.0391 13.1865 17.5273 13.1865 18.0938V22.8984C13.1865 23.4453 13.2695 23.8945 13.4355 24.2461C13.6016 24.5977 13.8115 24.876 14.0654 25.0811C14.3291 25.2764 14.6123 25.4131 14.915 25.4912C15.2275 25.5693 15.5303 25.6084 15.8232 25.6084C16.1357 25.6084 16.458 25.5645 16.79 25.4766C17.1221 25.3887 17.4199 25.2373 17.6836 25.0225C17.957 24.8076 18.1816 24.5293 18.3574 24.1875C18.5332 23.8457 18.6211 23.416 18.6211 22.8984V16.79C18.6211 16.5557 18.5869 16.3604 18.5186 16.2041C18.46 16.0479 18.377 15.9209 18.2695 15.8232C18.1621 15.7256 18.0352 15.6523 17.8887 15.6035C17.752 15.5547 17.6104 15.5156 17.4639 15.4863C17.2002 15.4375 16.9414 15.3838 16.6875 15.3252C16.4434 15.2568 16.2188 15.1738 16.0137 15.0762C15.8184 14.9785 15.6572 14.8613 15.5303 14.7246C15.4131 14.5781 15.3545 14.3926 15.3545 14.168C15.3545 14.041 15.3984 13.8896 15.4863 13.7139C15.584 13.5381 15.7012 13.3623 15.8379 13.1865C15.9746 13.001 16.1211 12.8203 16.2773 12.6445C16.4336 12.4688 16.5752 12.3125 16.7021 12.1758L19.5293 9.14355C19.7832 8.87012 19.998 8.7041 20.1738 8.64551C20.3496 8.57715 20.5254 8.54297 20.7012 8.54297C20.877 8.54297 21.0332 8.58691 21.1699 8.6748C21.3164 8.75293 21.4434 8.85547 21.5508 8.98242C21.668 9.10938 21.7705 9.25098 21.8584 9.40723C21.9561 9.56348 22.0439 9.71484 22.1221 9.86133C22.2002 10.0078 22.2734 10.125 22.3418 10.2129C22.4199 10.291 22.4883 10.3496 22.5469 10.3887C22.6152 10.4277 22.6738 10.4521 22.7227 10.4619C22.7812 10.4717 22.8301 10.4766 22.8691 10.4766C22.9082 10.4766 22.957 10.4717 23.0156 10.4619C23.0742 10.4521 23.1328 10.4229 23.1914 10.374C23.2598 10.3154 23.3232 10.2275 23.3818 10.1104C23.4404 9.99316 23.4893 9.82227 23.5283 9.59766C23.8018 9.82227 24.0117 10.0615 24.1582 10.3154C24.3145 10.5693 24.3926 10.8965 24.3926 11.2969C24.3926 11.4922 24.3486 11.6924 24.2607 11.8975C24.1729 12.1025 24.041 12.2881 23.8652 12.4541C23.6895 12.6201 23.4648 12.7617 23.1914 12.8789C22.918 12.9863 22.6006 13.04 22.2393 13.04C22.0732 13.04 21.8975 13.0254 21.7119 12.9961C21.5361 12.9668 21.3457 12.9033 21.1406 12.8057C20.9453 12.708 20.7451 12.5664 20.54 12.3809C20.3447 12.1953 20.1543 11.9463 19.9688 11.6338L18.7676 13.0107C18.7383 13.0498 18.7041 13.0938 18.665 13.1426C18.6357 13.1914 18.6211 13.2598 18.6211 13.3477C18.6211 13.4844 18.6992 13.582 18.8555 13.6406C19.0117 13.6992 19.1875 13.748 19.3828 13.7871C19.6758 13.8457 19.9883 13.9287 20.3203 14.0361C20.6523 14.1338 20.96 14.2803 21.2432 14.4756C21.5361 14.6709 21.7754 14.9248 21.9609 15.2373C22.1465 15.5498 22.2393 15.9453 22.2393 16.4238V21.9902ZM4.76367 21.5508C4.64648 21.5508 4.5293 21.5947 4.41211 21.6826C4.29492 21.7607 4.20215 21.8682 4.13379 22.0049V24.6416C4.20215 24.6123 4.30957 24.5488 4.45605 24.4512C4.6123 24.3438 4.76367 24.2021 4.91016 24.0264C5.06641 23.8506 5.20312 23.6406 5.32031 23.3965C5.4375 23.1426 5.49609 22.8545 5.49609 22.5322C5.49609 22.3271 5.47168 22.1611 5.42285 22.0342C5.38379 21.8975 5.3252 21.7949 5.24707 21.7266C5.17871 21.6582 5.10059 21.6143 5.0127 21.5947C4.93457 21.5654 4.85156 21.5508 4.76367 21.5508ZM18.6504 4.83691C18.5625 4.6416 18.4209 4.39258 18.2256 4.08984C18.0205 3.77734 17.7568 3.47949 17.4346 3.19629C17.1123 2.90332 16.7363 2.6543 16.3066 2.44922C15.8672 2.23437 15.3789 2.12695 14.8418 2.12695C14.5195 2.12695 14.251 2.1709 14.0361 2.25879C13.8115 2.34668 13.6309 2.45898 13.4941 2.5957C13.3477 2.73242 13.2451 2.88379 13.1865 3.0498C13.1182 3.20605 13.084 3.3623 13.084 3.51855C13.084 3.66504 13.1084 3.81641 13.1572 3.97266C13.2061 4.11914 13.2988 4.26074 13.4355 4.39746C13.5625 4.52441 13.7383 4.63184 13.9629 4.71973C14.1875 4.79785 14.4707 4.83691 14.8125 4.83691H18.6504ZM13.084 6.15527C12.498 6.15527 11.9951 6.09668 11.5752 5.97949C11.1553 5.85254 10.8135 5.68652 10.5498 5.48145C10.2861 5.2666 10.0908 5.02246 9.96387 4.74902C9.83691 4.46582 9.77344 4.16797 9.77344 3.85547C9.77344 3.31836 9.90039 2.84961 10.1543 2.44922C10.4082 2.04883 10.7549 1.7168 11.1943 1.45312C11.624 1.17969 12.127 0.979492 12.7031 0.852539C13.2793 0.71582 13.8896 0.647461 14.5342 0.647461C15.5693 0.647461 16.5117 0.789063 17.3613 1.07227C18.2012 1.35547 18.9482 1.74609 19.6025 2.24414C20.2471 2.74219 20.7939 3.32812 21.2432 4.00195C21.6826 4.66602 22.0244 5.38379 22.2686 6.15527H13.084ZM31.585 22.8984C31.585 23.416 31.6729 23.8457 31.8486 24.1875C32.0244 24.5293 32.2441 24.8076 32.5078 25.0225C32.7812 25.2373 33.084 25.3887 33.416 25.4766C33.748 25.5645 34.0703 25.6084 34.3828 25.6084C34.6758 25.6084 34.9736 25.5693 35.2764 25.4912C35.5889 25.4131 35.8721 25.2764 36.126 25.0811C36.3896 24.876 36.6045 24.5977 36.7705 24.2461C36.9365 23.8945 37.0195 23.4453 37.0195 22.8984V12.3955C37.0195 11.8291 37.1367 11.3408 37.3711 10.9307C37.6055 10.5107 37.9131 10.1592 38.2939 9.87598C38.6748 9.59277 39.0996 9.36816 39.5684 9.20215C40.0469 9.02637 40.5205 8.88965 40.9893 8.79199C41.4678 8.69434 41.9219 8.63086 42.3516 8.60156C42.7812 8.57227 43.1426 8.55762 43.4355 8.55762C43.7383 8.55762 44.1045 8.57227 44.5342 8.60156C44.9639 8.63086 45.4082 8.69434 45.8672 8.79199C46.3359 8.88965 46.7949 9.02637 47.2441 9.20215C47.7031 9.36816 48.1133 9.59277 48.4746 9.87598C48.8359 10.1592 49.1289 10.5107 49.3535 10.9307C49.5781 11.3408 49.6904 11.8291 49.6904 12.3955V27H46.0723V12.0586C46.0723 11.6582 45.9893 11.3213 45.8232 11.0479C45.667 10.7744 45.4619 10.5596 45.208 10.4033C44.9639 10.2373 44.6807 10.1201 44.3584 10.0518C44.0459 9.9834 43.7383 9.94922 43.4355 9.94922C43.1426 9.94922 42.8301 9.97852 42.498 10.0371C42.1758 10.0859 41.873 10.1836 41.5898 10.3301C41.3164 10.4766 41.0869 10.6768 40.9014 10.9307C40.7256 11.1846 40.6377 11.5117 40.6377 11.9121V22.0928C40.6377 22.9131 40.5107 23.6064 40.2568 24.1729C40.0029 24.7295 39.6807 25.1885 39.29 25.5498C38.8994 25.9111 38.46 26.1895 37.9717 26.3848C37.4834 26.5801 37.0098 26.7266 36.5508 26.8242C36.0918 26.9121 35.667 26.9658 35.2764 26.9854C34.8857 26.9951 34.5879 27 34.3828 27C34.1777 27 33.875 26.9854 33.4746 26.9561C33.084 26.9268 32.6494 26.8633 32.1709 26.7656C31.6924 26.6582 31.2041 26.4971 30.7061 26.2822C30.2178 26.0674 29.7686 25.7744 29.3584 25.4033C28.9482 25.0322 28.6113 24.5684 28.3477 24.0117C28.0938 23.4551 27.9668 22.7812 27.9668 21.9902V16.79C27.9668 16.5557 27.9326 16.3604 27.8643 16.2041C27.8057 16.0479 27.7227 15.9209 27.6152 15.8232C27.5078 15.7256 27.3809 15.6523 27.2344 15.6035C27.0977 15.5547 26.9561 15.5156 26.8096 15.4863C26.5459 15.4375 26.2871 15.3838 26.0332 15.3252C25.7891 15.2568 25.5645 15.1738 25.3594 15.0762C25.1641 14.9785 25.0029 14.8613 24.876 14.7246C24.7588 14.5781 24.7002 14.3926 24.7002 14.168C24.7002 14.041 24.7441 13.8896 24.832 13.7139C24.9297 13.5381 25.0469 13.3623 25.1836 13.1865C25.3203 13.001 25.4668 12.8203 25.623 12.6445C25.7793 12.4688 25.9209 12.3125 26.0479 12.1758L28.875 9.14355C29.1289 8.87012 29.3438 8.7041 29.5195 8.64551C29.6953 8.57715 29.8711 8.54297 30.0469 8.54297C30.2227 8.54297 30.3789 8.58691 30.5156 8.6748C30.6621 8.75293 30.7891 8.85547 30.8965 8.98242C31.0137 9.10938 31.1162 9.25098 31.2041 9.40723C31.3018 9.56348 31.3896 9.71484 31.4678 9.86133C31.5459 10.0078 31.6191 10.125 31.6875 10.2129C31.7656 10.291 31.834 10.3496 31.8926 10.3887C31.9609 10.4277 32.0195 10.4521 32.0684 10.4619C32.127 10.4717 32.1758 10.4766 32.2148 10.4766C32.2539 10.4766 32.3027 10.4717 32.3613 10.4619C32.4199 10.4521 32.4785 10.4229 32.5371 10.374C32.6055 10.3154 32.6689 10.2275 32.7275 10.1104C32.7861 9.99316 32.835 9.82227 32.874 9.59766C33.1475 9.82227 33.3574 10.0615 33.5039 10.3154C33.6602 10.5693 33.7383 10.8965 33.7383 11.2969C33.7383 11.4922 33.6943 11.6924 33.6064 11.8975C33.5186 12.1025 33.3867 12.2881 33.2109 12.4541C33.0352 12.6201 32.8105 12.7617 32.5371 12.8789C32.2637 12.9863 31.9463 13.04 31.585 13.04C31.4189 13.04 31.2432 13.0254 31.0576 12.9961C30.8818 12.9668 30.6914 12.9033 30.4863 12.8057C30.291 12.708 30.0908 12.5664 29.8857 12.3809C29.6904 12.1953 29.5 11.9463 29.3145 11.6338L28.1133 13.0107C28.084 13.0498 28.0498 13.0938 28.0107 13.1426C27.9814 13.1914 27.9668 13.2598 27.9668 13.3477C27.9668 13.4844 28.0449 13.582 28.2012 13.6406C28.3574 13.6992 28.5332 13.748 28.7285 13.7871C29.0215 13.8457 29.334 13.9287 29.666 14.0361C29.998 14.1338 30.3057 14.2803 30.5889 14.4756C30.8818 14.6709 31.1211 14.9248 31.3066 15.2373C31.4922 15.5498 31.585 15.9453 31.585 16.4238V22.8984ZM42.6885 38.3086C43.2842 38.3086 43.8066 38.1621 44.2559 37.8691C44.6953 37.5859 45.0664 37.2002 45.3691 36.7119C45.6621 36.2334 45.8867 35.6768 46.043 35.042C46.1895 34.4072 46.2627 33.748 46.2627 33.0645V31.834C46.1455 31.9512 46.0186 32.0879 45.8818 32.2441C45.7451 32.4102 45.6084 32.5713 45.4717 32.7275C45.2178 33.0107 44.9346 33.3184 44.6221 33.6504C44.2998 33.9824 43.9385 34.3096 43.5381 34.6318C43.1377 34.9639 42.6885 35.2764 42.1904 35.5693C41.6826 35.8623 41.1162 36.1113 40.4912 36.3164L40.667 36.2871C40.667 36.4141 40.7012 36.5898 40.7695 36.8145C40.8281 37.0391 40.9355 37.2588 41.0918 37.4736C41.248 37.6982 41.458 37.8936 41.7217 38.0596C41.9756 38.2256 42.2979 38.3086 42.6885 38.3086ZM42.5713 39.7734C41.8975 39.7734 41.3115 39.6953 40.8135 39.5391C40.3057 39.3828 39.8711 39.1729 39.5098 38.9092C39.1484 38.6553 38.8506 38.3574 38.6162 38.0156C38.3721 37.6836 38.1816 37.3418 38.0449 36.9902C37.9082 36.6387 37.8154 36.292 37.7666 35.9502C37.708 35.6084 37.6787 35.2959 37.6787 35.0127C38.4209 35.0127 39.1143 34.8857 39.7588 34.6318C40.4033 34.3877 41.0088 34.0703 41.5752 33.6797C42.1416 33.2891 42.6738 32.8545 43.1719 32.376C43.6602 31.8975 44.1289 31.4287 44.5781 30.9697C44.8809 30.6475 45.1836 30.3398 45.4863 30.0469C45.7793 29.7539 46.0674 29.5 46.3506 29.2852C46.6338 29.0703 46.917 28.8994 47.2002 28.7725C47.4834 28.6455 47.7715 28.582 48.0645 28.582H49.251V32.7275C49.251 33.5967 49.1484 34.4512 48.9434 35.291C48.7285 36.1406 48.3672 36.8975 47.8594 37.5615C47.3418 38.2256 46.6582 38.7578 45.8086 39.1582C44.9492 39.5684 43.8701 39.7734 42.5713 39.7734Z" fill="#0F1729"/>
</svg>
