<svg width="31" height="31" viewBox="0 0 31 31" fill="none" xmlns="http://www.w3.org/2000/svg">
<path d="M5.44434 13.7451C5.44434 13.3545 5.38737 13.029 5.27344 12.7686C5.17578 12.5081 5.03744 12.2965 4.8584 12.1338C4.67936 11.971 4.46777 11.849 4.22363 11.7676C3.99577 11.6862 3.75977 11.6211 3.51562 11.5723C3.07617 11.4909 2.64486 11.4014 2.22168 11.3037C1.81478 11.1898 1.44043 11.0514 1.09863 10.8887C0.773112 10.7259 0.504557 10.5306 0.292969 10.3027C0.0976562 10.0586 0 9.74935 0 9.375C0 9.16341 0.0732422 8.91113 0.219727 8.61816C0.382487 8.3252 0.577799 8.03223 0.805664 7.73926C1.03353 7.43001 1.27767 7.12891 1.53809 6.83594C1.7985 6.54297 2.03451 6.28255 2.24609 6.05469L6.95801 1.00098C7.38119 0.545247 7.73926 0.268555 8.03223 0.170898C8.3252 0.0569661 8.61816 0 8.91113 0C9.2041 0 9.46452 0.0732422 9.69238 0.219727C9.93652 0.349935 10.1481 0.520833 10.3271 0.732422C10.5225 0.94401 10.6934 1.18001 10.8398 1.44043C11.0026 1.70085 11.1491 1.95312 11.2793 2.19727C11.4095 2.44141 11.5316 2.63672 11.6455 2.7832C11.7757 2.91341 11.8896 3.01107 11.9873 3.07617C12.1012 3.14128 12.1989 3.18197 12.2803 3.19824C12.3779 3.21452 12.4593 3.22266 12.5244 3.22266C12.5895 3.22266 12.6709 3.21452 12.7686 3.19824C12.8662 3.18197 12.9639 3.13314 13.0615 3.05176C13.1755 2.9541 13.2812 2.80762 13.3789 2.6123C13.4766 2.41699 13.5579 2.13216 13.623 1.75781C14.0788 2.13216 14.4287 2.53092 14.6729 2.9541C14.9333 3.37728 15.0635 3.92253 15.0635 4.58984C15.0635 4.91536 14.9902 5.24902 14.8438 5.59082C14.6973 5.93262 14.4775 6.24186 14.1846 6.51855C13.8916 6.79525 13.5173 7.03125 13.0615 7.22656C12.6058 7.4056 12.0768 7.49512 11.4746 7.49512C11.1979 7.49512 10.9049 7.4707 10.5957 7.42188C10.3027 7.37305 9.98535 7.26725 9.64355 7.10449C9.31803 6.94173 8.98438 6.70573 8.64258 6.39648C8.31706 6.08724 7.99967 5.6722 7.69043 5.15137L5.68848 7.44629C5.63965 7.51139 5.58268 7.58464 5.51758 7.66602C5.46875 7.7474 5.44434 7.86133 5.44434 8.00781C5.44434 8.23568 5.57454 8.39844 5.83496 8.49609C6.09538 8.59375 6.38835 8.67513 6.71387 8.74023C7.20215 8.83789 7.72298 8.97624 8.27637 9.15527C8.82975 9.31803 9.34245 9.56217 9.81445 9.8877C10.3027 10.2132 10.7015 10.6364 11.0107 11.1572C11.32 11.6781 11.4746 12.3372 11.4746 13.1348V15.0391H20.5322V13.7451C20.5322 13.3545 20.4753 13.029 20.3613 12.7686C20.2637 12.5081 20.1253 12.2965 19.9463 12.1338C19.7673 11.971 19.5557 11.849 19.3115 11.7676C19.0837 11.6862 18.8477 11.6211 18.6035 11.5723C18.1641 11.4909 17.7327 11.4014 17.3096 11.3037C16.9027 11.1898 16.5283 11.0514 16.1865 10.8887C15.861 10.7259 15.5924 10.5306 15.3809 10.3027C15.1855 10.0586 15.0879 9.74935 15.0879 9.375C15.0879 9.16341 15.1611 8.91113 15.3076 8.61816C15.4704 8.3252 15.6657 8.03223 15.8936 7.73926C16.1214 7.43001 16.3656 7.12891 16.626 6.83594C16.8864 6.54297 17.1224 6.28255 17.334 6.05469L22.0459 1.00098C22.4691 0.545247 22.8271 0.268555 23.1201 0.170898C23.4131 0.0569661 23.7061 0 23.999 0C24.292 0 24.5524 0.0732422 24.7803 0.219727C25.0244 0.349935 25.236 0.520833 25.415 0.732422C25.6104 0.94401 25.7812 1.18001 25.9277 1.44043C26.0905 1.70085 26.237 1.95312 26.3672 2.19727C26.4974 2.44141 26.6195 2.63672 26.7334 2.7832C26.8636 2.91341 26.9775 3.01107 27.0752 3.07617C27.1891 3.14128 27.2868 3.18197 27.3682 3.19824C27.4658 3.21452 27.5472 3.22266 27.6123 3.22266C27.6774 3.22266 27.7588 3.21452 27.8564 3.19824C27.9541 3.18197 28.0518 3.13314 28.1494 3.05176C28.2633 2.9541 28.3691 2.80762 28.4668 2.6123C28.5645 2.41699 28.6458 2.13216 28.7109 1.75781C29.1667 2.13216 29.5166 2.53092 29.7607 2.9541C30.0212 3.37728 30.1514 3.92253 30.1514 4.58984C30.1514 4.91536 30.0781 5.24902 29.9316 5.59082C29.7852 5.93262 29.5654 6.24186 29.2725 6.51855C28.9795 6.79525 28.6051 7.03125 28.1494 7.22656C27.6937 7.4056 27.1647 7.49512 26.5625 7.49512C26.2858 7.49512 25.9928 7.4707 25.6836 7.42188C25.3906 7.37305 25.0732 7.26725 24.7314 7.10449C24.4059 6.94173 24.0723 6.70573 23.7305 6.39648C23.4049 6.08724 23.0876 5.6722 22.7783 5.15137L20.7764 7.44629C20.7275 7.51139 20.6706 7.58464 20.6055 7.66602C20.5566 7.7474 20.5322 7.86133 20.5322 8.00781C20.5322 8.23568 20.6624 8.39844 20.9229 8.49609C21.1833 8.59375 21.4762 8.67513 21.8018 8.74023C22.29 8.83789 22.8109 8.97624 23.3643 9.15527C23.9176 9.31803 24.4303 9.56217 24.9023 9.8877C25.3906 10.2132 25.7894 10.6364 26.0986 11.1572C26.4079 11.6781 26.5625 12.3372 26.5625 13.1348V22.583C26.5625 23.9502 26.3509 25.1058 25.9277 26.0498C25.5046 26.9775 24.9674 27.7425 24.3164 28.3447C23.6654 28.9469 22.9329 29.4108 22.1191 29.7363C21.3053 30.0618 20.516 30.306 19.751 30.4688C18.986 30.6152 18.278 30.7048 17.627 30.7373C16.9759 30.7536 16.4795 30.7617 16.1377 30.7617C15.7959 30.7617 15.2913 30.7536 14.624 30.7373C13.973 30.7048 13.2487 30.6152 12.4512 30.4688C11.6536 30.306 10.8398 30.0618 10.0098 29.7363C9.19596 29.4108 8.44727 28.9469 7.76367 28.3447C7.08008 27.7425 6.51855 26.9775 6.0791 26.0498C5.65592 25.1058 5.44434 23.9583 5.44434 22.6074V13.7451ZM16.1377 28.4424C16.626 28.4424 17.1224 28.3773 17.627 28.2471C18.1478 28.1169 18.6198 27.889 19.043 27.5635C19.4824 27.2217 19.8405 26.7578 20.1172 26.1719C20.3939 25.5859 20.5322 24.8372 20.5322 23.9258V17.627H11.4746V23.9258C11.4746 24.7884 11.6211 25.5046 11.9141 26.0742C12.207 26.6439 12.5732 27.1077 13.0127 27.4658C13.4684 27.8239 13.973 28.0762 14.5264 28.2227C15.0798 28.3691 15.6169 28.4424 16.1377 28.4424Z" fill="#0F1729"/>
</svg>
