<svg width="22" height="46" viewBox="0 0 22 46" fill="none" xmlns="http://www.w3.org/2000/svg">
<path d="M12.1826 17.749C12.1826 18.7581 11.6943 19.2627 10.7178 19.2627C9.74121 19.2627 9.25293 18.7581 9.25293 17.749C9.25293 16.805 9.74121 16.333 10.7178 16.333C11.6943 16.333 12.1826 16.805 12.1826 17.749ZM13.4521 18.8477C13.4521 17.8548 13.9486 17.3584 14.9414 17.3584C15.9017 17.3584 16.3818 17.8548 16.3818 18.8477C16.3818 19.8079 15.9017 20.2881 14.9414 20.2881C13.9486 20.2881 13.4521 19.8079 13.4521 18.8477ZM16.6016 21.7041C16.6016 20.7275 17.0898 20.2393 18.0664 20.2393C19.043 20.2393 19.5312 20.7601 19.5312 21.8018C19.5312 22.7132 19.043 23.1689 18.0664 23.1689C17.0898 23.1689 16.6016 22.6807 16.6016 21.7041ZM18.042 26.0498C18.042 25.0895 18.5303 24.6094 19.5068 24.6094C20.4834 24.6094 20.9717 25.0895 20.9717 26.0498C20.9717 27.0426 20.4671 27.5391 19.458 27.5391C18.514 27.5391 18.042 27.0426 18.042 26.0498ZM18.5059 31.1523C18.5059 30.1758 18.9779 29.6875 19.9219 29.6875C20.931 29.6875 21.4355 30.1758 21.4355 31.1523C21.4355 32.1289 20.931 32.6172 19.9219 32.6172C18.9779 32.6172 18.5059 32.1289 18.5059 31.1523ZM12.1826 44.4824C12.1826 45.4753 11.6943 45.9717 10.7178 45.9717C9.74121 45.9717 9.25293 45.4753 9.25293 44.4824C9.25293 43.5221 9.74121 43.042 10.7178 43.042C11.6943 43.042 12.1826 43.5221 12.1826 44.4824ZM18.042 36.2549C18.042 35.2458 18.5303 34.7412 19.5068 34.7412C20.4834 34.7412 20.9717 35.2458 20.9717 36.2549C20.9717 37.1989 20.4834 37.6709 19.5068 37.6709C18.5303 37.6709 18.042 37.1989 18.042 36.2549ZM13.4521 43.3838C13.4521 42.4561 13.9486 41.9922 14.9414 41.9922C15.9017 41.9922 16.3818 42.4967 16.3818 43.5059C16.3818 44.4499 15.9017 44.9219 14.9414 44.9219C13.9486 44.9219 13.4521 44.4092 13.4521 43.3838ZM16.6016 40.6494C16.6016 39.6403 17.0898 39.1357 18.0664 39.1357C19.043 39.1357 19.5312 39.6403 19.5312 40.6494C19.5312 41.5934 19.043 42.0654 18.0664 42.0654C17.0898 42.0654 16.6016 41.5934 16.6016 40.6494ZM8.00781 18.8477C8.00781 19.8079 7.50326 20.2881 6.49414 20.2881C5.55013 20.2881 5.07812 19.8079 5.07812 18.8477C5.07812 17.8548 5.55013 17.3584 6.49414 17.3584C7.50326 17.3584 8.00781 17.8548 8.00781 18.8477ZM4.83398 21.7041C4.83398 22.6807 4.3457 23.1689 3.36914 23.1689C2.39258 23.1689 1.9043 22.7132 1.9043 21.8018C1.9043 20.7601 2.39258 20.2393 3.36914 20.2393C4.3457 20.2393 4.83398 20.7275 4.83398 21.7041ZM3.39355 26.0498C3.39355 27.0426 2.92969 27.5391 2.00195 27.5391C0.976562 27.5391 0.463867 27.0426 0.463867 26.0498C0.463867 25.0895 0.952148 24.6094 1.92871 24.6094C2.90527 24.6094 3.39355 25.0895 3.39355 26.0498ZM2.92969 31.1523C2.92969 32.1289 2.45768 32.6172 1.51367 32.6172C0.504557 32.6172 0 32.1289 0 31.1523C0 30.1758 0.504557 29.6875 1.51367 29.6875C2.45768 29.6875 2.92969 30.1758 2.92969 31.1523ZM3.39355 36.2549C3.39355 37.1989 2.90527 37.6709 1.92871 37.6709C0.952148 37.6709 0.463867 37.1989 0.463867 36.2549C0.463867 35.2458 0.952148 34.7412 1.92871 34.7412C2.90527 34.7412 3.39355 35.2458 3.39355 36.2549ZM8.00781 43.3838C8.00781 44.4092 7.50326 44.9219 6.49414 44.9219C5.55013 44.9219 5.07812 44.4499 5.07812 43.5059C5.07812 42.4967 5.55013 41.9922 6.49414 41.9922C7.50326 41.9922 8.00781 42.4561 8.00781 43.3838ZM4.83398 40.6494C4.83398 41.5934 4.3457 42.0654 3.36914 42.0654C2.39258 42.0654 1.9043 41.5934 1.9043 40.6494C1.9043 39.6403 2.39258 39.1357 3.36914 39.1357C4.3457 39.1357 4.83398 39.6403 4.83398 40.6494ZM13.7207 0V6.4209C13.7207 7.03939 13.5498 7.6416 13.208 8.22754C12.8825 8.7972 12.443 9.3099 11.8896 9.76562C11.3525 10.2051 10.734 10.5632 10.0342 10.8398C9.33431 11.1003 8.6263 11.2305 7.91016 11.2305V0H13.7207Z" fill="#0F1729"/>
</svg>
