<svg width="21" height="31" viewBox="0 0 21 31" fill="none" xmlns="http://www.w3.org/2000/svg">
<path d="M12.1094 30.7373C11.5723 30.7373 11.0026 30.6885 10.4004 30.5908C9.81445 30.4769 9.24479 30.3223 8.69141 30.127C8.13802 29.9154 7.62533 29.6712 7.15332 29.3945C6.69759 29.1016 6.32324 28.776 6.03027 28.418V30.7373H0V15.8936C0.748698 15.8936 1.48112 16.0319 2.19727 16.3086C2.92969 16.569 3.58073 16.9108 4.15039 17.334C4.72005 17.7409 5.17578 18.1885 5.51758 18.6768C5.85938 19.165 6.03027 19.6289 6.03027 20.0684V21.8994C6.03027 22.6969 6.14421 23.4863 6.37207 24.2676C6.59994 25.0326 6.92546 25.7243 7.34863 26.3428C7.78809 26.9613 8.30892 27.4658 8.91113 27.8564C9.51335 28.2308 10.1969 28.418 10.9619 28.418C11.4502 28.418 11.9385 28.3529 12.4268 28.2227C12.915 28.0924 13.3545 27.8564 13.7451 27.5146C14.1357 27.1729 14.4531 26.709 14.6973 26.123C14.9577 25.5371 15.0879 24.7965 15.0879 23.9014C15.0879 23.2666 14.8682 22.64 14.4287 22.0215C14.0055 21.403 13.4359 20.7845 12.7197 20.166C12.0199 19.5312 11.2142 18.8883 10.3027 18.2373C9.40755 17.5863 8.48796 16.9189 7.54395 16.2354C6.61621 15.5355 5.69661 14.8112 4.78516 14.0625C3.88997 13.3138 3.08431 12.5326 2.36816 11.7188C1.66829 10.8887 1.09863 10.026 0.65918 9.13086C0.236003 8.2194 0.0244141 7.25911 0.0244141 6.25C0.0244141 5.25716 0.211589 4.41895 0.585938 3.73535C0.976562 3.03548 1.47298 2.45768 2.0752 2.00195C2.69368 1.52995 3.38542 1.16374 4.15039 0.90332C4.91536 0.626628 5.68034 0.423177 6.44531 0.292969C7.22656 0.16276 7.96712 0.0813802 8.66699 0.0488281C9.36686 0.016276 9.96094 0 10.4492 0C10.9538 0 11.5641 0.0244141 12.2803 0.0732422C12.9964 0.12207 13.7451 0.227865 14.5264 0.390625C15.3076 0.553385 16.0726 0.78125 16.8213 1.07422C17.5863 1.35091 18.2699 1.72526 18.8721 2.19727C19.4743 2.66927 19.9626 3.25521 20.3369 3.95508C20.7113 4.63867 20.8984 5.45247 20.8984 6.39648V15.3564C19.222 15.3564 17.6921 15.1367 16.3086 14.6973C14.9414 14.2578 13.7614 13.6882 12.7686 12.9883C11.792 12.2721 11.0352 11.4746 10.498 10.5957C9.96094 9.70052 9.69238 8.81348 9.69238 7.93457C9.69238 5.72103 10.7178 4.61426 12.7686 4.61426C13.2406 4.61426 13.6637 4.67936 14.0381 4.80957C14.4287 4.93978 14.7786 5.11881 15.0879 5.34668C14.974 4.80957 14.7542 4.35384 14.4287 3.97949C14.1032 3.58887 13.7207 3.27148 13.2812 3.02734C12.8581 2.7832 12.3942 2.60417 11.8896 2.49023C11.4014 2.3763 10.9212 2.31934 10.4492 2.31934C9.96094 2.31934 9.44824 2.36816 8.91113 2.46582C8.37402 2.5472 7.8776 2.70996 7.42188 2.9541C6.96615 3.19824 6.58366 3.54004 6.27441 3.97949C5.98145 4.41895 5.83496 4.98047 5.83496 5.66406C5.83496 6.75456 6.04655 7.76367 6.46973 8.69141C6.90918 9.60286 7.47884 10.4574 8.17871 11.2549C8.89486 12.0524 9.70052 12.8011 10.5957 13.501C11.5072 14.2008 12.4268 14.8763 13.3545 15.5273C14.2985 16.1784 15.2181 16.8213 16.1133 17.4561C17.0247 18.0908 17.8304 18.75 18.5303 19.4336C19.2464 20.1009 19.8161 20.8008 20.2393 21.5332C20.6787 22.2656 20.8984 23.055 20.8984 23.9014C20.8984 24.8942 20.7438 25.7568 20.4346 26.4893C20.1416 27.2054 19.751 27.8239 19.2627 28.3447C18.7744 28.8493 18.2129 29.2562 17.5781 29.5654C16.9596 29.8747 16.3249 30.1188 15.6738 30.2979C15.0228 30.4769 14.3799 30.599 13.7451 30.6641C13.1266 30.7129 12.5814 30.7373 12.1094 30.7373ZM14.0381 6.83594C13.8916 6.83594 13.7451 6.86035 13.5986 6.90918C13.4684 6.94173 13.3464 7.01497 13.2324 7.12891C13.1185 7.24284 13.0208 7.4056 12.9395 7.61719C12.8743 7.82878 12.8418 8.11361 12.8418 8.47168C12.8418 8.94368 12.9313 9.36686 13.1104 9.74121C13.3057 10.0993 13.5254 10.4167 13.7695 10.6934C14.0299 10.9538 14.2822 11.1654 14.5264 11.3281C14.7868 11.4746 14.974 11.5804 15.0879 11.6455V7.59277C14.9902 7.36491 14.8438 7.18587 14.6484 7.05566C14.4531 6.90918 14.2497 6.83594 14.0381 6.83594Z" fill="#0F1729"/>
</svg>
