<svg width="24" height="36" viewBox="0 0 24 36" fill="none" xmlns="http://www.w3.org/2000/svg">
<path d="M10.0586 27.4414C10.1888 27.4414 10.3271 27.4251 10.4736 27.3926C10.6201 27.3438 10.7503 27.2624 10.8643 27.1484C10.9782 27.0345 11.0677 26.8717 11.1328 26.6602C11.2142 26.4323 11.2549 26.1475 11.2549 25.8057C11.2549 25.3337 11.1572 24.9268 10.9619 24.585C10.7666 24.2432 10.5387 23.9665 10.2783 23.7549C10.0179 23.527 9.75749 23.3561 9.49707 23.2422C9.25293 23.1283 9.08203 23.055 8.98438 23.0225V26.6846C9.09831 26.9124 9.25293 27.0996 9.44824 27.2461C9.64355 27.3763 9.847 27.4414 10.0586 27.4414ZM8.98438 7.20215C9.74935 6.55111 10.6364 6.03027 11.6455 5.63965C12.6709 5.23275 13.8835 5.0293 15.2832 5.0293C15.6901 5.0293 16.1784 5.05371 16.748 5.10254C17.334 5.15137 17.9443 5.25716 18.5791 5.41992C19.2301 5.58268 19.873 5.81869 20.5078 6.12793C21.1426 6.4209 21.7122 6.8278 22.2168 7.34863C22.7214 7.85319 23.1283 8.48796 23.4375 9.25293C23.763 10.0016 23.9258 10.9049 23.9258 11.9629V29.834C23.9258 30.7617 23.7305 31.5511 23.3398 32.2021C22.9655 32.8532 22.4691 33.3984 21.8506 33.8379C21.2484 34.2773 20.5648 34.6273 19.7998 34.8877C19.0348 35.1481 18.2617 35.3434 17.4805 35.4736C16.7155 35.6038 15.9831 35.6934 15.2832 35.7422C14.5833 35.7747 13.9893 35.791 13.501 35.791C12.9801 35.791 12.3617 35.7666 11.6455 35.7178C10.9456 35.6689 10.2051 35.5794 9.42383 35.4492C8.65885 35.3027 7.89388 35.0993 7.12891 34.8389C6.38021 34.5622 5.70475 34.2041 5.10254 33.7646C4.50033 33.3252 4.01204 32.7881 3.6377 32.1533C3.26335 31.5023 3.07617 30.7292 3.07617 29.834V20.4102C4.80143 20.4102 6.36393 20.5485 7.76367 20.8252C9.16341 21.1019 10.3516 21.5007 11.3281 22.0215C12.3047 22.5423 13.0534 23.1852 13.5742 23.9502C14.1113 24.7152 14.3799 25.5859 14.3799 26.5625C14.3799 27.474 14.1195 28.2227 13.5986 28.8086C13.0941 29.3783 12.3291 29.6631 11.3037 29.6631C10.8317 29.6631 10.4085 29.598 10.0342 29.4678C9.65983 29.3376 9.3099 29.1585 8.98438 28.9307V30.3467C8.98438 30.8512 9.13086 31.2988 9.42383 31.6895C9.73307 32.0801 10.1074 32.4056 10.5469 32.666C11.0026 32.9264 11.4909 33.1299 12.0117 33.2764C12.5488 33.4066 13.0452 33.4717 13.501 33.4717C13.9893 33.4717 14.502 33.4229 15.0391 33.3252C15.5762 33.2113 16.0726 33.0159 16.5283 32.7393C17.0003 32.4626 17.3828 32.0964 17.6758 31.6406C17.985 31.1686 18.1396 30.5664 18.1396 29.834V11.9629C18.1396 10.9701 18.0257 10.1725 17.7979 9.57031C17.57 8.9681 17.2689 8.50423 16.8945 8.17871C16.5365 7.85319 16.1296 7.6416 15.6738 7.54395C15.2344 7.43001 14.7949 7.37305 14.3555 7.37305C13.5742 7.37305 12.8581 7.54395 12.207 7.88574C11.556 8.22754 10.9863 8.71582 10.498 9.35059C10.026 9.98535 9.65169 10.7666 9.375 11.6943C9.11458 12.6058 8.98438 13.6393 8.98438 14.7949C7.69857 14.7949 6.66504 14.681 5.88379 14.4531C5.10254 14.209 4.50033 13.8672 4.07715 13.4277C3.67025 12.9883 3.40169 12.4512 3.27148 11.8164C3.14128 11.1816 3.07617 10.4736 3.07617 9.69238V5.0293C3.07617 4.80143 3.01107 4.60612 2.88086 4.44336C2.75065 4.2806 2.55534 4.19922 2.29492 4.19922C2.08333 4.19922 1.83105 4.26432 1.53809 4.39453C1.26139 4.52474 0.952148 4.73633 0.610352 5.0293C0.496419 4.89909 0.366211 4.69564 0.219727 4.41895C0.0732422 4.14225 0 3.81673 0 3.44238C0 2.79134 0.179036 2.24609 0.537109 1.80664C0.895182 1.36719 1.33464 1.01725 1.85547 0.756836C2.3763 0.480143 2.92969 0.284831 3.51562 0.170898C4.11784 0.0569661 4.65495 0 5.12695 0C5.64779 0 6.13607 0.0895182 6.5918 0.268555C7.0638 0.431315 7.47884 0.683594 7.83691 1.02539C8.19499 1.36719 8.47168 1.7985 8.66699 2.31934C8.87858 2.84017 8.98438 3.45866 8.98438 4.1748V7.20215Z" fill="#0F1729"/>
</svg>
