<svg width="21" height="34" viewBox="0 0 21 34" fill="none" xmlns="http://www.w3.org/2000/svg">
<path d="M4.27246 8.49609C4.48405 8.59375 4.71191 8.64258 4.95605 8.64258C5.16764 8.64258 5.38737 8.61003 5.61523 8.54492C5.8431 8.47982 6.04655 8.38216 6.22559 8.25195C6.40462 8.10547 6.55111 7.94271 6.66504 7.76367C6.77897 7.56836 6.83594 7.34863 6.83594 7.10449C6.83594 6.79525 6.79525 6.52669 6.71387 6.29883C6.64876 6.07096 6.55924 5.88379 6.44531 5.7373C6.34766 5.59082 6.23372 5.48503 6.10352 5.41992C5.98958 5.33854 5.89193 5.29785 5.81055 5.29785C5.66406 5.29785 5.5013 5.33854 5.32227 5.41992C5.14323 5.48503 4.97233 5.62337 4.80957 5.83496C4.66309 6.03027 4.53288 6.32324 4.41895 6.71387C4.32129 7.08822 4.27246 7.59277 4.27246 8.22754V8.49609ZM20.8496 7.05566C20.8496 8.48796 20.5973 9.74935 20.0928 10.8398C19.5882 11.9303 18.8639 12.8418 17.9199 13.5742C16.9922 14.3066 15.8529 14.86 14.502 15.2344C13.1673 15.6087 11.6699 15.7959 10.0098 15.7959C8.67513 15.7959 7.39746 15.6576 6.17676 15.3809C4.97233 15.0879 3.91439 14.6484 3.00293 14.0625C2.09147 13.4603 1.35905 12.6872 0.805664 11.7432C0.268555 10.7992 0 9.66797 0 8.34961C0 7.37305 0.154622 6.55111 0.463867 5.88379C0.789388 5.21647 1.19629 4.67122 1.68457 4.24805C2.17285 3.82487 2.70182 3.52376 3.27148 3.34473C3.85742 3.14941 4.41895 3.05176 4.95605 3.05176C5.72103 3.05176 6.39648 3.17383 6.98242 3.41797C7.56836 3.64583 8.05664 3.95508 8.44727 4.3457C8.83789 4.72005 9.13086 5.15137 9.32617 5.63965C9.53776 6.12793 9.64355 6.61621 9.64355 7.10449C9.64355 7.65788 9.53776 8.13802 9.32617 8.54492C9.11458 8.95182 8.84603 9.29362 8.52051 9.57031C8.19499 9.83073 7.82064 10.026 7.39746 10.1562C6.99056 10.2865 6.58366 10.3516 6.17676 10.3516C6.0791 10.3516 5.95703 10.3516 5.81055 10.3516C5.66406 10.3353 5.5013 10.3109 5.32227 10.2783C5.15951 10.2458 4.98861 10.2051 4.80957 10.1562C4.63053 10.0911 4.47591 10.0179 4.3457 9.93652C4.49219 10.5713 4.76074 11.1247 5.15137 11.5967C5.55827 12.0687 6.02214 12.4593 6.54297 12.7686C7.0638 13.0778 7.61719 13.3138 8.20312 13.4766C8.80534 13.623 9.38314 13.6963 9.93652 13.6963C11.499 13.6963 12.7441 13.1917 13.6719 12.1826C14.5996 11.1735 15.0635 9.75749 15.0635 7.93457C15.0635 6.55111 14.86 5.54199 14.4531 4.90723C14.0462 4.25619 13.5091 3.93066 12.8418 3.93066C12.6628 3.93066 12.3698 4.01204 11.9629 4.1748C11.556 4.33756 11.141 4.71191 10.7178 5.29785C10.5713 4.95605 10.4818 4.63867 10.4492 4.3457C10.4329 4.05273 10.4248 3.86556 10.4248 3.78418C10.4248 3.24707 10.5143 2.75065 10.6934 2.29492C10.8887 1.82292 11.1654 1.42415 11.5234 1.09863C11.8978 0.756836 12.3454 0.488281 12.8662 0.292969C13.4033 0.0976562 14.0137 0 14.6973 0C15.3809 0 16.0807 0.146484 16.7969 0.439453C17.5293 0.732422 18.1885 1.18001 18.7744 1.78223C19.3766 2.36816 19.873 3.10059 20.2637 3.97949C20.6543 4.8584 20.8496 5.88379 20.8496 7.05566ZM15.0635 17.4561H20.8496V33.8135H15.3564L10.4492 29.8584L5.51758 33.8135H0V17.4561H5.81055V29.3945L10.4492 25.9277L15.0635 29.4189V17.4561Z" fill="#0F1729"/>
</svg>
