<svg width="25" height="36" viewBox="0 0 25 36" fill="none" xmlns="http://www.w3.org/2000/svg">
<path d="M15.21 28.2959C15.21 27.1566 15.0228 26.3102 14.6484 25.7568C14.2904 25.1872 13.8672 24.9023 13.3789 24.9023C13.0371 24.9023 12.7279 25.0163 12.4512 25.2441C12.1908 25.472 12.0605 25.7568 12.0605 26.0986C12.0605 26.5218 12.1908 26.8473 12.4512 27.0752C12.7116 27.3031 13.0615 27.417 13.501 27.417C13.6475 27.417 13.8102 27.4007 13.9893 27.3682C14.1683 27.3356 14.3473 27.2949 14.5264 27.2461C14.5264 27.5065 14.4531 27.8076 14.3066 28.1494C14.1602 28.4912 13.9323 28.8167 13.623 29.126C13.3301 29.4352 12.9476 29.6956 12.4756 29.9072C12.0199 30.1188 11.4746 30.2246 10.8398 30.2246C10.498 30.2246 10.1562 30.1676 9.81445 30.0537C9.47266 29.9398 9.15527 29.7607 8.8623 29.5166C8.58561 29.2562 8.35775 28.9307 8.17871 28.54C7.99967 28.1494 7.91016 27.6774 7.91016 27.124C7.91016 26.4404 8.05664 25.8219 8.34961 25.2686C8.64258 24.7152 9.06575 24.2432 9.61914 23.8525C10.1725 23.4456 10.8317 23.1364 11.5967 22.9248C12.3779 22.7132 13.2568 22.6074 14.2334 22.6074C15.4378 22.6074 16.4632 22.7702 17.3096 23.0957C18.1559 23.4049 18.8395 23.82 19.3604 24.3408C19.8975 24.8617 20.2881 25.472 20.5322 26.1719C20.7764 26.8555 20.8984 27.5635 20.8984 28.2959C20.8984 29.4189 20.7275 30.3874 20.3857 31.2012C20.0602 31.9987 19.6126 32.6742 19.043 33.2275C18.4733 33.7809 17.8223 34.2285 17.0898 34.5703C16.3737 34.8958 15.6169 35.1562 14.8193 35.3516C14.0218 35.5306 13.2243 35.6527 12.4268 35.7178C11.6455 35.7666 10.9131 35.791 10.2295 35.791C9.46452 35.791 8.67513 35.7259 7.86133 35.5957C7.0638 35.4492 6.28255 35.2214 5.51758 34.9121C4.76888 34.6029 4.05273 34.2041 3.36914 33.7158C2.70182 33.2275 2.11589 32.6335 1.61133 31.9336C1.12305 31.2174 0.732422 30.3955 0.439453 29.4678C0.146484 28.54 0 27.4821 0 26.2939V25.7324C0 23.9258 0.358073 22.3877 1.07422 21.1182C1.80664 19.8486 2.75065 18.9128 3.90625 18.3105C3.28776 17.9688 2.73438 17.6188 2.24609 17.2607C1.77409 16.8864 1.36719 16.4632 1.02539 15.9912C0.69987 15.5192 0.447591 14.9658 0.268555 14.3311C0.0895182 13.68 0 12.915 0 12.0361C0 10.9782 0.154622 10.0749 0.463867 9.32617C0.773112 8.5612 1.17188 7.91829 1.66016 7.39746C2.16471 6.87663 2.72624 6.46159 3.34473 6.15234C3.97949 5.8431 4.6224 5.6071 5.27344 5.44434C5.92448 5.28158 6.55924 5.17578 7.17773 5.12695C7.79622 5.07812 8.33333 5.05371 8.78906 5.05371C9.55404 5.05371 10.262 5.11068 10.9131 5.22461C11.5641 5.33854 12.1582 5.48503 12.6953 5.66406C13.2324 5.8431 13.7126 6.04655 14.1357 6.27441C14.5589 6.50228 14.917 6.72201 15.21 6.93359V4.15039C15.21 3.43424 15.3076 2.81576 15.5029 2.29492C15.6982 1.77409 15.9668 1.34277 16.3086 1.00098C16.6504 0.65918 17.0492 0.406901 17.5049 0.244141C17.9769 0.0813802 18.4733 0 18.9941 0C19.4499 0 19.9707 0.0569661 20.5566 0.170898C21.1589 0.284831 21.7204 0.480143 22.2412 0.756836C22.7783 1.01725 23.2259 1.36719 23.584 1.80664C23.9421 2.24609 24.1211 2.79134 24.1211 3.44238C24.1211 3.81673 24.0479 4.14225 23.9014 4.41895C23.7549 4.69564 23.6165 4.89909 23.4863 5.0293C23.1608 4.73633 22.8516 4.52474 22.5586 4.39453C22.2819 4.26432 22.0378 4.19922 21.8262 4.19922C21.5495 4.19922 21.3379 4.2806 21.1914 4.44336C21.0612 4.60612 20.9961 4.80143 20.9961 5.0293V8.8623C20.9961 9.65983 20.9229 10.4167 20.7764 11.1328C20.6462 11.849 20.3695 12.4837 19.9463 13.0371C19.5394 13.5742 18.9453 14.0055 18.1641 14.3311C17.3991 14.6403 16.3737 14.7949 15.0879 14.7949C15.0879 13.8184 14.974 12.8825 14.7461 11.9873C14.5182 11.0921 14.1683 10.3027 13.6963 9.61914C13.2243 8.93555 12.6221 8.3903 11.8896 7.9834C11.1735 7.5765 10.319 7.37305 9.32617 7.37305C9.08203 7.37305 8.75651 7.42188 8.34961 7.51953C7.95898 7.61719 7.56836 7.82878 7.17773 8.1543C6.80339 8.46354 6.47786 8.92741 6.20117 9.5459C5.94076 10.1644 5.81055 10.9945 5.81055 12.0361C5.81055 13.7939 6.29069 15.0716 7.25098 15.8691C8.22754 16.6667 9.67611 17.0654 11.5967 17.0654H19.6289C19.6289 17.8467 19.4255 18.4814 19.0186 18.9697C18.6279 19.458 17.9932 19.7021 17.1143 19.7021H13.0371C12.207 19.7021 11.3607 19.8324 10.498 20.0928C9.63542 20.3369 8.85417 20.7357 8.1543 21.2891C7.4707 21.8262 6.90918 22.5342 6.46973 23.4131C6.03027 24.2757 5.81055 25.3174 5.81055 26.5381V28.3691C5.81055 29.3783 5.95703 30.2165 6.25 30.8838C6.55924 31.5348 6.94173 32.0557 7.39746 32.4463C7.85319 32.8206 8.34961 33.0892 8.88672 33.252C9.4401 33.3984 9.96094 33.4717 10.4492 33.4717C10.9049 33.4717 11.4095 33.3903 11.9629 33.2275C12.5163 33.0648 13.029 32.7881 13.501 32.3975C13.9893 32.0068 14.3962 31.4779 14.7217 30.8105C15.0472 30.1432 15.21 29.305 15.21 28.2959Z" fill="#0F1729"/>
</svg>
