<svg width="62" height="69" viewBox="0 0 62 69" fill="none" xmlns="http://www.w3.org/2000/svg">
<path d="M11.2549 34.7412C11.5641 34.5133 11.9059 34.3343 12.2803 34.2041C12.6709 34.0739 13.1022 34.0088 13.5742 34.0088C14.0788 34.0088 14.5508 34.0902 14.9902 34.2529C15.446 34.3994 15.8366 34.6191 16.1621 34.9121C16.5039 35.2051 16.7643 35.5713 16.9434 36.0107C17.1387 36.4339 17.2363 36.9222 17.2363 37.4756C17.2363 38.3057 17.0085 39.1764 16.5527 40.0879C16.097 40.9993 15.389 41.8457 14.4287 42.627C13.4847 43.3919 12.264 44.0267 10.7666 44.5312C9.28548 45.0358 7.51139 45.2881 5.44434 45.2881V27.7344C5.44434 27.4251 5.38737 27.181 5.27344 27.002C5.17578 26.8066 5.03744 26.652 4.8584 26.5381C4.67936 26.4242 4.47591 26.3346 4.24805 26.2695C4.02018 26.2044 3.78418 26.1475 3.54004 26.0986C3.10059 26.0173 2.66927 25.9277 2.24609 25.8301C1.82292 25.7161 1.44043 25.5778 1.09863 25.415C0.773112 25.2523 0.504557 25.057 0.292969 24.8291C0.0976562 24.585 0 24.2757 0 23.9014C0 23.6898 0.0732422 23.4375 0.219727 23.1445C0.382487 22.8516 0.577799 22.5586 0.805664 22.2656C1.0498 21.9564 1.30208 21.6553 1.5625 21.3623C1.82292 21.0693 2.05078 20.8089 2.24609 20.5811L6.49414 16.0156C6.91732 15.5599 7.32422 15.2018 7.71484 14.9414C8.12175 14.6647 8.51237 14.5264 8.88672 14.5264C9.16341 14.5264 9.40755 14.624 9.61914 14.8193C9.847 15.0146 10.0586 15.2588 10.2539 15.5518C10.4655 15.8447 10.6608 16.1621 10.8398 16.5039C11.0352 16.8294 11.2386 17.1387 11.4502 17.4316C11.6781 17.7246 11.9222 17.9688 12.1826 18.1641C12.4593 18.3594 12.7767 18.457 13.1348 18.457C13.4115 18.457 13.6475 18.4001 13.8428 18.2861C14.0381 18.1722 14.1927 18.0257 14.3066 17.8467C14.4368 17.6676 14.5264 17.4642 14.5752 17.2363C14.6403 17.0085 14.6729 16.7806 14.6729 16.5527V16.2842C15.1286 16.3818 15.5355 16.6829 15.8936 17.1875C16.2679 17.6758 16.4551 18.2454 16.4551 18.8965C16.4551 19.3848 16.3574 19.8405 16.1621 20.2637C15.9831 20.6706 15.7145 21.0286 15.3564 21.3379C14.9984 21.6309 14.5671 21.8669 14.0625 22.0459C13.5579 22.2249 12.9883 22.3145 12.3535 22.3145C11.6048 22.3145 10.8154 22.111 9.98535 21.7041C9.17155 21.2809 8.42285 20.6055 7.73926 19.6777L5.68848 21.9727C5.57454 22.1029 5.51758 22.2738 5.51758 22.4854C5.51758 22.7295 5.63965 22.9004 5.88379 22.998C6.14421 23.0957 6.42904 23.1852 6.73828 23.2666C7.22656 23.3805 7.73112 23.5107 8.25195 23.6572C8.78906 23.7874 9.27734 23.9909 9.7168 24.2676C10.1562 24.528 10.5225 24.8861 10.8154 25.3418C11.1084 25.7812 11.2549 26.359 11.2549 27.0752V34.7412ZM12.3047 36.2061C12.0931 36.2061 11.8896 36.2793 11.6943 36.4258C11.499 36.556 11.3525 36.735 11.2549 36.9629V41.3574C11.3688 41.3086 11.5479 41.2028 11.792 41.04C12.0524 40.861 12.3047 40.625 12.5488 40.332C12.8092 40.0391 13.029 39.6891 13.208 39.2822C13.4033 38.8591 13.501 38.3789 13.501 37.8418C13.501 37.5 13.4603 37.2233 13.3789 37.0117C13.3138 36.7839 13.2243 36.613 13.1104 36.499C12.9964 36.3851 12.8662 36.3118 12.7197 36.2793C12.5895 36.2305 12.4512 36.2061 12.3047 36.2061Z" fill="#0F1729"/>
<path d="M35.9863 21.7773C35.9863 22.6074 35.5794 23.0225 34.7656 23.0225C33.9518 23.0225 33.5449 22.6074 33.5449 21.7773C33.5449 20.9798 33.9518 20.5811 34.7656 20.5811C35.5794 20.5811 35.9863 20.9798 35.9863 21.7773ZM37.0361 22.6807C37.0361 21.8506 37.4512 21.4355 38.2812 21.4355C39.0788 21.4355 39.4775 21.8506 39.4775 22.6807C39.4775 23.4782 39.0788 23.877 38.2812 23.877C37.4512 23.877 37.0361 23.4782 37.0361 22.6807ZM39.6729 25.0732C39.6729 24.2594 40.0798 23.8525 40.8936 23.8525C41.7074 23.8525 42.1143 24.2839 42.1143 25.1465C42.1143 25.9115 41.7074 26.2939 40.8936 26.2939C40.0798 26.2939 39.6729 25.887 39.6729 25.0732ZM40.8691 28.6865C40.8691 27.889 41.276 27.4902 42.0898 27.4902C42.9036 27.4902 43.3105 27.889 43.3105 28.6865C43.3105 29.5166 42.8874 29.9316 42.041 29.9316C41.2598 29.9316 40.8691 29.5166 40.8691 28.6865ZM41.2598 32.9346C41.2598 32.1208 41.6504 31.7139 42.4316 31.7139C43.278 31.7139 43.7012 32.1208 43.7012 32.9346C43.7012 33.7484 43.278 34.1553 42.4316 34.1553C41.6504 34.1553 41.2598 33.7484 41.2598 32.9346ZM35.9863 44.043C35.9863 44.873 35.5794 45.2881 34.7656 45.2881C33.9518 45.2881 33.5449 44.873 33.5449 44.043C33.5449 43.2454 33.9518 42.8467 34.7656 42.8467C35.5794 42.8467 35.9863 43.2454 35.9863 44.043ZM40.8691 37.1826C40.8691 36.3525 41.276 35.9375 42.0898 35.9375C42.9036 35.9375 43.3105 36.3525 43.3105 37.1826C43.3105 37.9801 42.9036 38.3789 42.0898 38.3789C41.276 38.3789 40.8691 37.9801 40.8691 37.1826ZM37.0361 43.1396C37.0361 42.3584 37.4512 41.9678 38.2812 41.9678C39.0788 41.9678 39.4775 42.3909 39.4775 43.2373C39.4775 44.0186 39.0788 44.4092 38.2812 44.4092C37.4512 44.4092 37.0361 43.986 37.0361 43.1396ZM39.6729 40.8447C39.6729 40.0146 40.0798 39.5996 40.8936 39.5996C41.7074 39.5996 42.1143 40.0146 42.1143 40.8447C42.1143 41.6423 41.7074 42.041 40.8936 42.041C40.0798 42.041 39.6729 41.6423 39.6729 40.8447ZM32.4951 22.6807C32.4951 23.4782 32.0801 23.877 31.25 23.877C30.4525 23.877 30.0537 23.4782 30.0537 22.6807C30.0537 21.8506 30.4525 21.4355 31.25 21.4355C32.0801 21.4355 32.4951 21.8506 32.4951 22.6807ZM29.8584 25.0732C29.8584 25.887 29.4515 26.2939 28.6377 26.2939C27.8239 26.2939 27.417 25.9115 27.417 25.1465C27.417 24.2839 27.8239 23.8525 28.6377 23.8525C29.4515 23.8525 29.8584 24.2594 29.8584 25.0732ZM28.6621 28.6865C28.6621 29.5166 28.2715 29.9316 27.4902 29.9316C26.6439 29.9316 26.2207 29.5166 26.2207 28.6865C26.2207 27.889 26.6276 27.4902 27.4414 27.4902C28.2552 27.4902 28.6621 27.889 28.6621 28.6865ZM28.2715 32.9346C28.2715 33.7484 27.8809 34.1553 27.0996 34.1553C26.2533 34.1553 25.8301 33.7484 25.8301 32.9346C25.8301 32.1208 26.2533 31.7139 27.0996 31.7139C27.8809 31.7139 28.2715 32.1208 28.2715 32.9346ZM28.6621 37.1826C28.6621 37.9801 28.2552 38.3789 27.4414 38.3789C26.6276 38.3789 26.2207 37.9801 26.2207 37.1826C26.2207 36.3525 26.6276 35.9375 27.4414 35.9375C28.2552 35.9375 28.6621 36.3525 28.6621 37.1826ZM32.4951 43.1396C32.4951 43.986 32.0801 44.4092 31.25 44.4092C30.4525 44.4092 30.0537 44.0186 30.0537 43.2373C30.0537 42.3909 30.4525 41.9678 31.25 41.9678C32.0801 41.9678 32.4951 42.3584 32.4951 43.1396ZM29.8584 40.8447C29.8584 41.6423 29.4515 42.041 28.6377 42.041C27.8239 42.041 27.417 41.6423 27.417 40.8447C27.417 40.0146 27.8239 39.5996 28.6377 39.5996C29.4515 39.5996 29.8584 40.0146 29.8584 40.8447Z" fill="#0F1729"/>
<path d="M52.7832 2.66113C54.2969 2.66113 55.5908 2.83203 56.665 3.17383C57.7555 3.51562 58.6426 3.97949 59.3262 4.56543C60.026 5.13509 60.5387 5.80241 60.8643 6.56738C61.1898 7.33236 61.3525 8.14616 61.3525 9.00879V61.6455C61.3525 62.6058 61.1654 63.4277 60.791 64.1113C60.4167 64.7949 59.9284 65.3727 59.3262 65.8447C58.724 66.3167 58.0404 66.6911 57.2754 66.9678C56.5267 67.2607 55.7617 67.4805 54.9805 67.627C54.2155 67.7897 53.4749 67.8955 52.7588 67.9443C52.0589 67.9932 51.4486 68.0176 50.9277 68.0176C50.4395 68.0176 49.8454 67.9932 49.1455 67.9443C48.4456 67.8955 47.7132 67.7897 46.9482 67.627C46.167 67.4805 45.3939 67.2607 44.6289 66.9678C43.8639 66.6911 43.1803 66.3167 42.5781 65.8447C41.9596 65.3727 41.4632 64.7868 41.0889 64.0869C40.6982 63.4033 40.5029 62.5895 40.5029 61.6455V50.1221C40.9912 50.1221 41.569 50.2116 42.2363 50.3906C42.8874 50.5859 43.514 50.8708 44.1162 51.2451C44.7184 51.6357 45.2311 52.124 45.6543 52.71C46.0775 53.2959 46.2891 53.9876 46.2891 54.7852V62.4268C46.2891 63.0941 46.4437 63.6393 46.7529 64.0625C47.0459 64.4857 47.4284 64.8193 47.9004 65.0635C48.3561 65.3076 48.8525 65.4704 49.3896 65.5518C49.9268 65.6494 50.4395 65.6982 50.9277 65.6982C51.4323 65.6982 51.9613 65.6494 52.5146 65.5518C53.068 65.4541 53.5726 65.2832 54.0283 65.0391C54.4841 64.7949 54.8584 64.4531 55.1514 64.0137C55.4443 63.5905 55.5908 63.0452 55.5908 62.3779V9.15527C55.5908 8.35775 55.5013 7.69043 55.3223 7.15332C55.1595 6.61621 54.9316 6.19303 54.6387 5.88379C54.362 5.55827 54.0365 5.3304 53.6621 5.2002C53.2878 5.06999 52.8971 5.00488 52.4902 5.00488C51.9206 5.00488 51.3184 5.15137 50.6836 5.44434C50.0651 5.7373 49.4548 6.15234 48.8525 6.68945C48.2503 7.21029 47.6888 7.82878 47.168 8.54492C46.6309 9.26107 46.167 10.0423 45.7764 10.8887C44.93 10.8887 44.1569 10.8154 43.457 10.6689C42.7409 10.5225 42.1305 10.2865 41.626 9.96094C41.1051 9.63542 40.7064 9.2041 40.4297 8.66699C40.1367 8.11361 39.9902 7.43815 39.9902 6.64062C39.9902 6.33138 39.9495 6.07096 39.8682 5.85938C39.7705 5.64779 39.6566 5.48503 39.5264 5.37109C39.3962 5.24089 39.2578 5.15137 39.1113 5.10254C38.9486 5.03744 38.8021 5.00488 38.6719 5.00488C37.6465 5.00488 37.1338 5.58268 37.1338 6.73828C37.1338 6.90104 37.1419 7.07194 37.1582 7.25098C37.1745 7.41374 37.207 7.60091 37.2559 7.8125C36.8652 7.64974 36.5234 7.42188 36.2305 7.12891C35.9212 6.83594 35.6689 6.52669 35.4736 6.20117C35.2783 5.85938 35.1318 5.52572 35.0342 5.2002C34.9202 4.8584 34.8633 4.56543 34.8633 4.32129C34.8633 3.68652 35.0016 3.10872 35.2783 2.58789C35.555 2.05078 35.9294 1.59505 36.4014 1.2207C36.8734 0.830078 37.4186 0.528971 38.0371 0.317383C38.6393 0.105794 39.2741 0 39.9414 0C40.9505 0 41.8294 0.195312 42.5781 0.585938C43.3105 0.960286 43.9209 1.43229 44.4092 2.00195C44.8812 2.57161 45.2311 3.19824 45.459 3.88184C45.6868 4.56543 45.8008 5.2002 45.8008 5.78613C46.1263 5.36296 46.5332 4.96419 47.0215 4.58984C47.4935 4.19922 48.0306 3.86556 48.6328 3.58887C49.235 3.2959 49.8861 3.06803 50.5859 2.90527C51.2858 2.74251 52.0182 2.66113 52.7832 2.66113Z" fill="#0F1729"/>
</svg>
