<svg width="60" height="27" viewBox="0 0 60 27" fill="none" xmlns="http://www.w3.org/2000/svg">
<path d="M0.515625 12.7031C0.515625 12.3613 0.62793 11.9707 0.852539 11.5312C1.07715 11.082 1.43848 10.5889 1.93652 10.0518C2.23926 9.72949 2.51758 9.4707 2.77148 9.27539C3.02539 9.08008 3.25488 8.92871 3.45996 8.82129C3.6748 8.71387 3.87012 8.64063 4.0459 8.60156C4.22168 8.5625 4.38281 8.54297 4.5293 8.54297C4.82227 8.54297 5.10059 8.61621 5.36426 8.7627C5.62793 8.89941 5.87695 9.07031 6.11133 9.27539C6.3457 9.48047 6.56055 9.69531 6.75586 9.91992C6.95117 10.1445 7.13184 10.335 7.29785 10.4912C7.80566 10.0518 8.21094 9.70508 8.51367 9.45117C8.81641 9.1875 9.06543 8.99219 9.26074 8.86523C9.45605 8.72852 9.61719 8.64063 9.74414 8.60156C9.87109 8.5625 10.0078 8.54297 10.1543 8.54297C10.7207 8.54297 11.1162 8.65527 11.3408 8.87988C11.5166 9.02637 11.7021 9.21191 11.8975 9.43652C12.0928 9.66113 12.2734 9.93945 12.4395 10.2715C12.6152 10.6035 12.7568 10.9941 12.8643 11.4434C12.9717 11.8828 13.0254 12.4004 13.0254 12.9961C13.0254 13.9727 12.8398 14.832 12.4688 15.5742C12.0977 16.3066 11.624 16.9561 11.0479 17.5225C10.4717 18.0791 9.82715 18.5771 9.11426 19.0166C8.41113 19.4463 7.72266 19.8467 7.04883 20.2178C6.63867 20.4424 6.24805 20.667 5.87695 20.8916C5.50586 21.1064 5.17871 21.3359 4.89551 21.5801C4.62207 21.8145 4.40234 22.0732 4.23633 22.3564C4.08008 22.6396 4.00195 22.9619 4.00195 23.3232C4.00195 23.7822 4.07031 24.1582 4.20703 24.4512C4.34375 24.7441 4.51465 24.9785 4.71973 25.1543C4.93457 25.3203 5.17383 25.4375 5.4375 25.5059C5.71094 25.5742 5.97949 25.6084 6.24316 25.6084C6.70215 25.6084 7.12695 25.5156 7.51758 25.3301C7.9082 25.1445 8.24023 24.8955 8.51367 24.583C8.79688 24.2607 9.0166 23.8896 9.17285 23.4697C9.3291 23.04 9.40723 22.5859 9.40723 22.1074V21.3604C9.40723 20.9697 9.50977 20.584 9.71484 20.2031C9.92969 19.8125 10.2031 19.4609 10.5352 19.1484C10.877 18.8359 11.2627 18.582 11.6924 18.3867C12.1318 18.1914 12.5762 18.0938 13.0254 18.0938V27H9.40723V25.667C9.22168 25.833 8.9873 25.9941 8.7041 26.1504C8.4209 26.3066 8.1084 26.4482 7.7666 26.5752C7.4248 26.7021 7.05371 26.8047 6.65332 26.8828C6.25293 26.9609 5.84277 27 5.42285 27C5.13965 27 4.82227 26.9805 4.4707 26.9414C4.11914 26.9023 3.7627 26.8291 3.40137 26.7217C3.04004 26.6143 2.68359 26.4678 2.33203 26.2822C1.99023 26.0967 1.68262 25.8623 1.40918 25.5791C1.14551 25.2861 0.930664 24.9395 0.764648 24.5391C0.598633 24.1387 0.515625 23.6699 0.515625 23.1328C0.515625 22.5664 0.647461 22.0684 0.911133 21.6387C1.1748 21.209 1.52637 20.8184 1.96582 20.4668C2.40527 20.1152 2.90332 19.7979 3.45996 19.5146C4.02637 19.2217 4.60254 18.9336 5.18848 18.6504C5.73535 18.3965 6.26758 18.1328 6.78516 17.8594C7.3125 17.5762 7.78125 17.2539 8.19141 16.8926C8.60156 16.5312 8.92871 16.1113 9.17285 15.6328C9.42676 15.1543 9.55371 14.583 9.55371 13.9189C9.55371 13.2451 9.53418 12.7031 9.49512 12.293C9.46582 11.8828 9.42676 11.502 9.37793 11.1504C9.11426 11.3555 8.85059 11.5605 8.58691 11.7656C8.33301 11.9609 8.08398 12.1416 7.83984 12.3076C7.5957 12.4639 7.35645 12.5957 7.12207 12.7031C6.8877 12.8008 6.66797 12.8496 6.46289 12.8496C6.28711 12.8496 6.12109 12.8154 5.96484 12.7471C5.81836 12.6787 5.65234 12.5811 5.4668 12.4541C5.28125 12.3174 5.07129 12.1514 4.83691 11.9561C4.6123 11.751 4.33398 11.5215 4.00195 11.2676V13.626C4.1875 13.4893 4.39258 13.3818 4.61719 13.3037C4.8418 13.2256 5.0957 13.1865 5.37891 13.1865C6.60938 13.1865 7.22461 13.8555 7.22461 15.1934C7.22461 15.7207 7.06348 16.209 6.74121 16.6582C6.41895 17.0977 5.96484 17.4834 5.37891 17.8154C4.79297 18.1377 4.08496 18.3916 3.25488 18.5771C2.43457 18.7529 1.52148 18.8408 0.515625 18.8408V12.7031ZM4.63184 14.5195C4.50488 14.5195 4.38281 14.5635 4.26562 14.6514C4.14844 14.7295 4.06055 14.8369 4.00195 14.9736V17.4053C4.07031 17.3662 4.17773 17.3027 4.32422 17.2148C4.48047 17.1172 4.63184 16.9902 4.77832 16.834C4.93457 16.668 5.06641 16.4775 5.17383 16.2627C5.29102 16.0381 5.34961 15.7842 5.34961 15.501C5.34961 15.2959 5.3252 15.1299 5.27637 15.0029C5.2373 14.8662 5.18359 14.7637 5.11523 14.6953C5.04688 14.627 4.96875 14.583 4.88086 14.5635C4.80273 14.5342 4.71973 14.5195 4.63184 14.5195ZM9.42188 4.83691C9.33398 4.6416 9.19238 4.39258 8.99707 4.08984C8.79199 3.77734 8.52832 3.47949 8.20605 3.19629C7.88379 2.90332 7.50781 2.6543 7.07812 2.44922C6.63867 2.23437 6.15039 2.12695 5.61328 2.12695C5.29102 2.12695 5.02246 2.1709 4.80762 2.25879C4.58301 2.34668 4.40234 2.45898 4.26562 2.5957C4.11914 2.73242 4.0166 2.88379 3.95801 3.0498C3.88965 3.20605 3.85547 3.3623 3.85547 3.51855C3.85547 3.66504 3.87988 3.81641 3.92871 3.97266C3.97754 4.11914 4.07031 4.26074 4.20703 4.39746C4.33398 4.52441 4.50977 4.63184 4.73438 4.71973C4.95898 4.79785 5.24219 4.83691 5.58398 4.83691H9.42188ZM3.85547 6.15527C3.26953 6.15527 2.7666 6.09668 2.34668 5.97949C1.92676 5.85254 1.58496 5.68652 1.32129 5.48145C1.05762 5.2666 0.862305 5.02246 0.735352 4.74902C0.608398 4.46582 0.544922 4.16797 0.544922 3.85547C0.544922 3.31836 0.671875 2.84961 0.925781 2.44922C1.17969 2.04883 1.52637 1.7168 1.96582 1.45312C2.39551 1.17969 2.89844 0.979492 3.47461 0.852539C4.05078 0.71582 4.66113 0.647461 5.30566 0.647461C6.34082 0.647461 7.2832 0.789063 8.13281 1.07227C8.97266 1.35547 9.71973 1.74609 10.374 2.24414C11.0186 2.74219 11.5654 3.32812 12.0146 4.00195C12.4541 4.66602 12.7959 5.38379 13.04 6.15527H3.85547ZM40.4619 21.9902C40.4619 22.7812 40.3301 23.4551 40.0664 24.0117C39.8125 24.5684 39.4805 25.0322 39.0703 25.4033C38.6602 25.7744 38.2061 26.0674 37.708 26.2822C37.2197 26.4971 36.7363 26.6582 36.2578 26.7656C35.7793 26.8633 35.3398 26.9268 34.9395 26.9561C34.5488 26.9854 34.251 27 34.0459 27C33.8408 27 33.543 26.9951 33.1523 26.9854C32.7617 26.9658 32.3369 26.9121 31.8779 26.8242C31.4189 26.7266 30.9453 26.5801 30.457 26.3848C29.9688 26.1895 29.5293 25.9111 29.1387 25.5498C28.748 25.1885 28.4258 24.7295 28.1719 24.1729C27.918 23.6064 27.791 22.9131 27.791 22.0928V11.9121C27.791 11.5117 27.6982 11.1846 27.5127 10.9307C27.3369 10.6768 27.1123 10.4766 26.8389 10.3301C26.5654 10.1836 26.2627 10.0859 25.9307 10.0371C25.5986 9.97852 25.2861 9.94922 24.9932 9.94922C24.6807 9.94922 24.3682 9.9834 24.0557 10.0518C23.7432 10.1201 23.46 10.2373 23.2061 10.4033C22.9619 10.5596 22.7568 10.7744 22.5908 11.0479C22.4346 11.3213 22.3564 11.6582 22.3564 12.0586V20.6719C22.542 20.5352 22.7471 20.4277 22.9717 20.3496C23.2061 20.2715 23.4648 20.2324 23.748 20.2324C24.0508 20.2324 24.334 20.2812 24.5977 20.3789C24.8711 20.4668 25.1055 20.5986 25.3008 20.7744C25.5059 20.9502 25.6621 21.1699 25.7695 21.4336C25.8867 21.6875 25.9453 21.9805 25.9453 22.3125C25.9453 22.8105 25.7988 23.333 25.5059 23.8799C25.2227 24.4268 24.7832 24.9346 24.1875 25.4033C23.6016 25.8623 22.8545 26.2432 21.9463 26.5459C21.0479 26.8486 19.9785 27 18.7383 27V12.3955C18.7383 11.8291 18.8506 11.3408 19.0752 10.9307C19.2998 10.5107 19.5928 10.1592 19.9541 9.87598C20.3154 9.59277 20.7207 9.36816 21.1699 9.20215C21.6289 9.02637 22.0879 8.88965 22.5469 8.79199C23.0156 8.69434 23.4648 8.63086 23.8945 8.60156C24.3242 8.57227 24.6904 8.55762 24.9932 8.55762C25.2861 8.55762 25.6475 8.57227 26.0771 8.60156C26.5068 8.63086 26.9561 8.69434 27.4248 8.79199C27.9033 8.88965 28.377 9.02637 28.8457 9.20215C29.3242 9.36816 29.7539 9.59277 30.1348 9.87598C30.5156 10.1592 30.8232 10.5107 31.0576 10.9307C31.292 11.3408 31.4092 11.8291 31.4092 12.3955V22.8984C31.4092 23.4453 31.4922 23.8945 31.6582 24.2461C31.8242 24.5977 32.0342 24.876 32.2881 25.0811C32.5518 25.2764 32.835 25.4131 33.1377 25.4912C33.4502 25.5693 33.7529 25.6084 34.0459 25.6084C34.3584 25.6084 34.6807 25.5645 35.0127 25.4766C35.3447 25.3887 35.6426 25.2373 35.9062 25.0225C36.1797 24.8076 36.4043 24.5293 36.5801 24.1875C36.7559 23.8457 36.8438 23.416 36.8438 22.8984V16.79C36.8438 16.5557 36.8096 16.3604 36.7412 16.2041C36.6826 16.0479 36.5996 15.9209 36.4922 15.8232C36.3848 15.7256 36.2578 15.6523 36.1113 15.6035C35.9746 15.5547 35.833 15.5156 35.6865 15.4863C35.4229 15.4375 35.1641 15.3838 34.9102 15.3252C34.666 15.2568 34.4414 15.1738 34.2363 15.0762C34.041 14.9785 33.8799 14.8613 33.7529 14.7246C33.6357 14.5781 33.5771 14.3926 33.5771 14.168C33.5771 14.041 33.6211 13.8896 33.709 13.7139C33.8066 13.5381 33.9238 13.3623 34.0605 13.1865C34.1973 13.001 34.3438 12.8203 34.5 12.6445C34.6562 12.4688 34.7979 12.3125 34.9248 12.1758L37.752 9.14355C38.0059 8.87012 38.2207 8.7041 38.3965 8.64551C38.5723 8.57715 38.748 8.54297 38.9238 8.54297C39.0996 8.54297 39.2559 8.58691 39.3926 8.6748C39.5391 8.75293 39.666 8.85547 39.7734 8.98242C39.8906 9.10938 39.9932 9.25098 40.0811 9.40723C40.1787 9.56348 40.2666 9.71484 40.3447 9.86133C40.4229 10.0078 40.4961 10.125 40.5645 10.2129C40.6426 10.291 40.7109 10.3496 40.7695 10.3887C40.8379 10.4277 40.8965 10.4521 40.9453 10.4619C41.0039 10.4717 41.0527 10.4766 41.0918 10.4766C41.1309 10.4766 41.1797 10.4717 41.2383 10.4619C41.2969 10.4521 41.3555 10.4229 41.4141 10.374C41.4824 10.3154 41.5459 10.2275 41.6045 10.1104C41.6631 9.99316 41.7119 9.82227 41.751 9.59766C42.0244 9.82227 42.2344 10.0615 42.3809 10.3154C42.5371 10.5693 42.6152 10.8965 42.6152 11.2969C42.6152 11.4922 42.5713 11.6924 42.4834 11.8975C42.3955 12.1025 42.2637 12.2881 42.0879 12.4541C41.9121 12.6201 41.6875 12.7617 41.4141 12.8789C41.1406 12.9863 40.8232 13.04 40.4619 13.04C40.2959 13.04 40.1201 13.0254 39.9346 12.9961C39.7588 12.9668 39.5684 12.9033 39.3633 12.8057C39.168 12.708 38.9678 12.5664 38.7627 12.3809C38.5674 12.1953 38.377 11.9463 38.1914 11.6338L36.9902 13.0107C36.9609 13.0498 36.9268 13.0938 36.8877 13.1426C36.8584 13.1914 36.8438 13.2598 36.8438 13.3477C36.8438 13.4844 36.9219 13.582 37.0781 13.6406C37.2344 13.6992 37.4102 13.748 37.6055 13.7871C37.8984 13.8457 38.2109 13.9287 38.543 14.0361C38.875 14.1338 39.1826 14.2803 39.4658 14.4756C39.7588 14.6709 39.998 14.9248 40.1836 15.2373C40.3691 15.5498 40.4619 15.9453 40.4619 16.4238V21.9902ZM22.9863 21.5508C22.8691 21.5508 22.752 21.5947 22.6348 21.6826C22.5176 21.7607 22.4248 21.8682 22.3564 22.0049V24.6416C22.4248 24.6123 22.5322 24.5488 22.6787 24.4512C22.835 24.3438 22.9863 24.2021 23.1328 24.0264C23.2891 23.8506 23.4258 23.6406 23.543 23.3965C23.6602 23.1426 23.7188 22.8545 23.7188 22.5322C23.7188 22.3271 23.6943 22.1611 23.6455 22.0342C23.6064 21.8975 23.5479 21.7949 23.4697 21.7266C23.4014 21.6582 23.3232 21.6143 23.2354 21.5947C23.1572 21.5654 23.0742 21.5508 22.9863 21.5508ZM36.873 4.83691C36.7852 4.6416 36.6436 4.39258 36.4482 4.08984C36.2432 3.77734 35.9795 3.47949 35.6572 3.19629C35.335 2.90332 34.959 2.6543 34.5293 2.44922C34.0898 2.23437 33.6016 2.12695 33.0645 2.12695C32.7422 2.12695 32.4736 2.1709 32.2588 2.25879C32.0342 2.34668 31.8535 2.45898 31.7168 2.5957C31.5703 2.73242 31.4678 2.88379 31.4092 3.0498C31.3408 3.20605 31.3066 3.3623 31.3066 3.51855C31.3066 3.66504 31.3311 3.81641 31.3799 3.97266C31.4287 4.11914 31.5215 4.26074 31.6582 4.39746C31.7852 4.52441 31.9609 4.63184 32.1855 4.71973C32.4102 4.79785 32.6934 4.83691 33.0352 4.83691H36.873ZM31.3066 6.15527C30.7207 6.15527 30.2178 6.09668 29.7979 5.97949C29.3779 5.85254 29.0361 5.68652 28.7725 5.48145C28.5088 5.2666 28.3135 5.02246 28.1865 4.74902C28.0596 4.46582 27.9961 4.16797 27.9961 3.85547C27.9961 3.31836 28.123 2.84961 28.377 2.44922C28.6309 2.04883 28.9775 1.7168 29.417 1.45312C29.8467 1.17969 30.3496 0.979492 30.9258 0.852539C31.502 0.71582 32.1123 0.647461 32.7568 0.647461C33.792 0.647461 34.7344 0.789063 35.584 1.07227C36.4238 1.35547 37.1709 1.74609 37.8252 2.24414C38.4697 2.74219 39.0166 3.32812 39.4658 4.00195C39.9053 4.66602 40.2471 5.38379 40.4912 6.15527H31.3066ZM49.6758 20.6719C49.8613 20.5352 50.0664 20.4277 50.291 20.3496C50.5156 20.2715 50.7695 20.2324 51.0527 20.2324C51.3555 20.2324 51.6387 20.2812 51.9023 20.3789C52.1758 20.4668 52.4102 20.5986 52.6055 20.7744C52.8105 20.9502 52.9668 21.1699 53.0742 21.4336C53.1914 21.6875 53.25 21.9805 53.25 22.3125C53.25 22.8105 53.1133 23.333 52.8398 23.8799C52.5664 24.4268 52.1416 24.9346 51.5654 25.4033C50.999 25.8623 50.2715 26.2432 49.3828 26.5459C48.4941 26.8486 47.4297 27 46.1895 27V18.0352C46.1895 17.4492 46.3311 16.9365 46.6143 16.4971C46.9072 16.0576 47.2881 15.6719 47.7568 15.3398C47.3271 15.0762 46.9561 14.8125 46.6436 14.5488C46.3311 14.2852 46.0918 14.0361 45.9258 13.8018C45.75 13.5381 45.6035 13.2695 45.4863 12.9961C45.3691 12.7129 45.3105 12.4834 45.3105 12.3076C45.3105 12.1416 45.374 11.9756 45.501 11.8096C45.6279 11.6436 45.7598 11.4922 45.8965 11.3555L48.2842 8.98242C48.3721 8.89453 48.5088 8.80176 48.6943 8.7041C48.8799 8.59668 49.1533 8.54297 49.5146 8.54297C49.7783 8.54297 50.0029 8.5918 50.1885 8.68945C50.3838 8.77734 50.5498 8.875 50.6865 8.98242C50.8916 9.12891 51.0723 9.26562 51.2285 9.39258C51.3945 9.50977 51.5508 9.62695 51.6973 9.74414C51.8535 9.86133 52.0098 9.9834 52.166 10.1104C52.332 10.2275 52.5127 10.3594 52.708 10.5059L54.2168 8.98242C54.3633 8.8457 54.5391 8.73828 54.7441 8.66016C54.959 8.58203 55.208 8.54297 55.4912 8.54297C55.5889 8.54297 55.6963 8.55762 55.8135 8.58691C55.9307 8.60645 56.082 8.6748 56.2676 8.79199C56.4629 8.89941 56.707 9.0752 57 9.31934C57.293 9.55371 57.6689 9.88086 58.1279 10.3008C58.1768 10.291 58.2305 10.2227 58.2891 10.0957C58.3574 9.95898 58.4551 9.8125 58.582 9.65625C58.6895 9.76367 58.8018 9.89551 58.9189 10.0518C59.0361 10.208 59.1436 10.374 59.2412 10.5498C59.3389 10.7256 59.417 10.9062 59.4756 11.0918C59.5439 11.2773 59.5781 11.4531 59.5781 11.6191C59.5781 11.7559 59.5391 11.9072 59.4609 12.0732C59.3926 12.2393 59.2852 12.3955 59.1387 12.542C59.002 12.6787 58.8262 12.7959 58.6113 12.8936C58.3965 12.9912 58.1426 13.04 57.8496 13.04C57.5957 13.04 57.3369 12.9863 57.0732 12.8789C56.8096 12.7617 56.5459 12.6152 56.2822 12.4395C56.0186 12.2539 55.7598 12.0537 55.5059 11.8389C55.252 11.6143 55.0176 11.3945 54.8027 11.1797C54.5781 11.4141 54.3535 11.6533 54.1289 11.8975C53.9043 12.1318 53.6846 12.3711 53.4697 12.6152C53.3818 12.7031 53.2451 12.8057 53.0596 12.9229C52.8838 13.04 52.6152 13.0986 52.2539 13.0986C51.9121 13.0986 51.6387 13.0498 51.4336 12.9521C51.2383 12.8447 51.0918 12.752 50.9941 12.6738L48.8115 10.9893L47.874 11.9121C48.0205 12.1953 48.2061 12.4736 48.4307 12.7471C48.6553 13.0205 48.8945 13.2695 49.1484 13.4941C49.4121 13.709 49.6807 13.8945 49.9541 14.0508C50.2373 14.1973 50.5059 14.29 50.7598 14.3291C51.082 14.2803 51.3848 14.251 51.668 14.2412C51.9512 14.2314 52.21 14.2266 52.4443 14.2266C52.7373 14.2266 53.0938 14.2412 53.5137 14.2705C53.9336 14.2998 54.373 14.3633 54.832 14.4609C55.3008 14.5488 55.7646 14.6807 56.2236 14.8564C56.6826 15.0225 57.0928 15.2471 57.4541 15.5303C57.8252 15.8037 58.123 16.1455 58.3477 16.5557C58.582 16.9658 58.6992 17.459 58.6992 18.0352V27H55.2275V17.5811C55.2275 17.1709 55.1348 16.8389 54.9492 16.585C54.7734 16.3311 54.5439 16.1309 54.2607 15.9844C53.9873 15.8379 53.6895 15.7402 53.3672 15.6914C53.0449 15.6328 52.7373 15.6035 52.4443 15.6035C52.1318 15.6035 51.8145 15.6328 51.4922 15.6914C51.1699 15.7402 50.8721 15.8379 50.5986 15.9844C50.3252 16.1309 50.1006 16.3311 49.9248 16.585C49.7588 16.8389 49.6758 17.1709 49.6758 17.5811V20.6719ZM50.3057 21.5654C50.1787 21.5654 50.0566 21.6094 49.9395 21.6973C49.8223 21.7754 49.7344 21.8828 49.6758 22.0195V24.6562C49.7441 24.627 49.8516 24.5635 49.998 24.4658C50.1543 24.3584 50.3057 24.2168 50.4521 24.041C50.6084 23.8652 50.7402 23.6553 50.8477 23.4111C50.9648 23.1572 51.0234 22.8691 51.0234 22.5469C51.0234 22.3418 50.999 22.1758 50.9502 22.0488C50.9111 21.9121 50.8574 21.8096 50.7891 21.7412C50.7207 21.6729 50.6426 21.6289 50.5547 21.6094C50.4766 21.5801 50.3936 21.5654 50.3057 21.5654Z" fill="#0F1729"/>
</svg>
