<svg width="28" height="31" viewBox="0 0 28 31" fill="none" xmlns="http://www.w3.org/2000/svg">
<path d="M20.5566 30.8105C19.9707 30.1432 19.3197 29.4678 18.6035 28.7842C17.8874 28.1006 17.1224 27.4414 16.3086 26.8066C15.5111 26.1719 14.6647 25.5778 13.7695 25.0244C12.8743 24.471 11.9548 23.999 11.0107 23.6084V30.8105C8.94368 30.8105 7.21029 30.599 5.81055 30.1758C4.41081 29.7363 3.27962 29.1748 2.41699 28.4912C1.55436 27.8076 0.935872 27.0508 0.561523 26.2207C0.187174 25.3743 0 24.5443 0 23.7305C0 22.6562 0.374349 21.8018 1.12305 21.167C1.88802 20.516 3.17383 20.1172 4.98047 19.9707V12.1826C4.98047 11.8245 4.95605 11.5316 4.90723 11.3037C4.87467 11.0758 4.81771 10.8887 4.73633 10.7422C4.67122 10.5957 4.58171 10.4818 4.46777 10.4004C4.37012 10.319 4.24805 10.2376 4.10156 10.1562C3.84115 10.0423 3.58887 9.92025 3.34473 9.79004C3.10059 9.64355 2.88086 9.48079 2.68555 9.30176C2.49023 9.12272 2.32747 8.91927 2.19727 8.69141C2.08333 8.44727 2.02637 8.16243 2.02637 7.83691C2.02637 7.60905 2.09961 7.37305 2.24609 7.12891C2.39258 6.88477 2.57161 6.64062 2.7832 6.39648C3.01107 6.15234 3.25521 5.91634 3.51562 5.68848C3.79232 5.44434 4.05273 5.21647 4.29688 5.00488C4.76888 4.61426 5.28971 4.18294 5.85938 3.71094C6.42904 3.23893 6.96615 2.79134 7.4707 2.36816C8.04036 1.87988 8.61816 1.3916 9.2041 0.90332C9.48079 0.675456 9.7819 0.472005 10.1074 0.292969C10.4492 0.0976562 10.8968 0 11.4502 0C12.0036 0 12.4268 0.0732422 12.7197 0.219727C13.029 0.366211 13.3138 0.553385 13.5742 0.78125L16.5039 3.32031L18.75 0.952148C19.2383 0.463867 19.9382 0.219727 20.8496 0.219727C21.0124 0.219727 21.1914 0.244141 21.3867 0.292969C21.5983 0.325521 21.8587 0.439453 22.168 0.634766C22.4935 0.813802 22.9004 1.10677 23.3887 1.51367C23.877 1.9043 24.4954 2.44954 25.2441 3.14941C25.3255 3.13314 25.4232 3.01921 25.5371 2.80762C25.651 2.57975 25.8138 2.33561 26.0254 2.0752C26.1882 2.25423 26.3672 2.47396 26.5625 2.73438C26.7578 2.99479 26.9368 3.27148 27.0996 3.56445C27.2786 3.85742 27.417 4.15853 27.5146 4.46777C27.6286 4.77702 27.6855 5.06999 27.6855 5.34668C27.6855 5.57454 27.6204 5.82682 27.4902 6.10352C27.3763 6.38021 27.1973 6.64062 26.9531 6.88477C26.709 7.11263 26.4079 7.30794 26.0498 7.4707C25.6917 7.63346 25.2686 7.71484 24.7803 7.71484C24.3734 7.71484 23.9502 7.62533 23.5107 7.44629C23.0713 7.25098 22.6318 7.00684 22.1924 6.71387C21.7529 6.40462 21.3216 6.07096 20.8984 5.71289C20.4753 5.33854 20.0846 4.97233 19.7266 4.61426C19.3359 5.02116 18.9535 5.41992 18.5791 5.81055C18.2048 6.20117 17.8385 6.60807 17.4805 7.03125C17.334 7.17773 17.1143 7.34863 16.8213 7.54395C16.5283 7.72298 16.0807 7.8125 15.4785 7.8125C15.0065 7.8125 14.5833 7.69857 14.209 7.4707C13.8509 7.24284 13.5905 7.0638 13.4277 6.93359L10.2295 4.12598L7.61719 6.34766C7.45443 6.49414 7.37305 6.63249 7.37305 6.7627C7.37305 6.92546 7.46256 7.09635 7.6416 7.27539C7.82064 7.43815 8.04036 7.62533 8.30078 7.83691C8.57747 8.03223 8.87044 8.26009 9.17969 8.52051C9.50521 8.76465 9.79818 9.04948 10.0586 9.375C10.3353 9.68425 10.5632 10.0423 10.7422 10.4492C10.9212 10.8561 11.0107 11.3118 11.0107 11.8164V20.6543C12.0036 20.9473 12.9639 21.3216 13.8916 21.7773C14.8193 22.2168 15.6738 22.6807 16.4551 23.1689C17.2526 23.6572 17.9688 24.1455 18.6035 24.6338C19.2546 25.1221 19.7998 25.5615 20.2393 25.9521V20.0684C19.9137 20.2962 19.5638 20.4753 19.1895 20.6055C18.8151 20.7357 18.3919 20.8008 17.9199 20.8008C17.3991 20.8008 16.9189 20.7275 16.4795 20.5811C16.04 20.4183 15.6494 20.1904 15.3076 19.8975C14.9821 19.6045 14.7217 19.2464 14.5264 18.8232C14.3473 18.3838 14.2578 17.8874 14.2578 17.334C14.2578 16.5039 14.4938 15.6331 14.9658 14.7217C15.4541 13.7939 16.1865 12.9476 17.1631 12.1826C18.1559 11.4176 19.401 10.7829 20.8984 10.2783C22.4121 9.77376 24.2025 9.52148 26.2695 9.52148V30.8105H20.5566ZM19.1895 18.6035C19.401 18.6035 19.6045 18.5384 19.7998 18.4082C19.9951 18.2617 20.1416 18.0664 20.2393 17.8223V13.4277C20.1253 13.4928 19.9382 13.6149 19.6777 13.7939C19.4336 13.9567 19.1813 14.1846 18.9209 14.4775C18.6768 14.7705 18.457 15.1204 18.2617 15.5273C18.0827 15.9342 17.9932 16.4062 17.9932 16.9434C17.9932 17.3014 18.0257 17.5863 18.0908 17.7979C18.1722 18.0094 18.2699 18.1803 18.3838 18.3105C18.4977 18.4245 18.6198 18.5059 18.75 18.5547C18.8965 18.5872 19.043 18.6035 19.1895 18.6035ZM3.32031 23.9746C3.32031 24.4466 3.37728 24.8535 3.49121 25.1953C3.62142 25.5208 3.7679 25.7975 3.93066 26.0254C4.1097 26.237 4.28874 26.4079 4.46777 26.5381C4.66309 26.6683 4.83398 26.7741 4.98047 26.8555V22.4854C4.41081 22.5505 3.98763 22.6969 3.71094 22.9248C3.45052 23.1364 3.32031 23.4863 3.32031 23.9746Z" fill="#0F1729"/>
</svg>
