<svg width="40" height="31" viewBox="0 0 40 31" fill="none" xmlns="http://www.w3.org/2000/svg">
<path d="M36.2061 22.4121C36.2061 23.7305 35.9863 24.8535 35.5469 25.7812C35.1237 26.709 34.5703 27.4821 33.8867 28.1006C33.2031 28.7191 32.4463 29.2074 31.6162 29.5654C30.8024 29.9235 29.9967 30.1921 29.1992 30.3711C28.4017 30.5339 27.6693 30.6396 27.002 30.6885C26.3509 30.7373 25.8545 30.7617 25.5127 30.7617C25.1709 30.7617 24.6745 30.7536 24.0234 30.7373C23.3724 30.7048 22.6644 30.6152 21.8994 30.4688C21.1344 30.306 20.3451 30.0618 19.5312 29.7363C18.7174 29.4108 17.985 28.9469 17.334 28.3447C16.6829 27.7425 16.1458 26.9775 15.7227 26.0498C15.2995 25.1058 15.0879 23.9502 15.0879 22.583V15.1123C15.0879 14.445 14.9333 13.8997 14.624 13.4766C14.3311 13.0534 13.9567 12.7197 13.501 12.4756C13.0452 12.2314 12.5407 12.0687 11.9873 11.9873C11.4339 11.8896 10.9131 11.8408 10.4248 11.8408C9.90397 11.8408 9.38314 11.8978 8.8623 12.0117C8.34147 12.1257 7.86947 12.321 7.44629 12.5977C7.03939 12.8581 6.69759 13.2161 6.4209 13.6719C6.16048 14.1113 6.03027 14.6729 6.03027 15.3564V20.2148C6.33952 19.987 6.68131 19.8079 7.05566 19.6777C7.44629 19.5475 7.8776 19.4824 8.34961 19.4824C8.85417 19.4824 9.32617 19.5638 9.76562 19.7266C10.2214 19.873 10.612 20.0928 10.9375 20.3857C11.2793 20.6787 11.5397 21.0449 11.7188 21.4844C11.9141 21.9076 12.0117 22.3958 12.0117 22.9492C12.0117 23.7793 11.7676 24.6501 11.2793 25.5615C10.8073 26.473 10.0749 27.3193 9.08203 28.1006C8.10547 28.8656 6.86035 29.5003 5.34668 30.0049C3.84928 30.5094 2.06706 30.7617 0 30.7617V15.918C0 15.2832 0.0813802 14.7054 0.244141 14.1846C0.423177 13.6637 0.65918 13.1999 0.952148 12.793C1.26139 12.3861 1.61947 12.028 2.02637 11.7188C2.43327 11.4095 2.87272 11.1328 3.34473 10.8887C3.00293 10.7585 2.66927 10.6201 2.34375 10.4736C2.01823 10.3109 1.7334 10.14 1.48926 9.96094C1.24512 9.76562 1.0498 9.56217 0.90332 9.35059C0.756836 9.12272 0.683594 8.88672 0.683594 8.64258C0.683594 8.43099 0.756836 8.17871 0.90332 7.88574C1.06608 7.59277 1.26139 7.2998 1.48926 7.00684C1.71712 6.69759 1.96126 6.39648 2.22168 6.10352C2.4821 5.81055 2.7181 5.55013 2.92969 5.32227L6.98242 1.00098C7.4056 0.545247 7.75553 0.268555 8.03223 0.170898C8.3252 0.0569661 8.61816 0 8.91113 0C9.2041 0 9.46452 0.0732422 9.69238 0.219727C9.93652 0.349935 10.1481 0.520833 10.3271 0.732422C10.5225 0.94401 10.6934 1.18001 10.8398 1.44043C11.0026 1.70085 11.1491 1.95312 11.2793 2.19727C11.4095 2.44141 11.5316 2.63672 11.6455 2.7832C11.7757 2.91341 11.8978 3.01107 12.0117 3.07617C12.1257 3.14128 12.2233 3.18197 12.3047 3.19824C12.4023 3.21452 12.4837 3.22266 12.5488 3.22266C12.5977 3.22266 12.6709 3.21452 12.7686 3.19824C12.8662 3.18197 12.9639 3.13314 13.0615 3.05176C13.1755 2.9541 13.2812 2.80762 13.3789 2.6123C13.4766 2.41699 13.5579 2.13216 13.623 1.75781C14.0788 2.13216 14.4287 2.53092 14.6729 2.9541C14.9333 3.37728 15.0635 3.92253 15.0635 4.58984C15.0635 4.91536 14.9902 5.24902 14.8438 5.59082C14.6973 5.93262 14.4775 6.24186 14.1846 6.51855C13.8916 6.79525 13.5173 7.03125 13.0615 7.22656C12.6058 7.4056 12.0768 7.49512 11.4746 7.49512C11.1979 7.49512 10.9049 7.4707 10.5957 7.42188C10.3027 7.37305 9.99349 7.26725 9.66797 7.10449C9.34245 6.94173 9.00879 6.70573 8.66699 6.39648C8.34147 6.08724 8.02409 5.6722 7.71484 5.15137L5.68848 7.44629C5.65592 7.47884 5.59082 7.55208 5.49316 7.66602C5.39551 7.77995 5.28158 7.91016 5.15137 8.05664C5.03744 8.20312 4.93164 8.34961 4.83398 8.49609C4.7526 8.6263 4.71191 8.72396 4.71191 8.78906C4.71191 9.08203 4.87467 9.31803 5.2002 9.49707C5.54199 9.65983 5.95703 9.79818 6.44531 9.91211C7.21029 9.76562 7.93457 9.66797 8.61816 9.61914C9.31803 9.55404 9.92025 9.52148 10.4248 9.52148C10.9131 9.52148 11.5153 9.5459 12.2314 9.59473C12.9476 9.64355 13.6963 9.74935 14.4775 9.91211C15.2751 10.0749 16.0645 10.3027 16.8457 10.5957C17.6432 10.8724 18.3594 11.2467 18.9941 11.7188C19.6289 12.1908 20.1416 12.7767 20.5322 13.4766C20.9229 14.1602 21.1182 14.974 21.1182 15.918V23.9258C21.1182 24.8372 21.2565 25.5859 21.5332 26.1719C21.8099 26.7578 22.1598 27.2217 22.583 27.5635C23.0225 27.889 23.4945 28.1169 23.999 28.2471C24.5199 28.3773 25.0244 28.4424 25.5127 28.4424C26.0335 28.4424 26.5706 28.3691 27.124 28.2227C27.6774 28.0762 28.1738 27.8239 28.6133 27.4658C29.069 27.1077 29.4434 26.6439 29.7363 26.0742C30.0293 25.5046 30.1758 24.7884 30.1758 23.9258V13.7451C30.1758 13.3545 30.1188 13.029 30.0049 12.7686C29.9072 12.5081 29.7689 12.2965 29.5898 12.1338C29.4108 11.971 29.1992 11.849 28.9551 11.7676C28.7272 11.6862 28.4912 11.6211 28.2471 11.5723C27.8076 11.4909 27.3763 11.4014 26.9531 11.3037C26.5462 11.1898 26.1719 11.0514 25.8301 10.8887C25.5046 10.7259 25.236 10.5306 25.0244 10.3027C24.8291 10.0586 24.7314 9.74935 24.7314 9.375C24.7314 9.16341 24.8047 8.91113 24.9512 8.61816C25.1139 8.3252 25.3092 8.03223 25.5371 7.73926C25.765 7.43001 26.0091 7.12891 26.2695 6.83594C26.5299 6.54297 26.766 6.28255 26.9775 6.05469L31.6895 1.00098C32.1126 0.545247 32.4707 0.268555 32.7637 0.170898C33.0566 0.0569661 33.3496 0 33.6426 0C33.9355 0 34.196 0.0732422 34.4238 0.219727C34.668 0.349935 34.8796 0.520833 35.0586 0.732422C35.2539 0.94401 35.4248 1.18001 35.5713 1.44043C35.7341 1.70085 35.8805 1.95312 36.0107 2.19727C36.1409 2.44141 36.263 2.63672 36.377 2.7832C36.5072 2.91341 36.6211 3.01107 36.7188 3.07617C36.8327 3.14128 36.9303 3.18197 37.0117 3.19824C37.1094 3.21452 37.1908 3.22266 37.2559 3.22266C37.321 3.22266 37.4023 3.21452 37.5 3.19824C37.5977 3.18197 37.6953 3.13314 37.793 3.05176C37.9069 2.9541 38.0127 2.80762 38.1104 2.6123C38.208 2.41699 38.2894 2.13216 38.3545 1.75781C38.8102 2.13216 39.1602 2.53092 39.4043 2.9541C39.6647 3.37728 39.7949 3.92253 39.7949 4.58984C39.7949 4.91536 39.7217 5.24902 39.5752 5.59082C39.4287 5.93262 39.209 6.24186 38.916 6.51855C38.623 6.79525 38.2487 7.03125 37.793 7.22656C37.3372 7.4056 36.8083 7.49512 36.2061 7.49512C35.9294 7.49512 35.6364 7.4707 35.3271 7.42188C35.0342 7.37305 34.7168 7.26725 34.375 7.10449C34.0495 6.94173 33.7158 6.70573 33.374 6.39648C33.0485 6.08724 32.7311 5.6722 32.4219 5.15137L30.4199 7.44629C30.3711 7.51139 30.3141 7.58464 30.249 7.66602C30.2002 7.7474 30.1758 7.86133 30.1758 8.00781C30.1758 8.23568 30.306 8.39844 30.5664 8.49609C30.8268 8.59375 31.1198 8.67513 31.4453 8.74023C31.9336 8.83789 32.4544 8.97624 33.0078 9.15527C33.5612 9.31803 34.0739 9.56217 34.5459 9.8877C35.0342 10.2132 35.4329 10.6364 35.7422 11.1572C36.0514 11.6781 36.2061 12.3372 36.2061 13.1348V22.4121ZM7.08008 21.6797C6.88477 21.6797 6.68945 21.7529 6.49414 21.8994C6.29883 22.0296 6.14421 22.2087 6.03027 22.4365V26.8311C6.14421 26.7822 6.32324 26.6764 6.56738 26.5137C6.8278 26.3346 7.08008 26.0986 7.32422 25.8057C7.58464 25.5127 7.8125 25.1628 8.00781 24.7559C8.20312 24.3327 8.30078 23.8525 8.30078 23.3154C8.30078 22.9736 8.26009 22.6969 8.17871 22.4854C8.11361 22.2575 8.01595 22.0866 7.88574 21.9727C7.77181 21.8587 7.6416 21.7855 7.49512 21.7529C7.36491 21.7041 7.22656 21.6797 7.08008 21.6797Z" fill="#0F1729"/>
</svg>
