<svg width="22" height="44" viewBox="0 0 22 44" fill="none" xmlns="http://www.w3.org/2000/svg">
<path d="M12.1826 15.6982C12.1826 16.7074 11.6943 17.2119 10.7178 17.2119C9.74121 17.2119 9.25293 16.7074 9.25293 15.6982C9.25293 14.7542 9.74121 14.2822 10.7178 14.2822C11.6943 14.2822 12.1826 14.7542 12.1826 15.6982ZM13.4521 16.7969C13.4521 15.804 13.9486 15.3076 14.9414 15.3076C15.9017 15.3076 16.3818 15.804 16.3818 16.7969C16.3818 17.7572 15.9017 18.2373 14.9414 18.2373C13.9486 18.2373 13.4521 17.7572 13.4521 16.7969ZM16.6016 19.6533C16.6016 18.6768 17.0898 18.1885 18.0664 18.1885C19.043 18.1885 19.5312 18.7093 19.5312 19.751C19.5312 20.6624 19.043 21.1182 18.0664 21.1182C17.0898 21.1182 16.6016 20.6299 16.6016 19.6533ZM18.042 23.999C18.042 23.0387 18.5303 22.5586 19.5068 22.5586C20.4834 22.5586 20.9717 23.0387 20.9717 23.999C20.9717 24.9919 20.4671 25.4883 19.458 25.4883C18.514 25.4883 18.042 24.9919 18.042 23.999ZM18.5059 29.1016C18.5059 28.125 18.9779 27.6367 19.9219 27.6367C20.931 27.6367 21.4355 28.125 21.4355 29.1016C21.4355 30.0781 20.931 30.5664 19.9219 30.5664C18.9779 30.5664 18.5059 30.0781 18.5059 29.1016ZM12.1826 42.4316C12.1826 43.4245 11.6943 43.9209 10.7178 43.9209C9.74121 43.9209 9.25293 43.4245 9.25293 42.4316C9.25293 41.4714 9.74121 40.9912 10.7178 40.9912C11.6943 40.9912 12.1826 41.4714 12.1826 42.4316ZM18.042 34.2041C18.042 33.195 18.5303 32.6904 19.5068 32.6904C20.4834 32.6904 20.9717 33.195 20.9717 34.2041C20.9717 35.1481 20.4834 35.6201 19.5068 35.6201C18.5303 35.6201 18.042 35.1481 18.042 34.2041ZM13.4521 41.333C13.4521 40.4053 13.9486 39.9414 14.9414 39.9414C15.9017 39.9414 16.3818 40.446 16.3818 41.4551C16.3818 42.3991 15.9017 42.8711 14.9414 42.8711C13.9486 42.8711 13.4521 42.3584 13.4521 41.333ZM16.6016 38.5986C16.6016 37.5895 17.0898 37.085 18.0664 37.085C19.043 37.085 19.5312 37.5895 19.5312 38.5986C19.5312 39.5426 19.043 40.0146 18.0664 40.0146C17.0898 40.0146 16.6016 39.5426 16.6016 38.5986ZM8.00781 16.7969C8.00781 17.7572 7.50326 18.2373 6.49414 18.2373C5.55013 18.2373 5.07812 17.7572 5.07812 16.7969C5.07812 15.804 5.55013 15.3076 6.49414 15.3076C7.50326 15.3076 8.00781 15.804 8.00781 16.7969ZM4.83398 19.6533C4.83398 20.6299 4.3457 21.1182 3.36914 21.1182C2.39258 21.1182 1.9043 20.6624 1.9043 19.751C1.9043 18.7093 2.39258 18.1885 3.36914 18.1885C4.3457 18.1885 4.83398 18.6768 4.83398 19.6533ZM3.39355 23.999C3.39355 24.9919 2.92969 25.4883 2.00195 25.4883C0.976562 25.4883 0.463867 24.9919 0.463867 23.999C0.463867 23.0387 0.952148 22.5586 1.92871 22.5586C2.90527 22.5586 3.39355 23.0387 3.39355 23.999ZM2.92969 29.1016C2.92969 30.0781 2.45768 30.5664 1.51367 30.5664C0.504557 30.5664 0 30.0781 0 29.1016C0 28.125 0.504557 27.6367 1.51367 27.6367C2.45768 27.6367 2.92969 28.125 2.92969 29.1016ZM3.39355 34.2041C3.39355 35.1481 2.90527 35.6201 1.92871 35.6201C0.952148 35.6201 0.463867 35.1481 0.463867 34.2041C0.463867 33.195 0.952148 32.6904 1.92871 32.6904C2.90527 32.6904 3.39355 33.195 3.39355 34.2041ZM8.00781 41.333C8.00781 42.3584 7.50326 42.8711 6.49414 42.8711C5.55013 42.8711 5.07812 42.3991 5.07812 41.4551C5.07812 40.446 5.55013 39.9414 6.49414 39.9414C7.50326 39.9414 8.00781 40.4053 8.00781 41.333ZM4.83398 38.5986C4.83398 39.5426 4.3457 40.0146 3.36914 40.0146C2.39258 40.0146 1.9043 39.5426 1.9043 38.5986C1.9043 37.5895 2.39258 37.085 3.36914 37.085C4.3457 37.085 4.83398 37.5895 4.83398 38.5986ZM14.7949 6.98242C14.6484 6.6569 14.4043 6.24186 14.0625 5.7373C13.737 5.21647 13.3057 4.72005 12.7686 4.24805C12.2314 3.75977 11.5967 3.34473 10.8643 3.00293C10.1481 2.64486 9.34245 2.46582 8.44727 2.46582C7.91016 2.46582 7.45443 2.53906 7.08008 2.68555C6.72201 2.83203 6.4209 3.01921 6.17676 3.24707C5.94889 3.47493 5.77799 3.72721 5.66406 4.00391C5.56641 4.26432 5.51758 4.52474 5.51758 4.78516C5.51758 5.0293 5.55827 5.28158 5.63965 5.54199C5.72103 5.78613 5.86751 6.02214 6.0791 6.25C6.30697 6.46159 6.60807 6.64062 6.98242 6.78711C7.35677 6.91732 7.82878 6.98242 8.39844 6.98242H14.7949ZM5.51758 9.17969C4.54102 9.17969 3.7028 9.08203 3.00293 8.88672C2.30306 8.67513 1.7334 8.39844 1.29395 8.05664C0.854492 7.69857 0.528971 7.29167 0.317383 6.83594C0.105794 6.36393 0 5.86751 0 5.34668C0 4.4515 0.211589 3.67025 0.634766 3.00293C1.05794 2.33561 1.6276 1.78223 2.34375 1.34277C3.07617 0.887044 3.92253 0.553385 4.88281 0.341797C5.8431 0.113932 6.86035 0 7.93457 0C9.65983 0 11.2223 0.236003 12.6221 0.708008C14.0381 1.18001 15.2832 1.83105 16.3574 2.66113C17.4479 3.49121 18.3594 4.46777 19.0918 5.59082C19.8405 6.69759 20.4183 7.89388 20.8252 9.17969H5.51758Z" fill="#0F1729"/>
</svg>
